<?xml version="1.0" encoding="UTF-8" standalone="no"?>
<!-- Generator: Gravit.io -->
<svg xmlns="http://www.w3.org/2000/svg" xmlns:xlink="http://www.w3.org/1999/xlink" style="isolation:isolate" viewBox="0 0 953 163" width="953pt" height="163pt"><defs><clipPath id="_clipPath_QhGaafRiL4QUmT0AKUTcP9UW6dbOjKGV"><rect width="953" height="163"/></clipPath></defs><g clip-path="url(#_clipPath_QhGaafRiL4QUmT0AKUTcP9UW6dbOjKGV)"><path d=" M 2 28.7 C 2 36.4 2.3 44.2 2.6 45.9 L 3.3 49 L 26.6 49 L 49.9 49 L 50.2 96.9 C 50.4 123.3 50.8 145.1 51.1 145.4 C 51.4 145.8 59 146.3 67.9 146.7 L 84 147.3 L 84 98.2 L 84 49 L 108.5 49 L 133 49 L 133 32.5 L 133 16 L 91.7 16 C 68.9 16 39.5 15.7 26.2 15.3 L 2 14.7 L 2 28.7 Z " fill="rgb(61,92,157)"/><path d=" M 137 80 C 137 139.9 137.1 144.8 138.7 145.4 C 139.6 145.8 169.1 146.4 204.3 146.7 L 268.1 147.3 L 267.8 131.2 C 267.6 122.4 267.1 114.8 266.7 114.3 C 266.2 113.9 244.5 113.4 218.4 113.2 L 171 112.9 L 171 105.5 L 171 98 L 200.8 98 C 217.1 98 239 97.7 249.3 97.3 L 268.1 96.7 L 267.8 80.9 C 267.6 72.3 267.2 64.9 266.8 64.5 C 266.5 64.1 244.7 63.6 218.6 63.3 L 171 62.7 L 171 55.8 L 171 49 L 219.6 49 L 268.3 49 L 267.8 33 C 267.5 24.2 267.2 16.8 266.9 16.6 C 266.7 16.4 237.4 16 201.8 15.7 L 137 15.2 L 137 80 Z " fill="rgb(61,92,157)"/><path d=" M 445 79.1 C 445 114.5 445.4 144.1 445.8 144.8 C 446.4 145.7 451.4 146.2 462.8 146.7 L 479 147.3 L 479 98.2 L 479 49 L 491.3 49 C 516.8 49.1 524.6 50.9 533.7 59.3 C 541.4 66.3 541.3 65.9 542 107.3 C 542.4 130.3 543 144.4 543.7 145.1 C 544.2 145.6 551.8 146.4 560.5 146.7 L 576.2 147.3 L 575.8 107.9 C 575.4 70.2 575.3 68.2 573.1 62 C 566.8 43.9 554.1 29.7 536.6 21.4 C 532.6 19.5 526.4 17.5 522.9 16.9 C 519.4 16.4 500.4 15.7 480.8 15.3 L 445 14.7 L 445 79.1 Z " fill="rgb(61,92,157)"/><path d=" M 637 16 C 623.5 17.5 612 22.7 601.9 31.9 C 579.3 52.2 574.1 84.5 588.8 112.4 C 594.1 122.5 606.2 134.5 616 139.3 C 633.8 148.1 658 148.6 673.7 140.6 C 686.8 134 699.1 121.5 705 108.7 C 709.3 99.6 711.3 87.8 710.5 76.7 C 709.4 61.8 705.7 52.4 696.4 40.9 C 682.1 23 659.4 13.5 637 16 Z  M 658.7 52.2 C 664.8 55 672.5 62.3 675 67.6 C 676.9 71.5 677.2 73.4 676.8 80.8 C 676.2 94.9 670.4 103.8 658.2 109.7 C 653.6 111.9 651.1 112.4 644.9 112.4 C 634.4 112.5 627.4 109 620.8 100.2 C 615.2 92.8 613.6 87.6 614.3 79.5 C 616.4 57 639.2 43 658.7 52.2 Z " fill="rgb(61,92,157)"/><path d=" M 712.8 16.1 C 708.4 17.3 703.4 20.8 702.2 23.5 C 698.8 30.8 699.9 33.6 736.6 112.7 L 752.4 147 L 766.2 147 L 780 147 L 782.9 140.7 C 784.4 137.3 794.2 116.3 804.5 94 C 826.6 46.2 830 38.2 830.7 31.4 C 831.2 26.7 831 26.1 828 22.6 C 823.7 17.7 819.7 15.8 813.9 15.7 C 805.2 15.6 803.2 17.8 792 40.5 C 786.6 51.5 779 67.2 775.2 75.3 C 771.3 83.4 767.6 91 766.8 92.2 C 765.5 94.1 764.5 92.4 752.6 67.4 C 731.2 22.7 731.2 22.7 727.5 20.2 C 722.9 17 716.1 15.1 712.8 16.1 Z " fill="rgb(61,92,157)"/><path d=" M 873 16.5 C 853.1 20.2 832.2 37.5 824.7 56.7 C 822 63.5 821 79.4 821 114.3 L 821 147.3 L 837.2 146.6 C 846.1 146.3 853.6 145.7 853.9 145.4 C 854.2 145.1 854.7 137.9 854.9 129.4 L 855.2 114 L 874.4 114 C 885 114 899.1 114.3 905.7 114.6 L 917.8 115.3 L 918.5 130.6 L 919.2 146 L 935.8 146 L 952.3 146 L 951.7 108.2 C 951.3 86.9 950.6 68.5 950 66 C 949.4 63.5 947.1 57.7 944.8 53 C 939.1 41 927.1 29.1 915 23.2 C 900.8 16.2 886.6 14 873 16.5 Z  M 898.7 52.1 C 905.7 54.8 914.3 64 916.5 71.2 C 919.3 80.6 920.5 80 899.3 80 C 888.9 80 874.8 80.3 867.8 80.7 L 855 81.3 L 855 77.4 C 855.1 70 861.3 59.9 869 54.5 C 877.2 48.8 887.5 48 898.7 52.1 Z " fill="rgb(61,92,157)"/><path d=" M 321 17.1 C 318.5 17.6 312.7 19.8 308 22.1 C 292.5 29.8 279.5 45.4 274.4 62.5 C 272 70.5 272 88 274.4 97 C 275.4 100.6 278 107.1 280.3 111.5 C 287.5 125.5 303.3 139.3 317.2 143.5 C 323.4 145.4 351.4 146.9 382.9 146.9 L 403.3 147 L 402.7 134.8 C 402.3 128.2 402 120.6 402 118 L 402 113.3 L 364.1 112.7 L 326.1 112.2 L 321.7 109.1 C 304.1 97 300.8 75.2 314.3 60.3 C 322 51.9 325 50.8 342 49.9 C 350 49.5 367 49.1 379.9 49.1 L 403.3 49 L 402.7 36.8 C 402.3 30.2 402 22.7 402 20.3 L 402 16 L 363.8 16.1 C 342.7 16.2 323.5 16.6 321 17.1 Z " fill="rgb(61,92,157)"/><path d=" M 414.4 17.9 C 409.6 20.8 408 23.8 408 29.6 C 408 35.3 409.5 40.6 411.9 43.4 C 414 45.9 420.8 49 424.3 49 C 433.2 49 442.2 38.3 440.6 29.5 C 439.8 25.2 434.7 19.2 430.3 17.4 C 425.6 15.4 418.1 15.7 414.4 17.9 Z " fill="rgb(61,92,157)"/><path d=" M 408 114 L 408 147 L 414.8 147 C 418.5 147 425.9 146.7 431.3 146.3 L 441 145.7 L 441 113.3 L 441 81 L 424.5 81 L 408 81 L 408 114 Z " fill="rgb(61,92,157)"/></g></svg>