<svg id="svgcontent" width="1210" height="600" x="0" y="0" overflow="visible" xmlns="http://www.w3.org/2000/svg" xmlns:se="http://imprintnext.com" xmlns:xlink="http://www.w3.org/1999/xlink" viewBox="0 0 1210 600"><!-- Made with luv in USA by ImprintNext - https://imprintnext.com--><defs><clipPath id="bound_0" xe_id="bound_0"><rect id="xe_qo22g2" x="278.7392795883362" y="70" pointer-events="all" width="652.5214408233276" height="460"></rect></clipPath></defs><g id="bounds" display="none"><path d="M278.7392795883362 70 L931.2607204116638 70 L931.2607204116638 530 L278.7392795883362 530  Z" x="278.7392795883362" y="70" width="652.5214408233276" height="460" aWidth="8.27" aHeight="5.83" fill="none" stroke="#006400" isBleed="0" safeVal="0" cropVal="0" stroke-miterlimit="null" stroke-width="1" pointer-events="all" id="bound_0" xe_id="bound_0"></path></g><g class="layer" id="Layer_0" xe_id="Layer_0" style="pointer-events:all" clip-path="url(#bound_0)"><title>Layer_0</title><g id="background" type="bg_area_0" pointer-events="none" style="color-interpolation-filters:sRGB;pointer-events: none;"></g><g id="xe_zh75ny" type="image" pointer-events="bounding-box" xe-props="&amp;#35;&amp;#103;&amp;#76;&amp;#73;&amp;#65;&amp;#101;&amp;#122;&amp;#127;&amp;#26;&amp;#89;&amp;#92;&amp;#97;&amp;#63;&amp;#32;&amp;#26;&amp;#28;&amp;#19;&amp;#111;&amp;#58;&amp;#47;&amp;#93;&amp;#83;&amp;#69;&amp;#84;&amp;#49;&amp;#49;&amp;#84;&amp;#85;&amp;#19;&amp;#58;&amp;#122;&amp;#103;&amp;#20;&amp;#18;&amp;#88;&amp;#115;&amp;#12;&amp;#32;&amp;#85;&amp;#64;&amp;#93;&amp;#97;&amp;#44;&amp;#32;&amp;#113;&amp;#93;&amp;#86;&amp;#34;&amp;#98;&amp;#35;&amp;#89;&amp;#92;&amp;#66;&amp;#101;&amp;#116;&amp;#103;&amp;#91;&amp;#95;&amp;#95;&amp;#116;&amp;#61;&amp;#43;&amp;#76;&amp;#100;&amp;#72;&amp;#112;&amp;#61;&amp;#103;&amp;#2;&amp;#18;&amp;#88;&amp;#109;&amp;#57;&amp;#34;&amp;#93;&amp;#31;&amp;#66;&amp;#118;&amp;#63;&amp;#110;&amp;#64;&amp;#93;&amp;#93;&amp;#34;&amp;#116;&amp;#103;&amp;#81;&amp;#93;&amp;#86;&amp;#69;&amp;#32;&amp;#49;&amp;#93;&amp;#94;&amp;#66;&amp;#105;&amp;#55;&amp;#43;&amp;#26;&amp;#10;&amp;#19;&amp;#115;&amp;#46;&amp;#34;&amp;#26;&amp;#28;&amp;#19;&amp;#111;&amp;#54;&amp;#32;&amp;#123;&amp;#95;&amp;#93;&amp;#111;&amp;#42;&amp;#3;&amp;#81;&amp;#92;&amp;#93;&amp;#34;&amp;#98;&amp;#103;&amp;#27;&amp;#118;&amp;#119;&amp;#48;&amp;#104;&amp;#117;&amp;#8;&amp;#18;&amp;#29;&amp;#34;&amp;#49;&amp;#40;&amp;#95;&amp;#100;&amp;#72;&amp;#112;&amp;#61;&amp;#103;&amp;#2;&amp;#18;&amp;#66;&amp;#118;&amp;#63;&amp;#103;&amp;#20;&amp;#18;&amp;#88;&amp;#109;&amp;#63;&amp;#22;&amp;#93;&amp;#92;&amp;#84;&amp;#99;&amp;#44;&amp;#44;&amp;#87;&amp;#94;&amp;#101;&amp;#121;&amp;#40;&amp;#32;&amp;#26;&amp;#10;&amp;#19;&amp;#117;&amp;#40;&amp;#41;&amp;#87;&amp;#81;&amp;#85;&amp;#34;&amp;#116;&amp;#103;&amp;#84;&amp;#95;&amp;#82;&amp;#107;&amp;#122;&amp;#127;&amp;#67;&amp;#18;&amp;#82;&amp;#111;&amp;#52;&amp;#42;&amp;#74;&amp;#117;&amp;#85;&amp;#105;&amp;#44;&amp;#103;&amp;#2;&amp;#86;&amp;#80;&amp;#108;&amp;#43;&amp;#32;&amp;#20;&amp;#18;&amp;#85;&amp;#101;&amp;#52;&amp;#32;&amp;#76;&amp;#85;&amp;#19;&amp;#58;&amp;#62;&amp;#36;&amp;#84;&amp;#67;&amp;#84;&amp;#44;&amp;#122;&amp;#40;&amp;#87;&amp;#70;&amp;#84;&amp;#34;&amp;#98;&amp;#35;&amp;#89;&amp;#92;&amp;#66;&amp;#101;&amp;#116;&amp;#103;&amp;#74;&amp;#95;&amp;#69;&amp;#97;&amp;#44;&amp;#32;&amp;#26;&amp;#10;&amp;#87;&amp;#97;&amp;#52;&amp;#54;&amp;#93;&amp;#28;&amp;#19;&amp;#114;&amp;#61;&amp;#54;&amp;#81;&amp;#74;&amp;#84;&amp;#34;&amp;#98;&amp;#35;&amp;#89;&amp;#92;&amp;#66;&amp;#101;&amp;#116;&amp;#103;&amp;#93;&amp;#84;&amp;#88;&amp;#116;&amp;#122;&amp;#127;&amp;#94;&amp;#81;&amp;#93;&amp;#115;&amp;#61;&amp;#56;&amp;#20;&amp;#18;&amp;#82;&amp;#111;&amp;#52;&amp;#42;&amp;#74;&amp;#67;&amp;#19;&amp;#58;&amp;#3;&amp;#103;&amp;#27;&amp;#3;&amp;#85;&amp;#53;&amp;#59;&amp;#124;&amp;#92;&amp;#18;&amp;#108;&amp;#44;&amp;#122;&amp;#44;&amp;#85;&amp;#81;&amp;#86;&amp;#101;&amp;#15;&amp;#36;&amp;#74;&amp;#94;&amp;#88;&amp;#110;&amp;#63;&amp;#103;&amp;#2;&amp;#86;&amp;#80;&amp;#108;&amp;#43;&amp;#32;&amp;#20;&amp;#18;&amp;#68;&amp;#112;&amp;#52;&amp;#42;&amp;#89;&amp;#84;&amp;#84;&amp;#100;&amp;#17;&amp;#40;&amp;#95;&amp;#18;&amp;#11;&amp;#34;&amp;#48;&amp;#49;&amp;#76;&amp;#64;&amp;#66;&amp;#58;&amp;#119;&amp;#106;&amp;#81;&amp;#93;&amp;#65;&amp;#114;&amp;#49;&amp;#43;&amp;#76;&amp;#94;&amp;#84;&amp;#120;&amp;#44;&amp;#107;&amp;#81;&amp;#95;&amp;#30;&amp;#120;&amp;#61;&amp;#49;&amp;#87;&amp;#95;&amp;#93;&amp;#47;&amp;#57;&amp;#54;&amp;#75;&amp;#85;&amp;#69;&amp;#115;&amp;#119;&amp;#39;&amp;#74;&amp;#95;&amp;#70;&amp;#115;&amp;#61;&amp;#55;&amp;#103;&amp;#89;&amp;#92;&amp;#97;&amp;#63;&amp;#32;&amp;#75;&amp;#31;&amp;#3;&amp;#48;&amp;#106;&amp;#116;&amp;#9;&amp;#2;&amp;#0;&amp;#53;&amp;#104;&amp;#115;&amp;#12;&amp;#6;&amp;#5;&amp;#50;&amp;#105;&amp;#118;&amp;#10;&amp;#30;&amp;#66;&amp;#118;&amp;#63;&amp;#103;&amp;#69;"><g id="xe_qw937z"><g clip-path="url(#_clipPath_VxKTMnXmX9eIxPUoRyZDs3JkRTp4N4Du)" id="xe_ejk2e2" transform="matrix(0.912617, 0, 0, 0.912617, 0, 0)"><path d="M306.9283935546875,291.8748352050781 L307.2283935546875,304.6748352050781 L325.0283935546875,304.97483520507814 L342.7283935546875,305.1748352050781 L342.7283935546875,340.0748352050781 C342.7283935546875,359.27483520507815 343.0283935546875,375.6748352050781 343.3283935546875,376.5748352050781 C343.8283935546875,377.8748352050781 345.9283935546875,378.1748352050781 356.3283935546875,378.1748352050781 L368.7283935546875,378.1748352050781 L368.7283935546875,341.6748352050781 L368.7283935546875,305.1748352050781 L387.0283935546875,304.97483520507814 L405.2283935546875,304.6748352050781 L405.2283935546875,292.1748352050781 L405.2283935546875,279.6748352050781 L355.9283935546875,279.3748352050781 L306.6283935546875,279.1748352050781 L306.9283935546875,291.8748352050781 z" fill="#3d5c9d" id="xe_oxv8tx" oldFill="#3d5c9d"></path><path d="M407.7283935546875,327.0748352050781 C407.7283935546875,353.47483520507814 408.0283935546875,375.6748352050781 408.3283935546875,376.5748352050781 C408.8283935546875,377.97483520507814 414.1283935546875,378.1748352050781 457.8283935546875,378.1748352050781 L506.7283935546875,378.1748352050781 L506.7283935546875,365.77483520507815 C506.7283935546875,355.3748352050781 506.4283935546875,353.27483520507815 505.1283935546875,352.77483520507815 C504.2283935546875,352.47483520507814 487.8283935546875,352.1748352050781 468.6283935546875,352.1748352050781 L433.6283935546875,352.1748352050781 L433.9283935546875,346.97483520507814 L434.2283935546875,341.6748352050781 L470.5283935546875,341.3748352050781 L506.7283935546875,341.1748352050781 L506.7283935546875,328.77483520507815 C506.7283935546875,318.3748352050781 506.4283935546875,316.27483520507815 505.1283935546875,315.77483520507815 C504.2283935546875,315.47483520507814 487.8283935546875,315.1748352050781 468.6283935546875,315.1748352050781 L433.7283935546875,315.1748352050781 L433.7283935546875,310.1748352050781 L433.7283935546875,305.1748352050781 L470.2283935546875,305.1748352050781 L506.8283935546875,305.1748352050781 L506.5283935546875,292.3748352050781 L506.2283935546875,279.6748352050781 L457.0283935546875,279.3748352050781 L407.7283935546875,279.1748352050781 L407.7283935546875,327.0748352050781 z" fill="#3d5c9d" id="xe_pz8e7b" oldFill="rgb(255,255,255)"></path><path d="M545.3283935546875,280.77483520507815 C527.5283935546875,285.0748352050781 512.3283935546875,302.1748352050781 509.7283935546875,320.6748352050781 C507.3283935546875,338.6748352050781 514.9283935546875,357.5748352050781 528.9283935546875,367.97483520507814 C541.3283935546875,377.27483520507815 545.8283935546875,378.1748352050781 580.5283935546875,378.1748352050781 L607.8283935546875,378.1748352050781 L607.5283935546875,365.3748352050781 L607.2283935546875,352.6748352050781 L578.6283935546875,352.1748352050781 L550.0283935546875,351.6748352050781 L545.9283935546875,348.8748352050781 C535.7283935546875,342.1748352050781 532.2283935546875,328.97483520507814 537.7283935546875,318.0748352050781 C540.2283935546875,313.1748352050781 546.8283935546875,307.5748352050781 551.4283935546875,306.27483520507815 C553.6283935546875,305.5748352050781 566.0283935546875,305.1748352050781 581.5283935546875,305.1748352050781 L607.8283935546875,305.1748352050781 L607.5283935546875,292.3748352050781 L607.2283935546875,279.6748352050781 L579.2283935546875,279.47483520507814 C557.8283935546875,279.3748352050781 549.8283935546875,279.6748352050781 545.3283935546875,280.77483520507815 z" fill="#3d5c9d" id="xe_4osv7m" oldFill="rgb(255,255,255)"></path><path d="M616.0283935546875,281.0748352050781 C614.3283935546875,282.1748352050781 612.3283935546875,284.0748352050781 611.7283935546875,285.27483520507815 C610.0283935546875,288.3748352050781 611.0283935546875,296.77483520507815 613.4283935546875,299.97483520507814 C615.8283935546875,303.1748352050781 622.3283935546875,305.77483520507815 625.9283935546875,304.8748352050781 C630.0283935546875,303.77483520507815 634.6283935546875,299.3748352050781 635.8283935546875,295.1748352050781 C638.0283935546875,287.97483520507814 632.0283935546875,280.3748352050781 623.6283935546875,279.47483520507814 C620.4283935546875,279.1748352050781 618.4283935546875,279.5748352050781 616.0283935546875,281.0748352050781 z" fill="#3d5c9d" id="xe_o1p24i" oldFill="rgb(255,255,255)"></path><path d="M638.7283935546875,327.0748352050781 C638.7283935546875,353.47483520507814 639.0283935546875,375.6748352050781 639.3283935546875,376.5748352050781 C639.8283935546875,377.8748352050781 641.9283935546875,378.1748352050781 652.3283935546875,378.1748352050781 L664.7283935546875,378.1748352050781 L664.7283935546875,341.6748352050781 L664.7283935546875,305.1748352050781 L678.3283935546875,305.1748352050781 C694.2283935546875,305.1748352050781 698.2283935546875,306.1748352050781 704.1283935546875,311.27483520507815 C711.6283935546875,317.8748352050781 711.7283935546875,318.47483520507814 711.7283935546875,348.47483520507814 C711.7283935546875,363.0748352050781 712.0283935546875,375.6748352050781 712.3283935546875,376.5748352050781 C712.8283935546875,377.8748352050781 714.9283935546875,378.1748352050781 725.3283935546875,378.1748352050781 L737.7283935546875,378.1748352050781 L737.7283935546875,351.8748352050781 C737.7283935546875,337.47483520507814 737.2283935546875,322.97483520507814 736.7283935546875,319.6748352050781 C733.7283935546875,301.1748352050781 716.2283935546875,283.6748352050781 697.3283935546875,280.27483520507815 C694.0283935546875,279.6748352050781 679.5283935546875,279.1748352050781 665.0283935546875,279.1748352050781 L638.7283935546875,279.1748352050781 L638.7283935546875,327.0748352050781 z" fill="#3d5c9d" id="xe_do9ag8" oldFill="rgb(255,255,255)"></path><path d="M775.7283935546875,280.97483520507814 C752.8283935546875,286.97483520507814 737.0283935546875,310.97483520507814 740.7283935546875,334.3748352050781 C742.1283935546875,343.77483520507815 745.1283935546875,351.0748352050781 750.1283935546875,357.8748352050781 C755.5283935546875,365.0748352050781 757.7283935546875,367.1748352050781 765.1283935546875,371.5748352050781 C776.6283935546875,378.47483520507814 794.1283935546875,379.97483520507814 807.0283935546875,375.1748352050781 C819.2283935546875,370.5748352050781 831.0283935546875,358.77483520507815 835.8283935546875,346.3748352050781 C837.1283935546875,342.8748352050781 838.2283935546875,337.47483520507814 838.5283935546875,332.27483520507815 C839.3283935546875,317.3748352050781 835.4283935546875,306.1748352050781 825.7283935546875,295.8748352050781 C812.3283935546875,281.5748352050781 794.1283935546875,276.1748352050781 775.7283935546875,280.97483520507814 zM797.1283935546875,306.27483520507815 C801.4283935546875,307.47483520507814 809.1283935546875,314.0748352050781 811.4283935546875,318.5748352050781 C813.7283935546875,323.0748352050781 813.4283935546875,333.0748352050781 810.7283935546875,338.5748352050781 C804.6283935546875,351.27483520507815 787.4283935546875,356.27483520507815 776.5283935546875,348.5748352050781 C774.2283935546875,346.97483520507814 770.9283935546875,343.3748352050781 769.2283935546875,340.6748352050781 C766.6283935546875,336.5748352050781 766.2283935546875,334.8748352050781 766.2283935546875,329.27483520507815 C766.3283935546875,312.6748352050781 780.9283935546875,301.77483520507815 797.1283935546875,306.27483520507815 z" fill="#3d5c9d" id="xe_edjtq3" oldFill="rgb(255,255,255)"></path><path d="M836.0283935546875,281.1748352050781 C834.3283935546875,282.1748352050781 832.3283935546875,283.97483520507814 831.8283935546875,285.0748352050781 C829.0283935546875,290.1748352050781 830.3283935546875,294.1748352050781 846.2283935546875,328.27483520507815 C854.8283935546875,346.6748352050781 863.4283935546875,365.3748352050781 865.5283935546875,369.8748352050781 L869.2283935546875,378.0748352050781 L879.8283935546875,378.1748352050781 L890.3283935546875,378.1748352050781 L909.5283935546875,337.0748352050781 C931.2283935546875,290.5748352050781 931.5283935546875,289.77483520507815 925.4283935546875,283.6748352050781 C919.7283935546875,277.97483520507814 911.7283935546875,277.77483520507815 906.8283935546875,283.1748352050781 C905.4283935546875,284.77483520507815 898.8283935546875,297.77483520507815 892.2283935546875,312.0748352050781 C885.6283935546875,326.3748352050781 880.0283935546875,338.1748352050781 879.6283935546875,338.1748352050781 C879.3283935546875,338.1748352050781 873.8283935546875,326.77483520507815 867.3283935546875,312.8748352050781 C860.8283935546875,299.0748352050781 854.8283935546875,286.5748352050781 854.0283935546875,285.3748352050781 C852.3283935546875,282.6748352050781 845.4283935546875,279.27483520507815 841.7283935546875,279.1748352050781 C840.3283935546875,279.1748352050781 837.8283935546875,280.0748352050781 836.0283935546875,281.1748352050781 z" fill="#3d5c9d" id="xe_jyxj3x" oldFill="rgb(255,255,255)"></path><path d="M957.2283935546875,280.5748352050781 C945.9283935546875,283.27483520507815 934.4283935546875,291.77483520507815 927.7283935546875,302.1748352050781 C921.3283935546875,312.1748352050781 920.7283935546875,315.97483520507814 920.7283935546875,348.77483520507815 L920.7283935546875,378.27483520507815 L933.5283935546875,377.97483520507814 L946.2283935546875,377.6748352050781 L946.5283935546875,365.6748352050781 L946.8283935546875,353.6748352050781 L970.0283935546875,353.8748352050781 L993.2283935546875,354.0748352050781 L993.7283935546875,365.8748352050781 L994.2283935546875,377.6748352050781 L1006.7283935546875,377.6748352050781 L1019.2283935546875,377.6748352050781 L1019.2283935546875,350.1748352050781 C1019.2283935546875,330.1748352050781 1018.8283935546875,321.1748352050781 1017.8283935546875,317.1748352050781 C1011.3283935546875,291.0748352050781 983.4283935546875,274.1748352050781 957.2283935546875,280.5748352050781 zM982.3283935546875,308.77483520507815 C987.9283935546875,312.1748352050781 992.8283935546875,319.3748352050781 993.0283935546875,324.3748352050781 L993.2283935546875,327.6748352050781 L970.0283935546875,327.97483520507814 L946.7283935546875,328.1748352050781 L946.7283935546875,325.47483520507814 C946.7283935546875,318.77483520507815 954.2283935546875,309.3748352050781 961.8283935546875,306.47483520507814 C967.6283935546875,304.27483520507815 976.8283935546875,305.27483520507815 982.3283935546875,308.77483520507815 z" fill="#3d5c9d" id="xe_43jcgm" oldFill="rgb(255,255,255)"></path><path d="M610.7283935546875,353.1748352050781 L610.7283935546875,378.27483520507815 L623.5283935546875,377.97483520507814 L636.2283935546875,377.6748352050781 L636.2283935546875,353.1748352050781 L636.2283935546875,328.6748352050781 L623.5283935546875,328.3748352050781 L610.7283935546875,328.0748352050781 L610.7283935546875,353.1748352050781 z" fill="#3d5c9d" id="xe_o7ibn2" oldFill="rgb(255,255,255)"></path></g></g></g></g><g id="borderG" clip-path="url(#bound_0)" display="none"><rect id="border" x="278.7392795883362" y="70" width="652.5214408233276" height="460" aWidth="8.27" aHeight="5.83" fill="none" stroke-width="1" stroke="#000" pointer-events="none"></rect></g></svg>