<?xml version="1.0" standalone="no"?>
<!DOCTYPE svg PUBLIC "-//W3C//DTD SVG 20010904//EN"
 "http://www.w3.org/TR/2001/REC-SVG-20010904/DTD/svg10.dtd">
<svg version="1.0" xmlns="http://www.w3.org/2000/svg"
 width="2500.000000pt" height="1000.000000pt" viewBox="0 0 2500.000000 1000.000000"
 preserveAspectRatio="xMidYMid meet">

<g transform="translate(0.000000,1000.000000) scale(0.100000,-0.100000)"
fill="#000000" stroke="none">
<path d="M12150 9819 c-226 -30 -324 -47 -415 -70 -101 -26 -122 -32 -145 -39
-14 -4 -45 -13 -70 -20 -92 -26 -170 -53 -245 -85 -16 -7 -40 -16 -53 -20 -37
-11 -367 -177 -370 -186 -2 -5 -8 -9 -14 -9 -6 0 -36 -16 -67 -36 -31 -20 -74
-48 -96 -63 -166 -107 -327 -242 -510 -425 -299 -301 -518 -623 -680 -1002
-45 -104 -157 -424 -149 -424 2 0 -1 -12 -7 -27 -6 -16 -14 -46 -19 -68 -4
-22 -15 -74 -23 -115 -15 -71 -20 -102 -48 -295 -18 -123 -15 -604 5 -745 37
-264 45 -303 110 -535 25 -88 69 -215 96 -280 5 -11 19 -45 31 -75 59 -144
178 -365 278 -515 47 -71 199 -276 211 -285 4 -3 33 -36 66 -75 118 -140 370
-371 519 -475 188 -131 286 -191 445 -270 289 -145 378 -172 425 -132 23 19
32 37 65 127 12 33 26 69 30 80 17 39 147 388 172 460 11 32 12 35 51 135 14
36 39 101 56 145 16 44 86 231 154 415 69 184 141 378 160 430 20 52 45 117
56 143 25 58 27 104 5 135 -8 12 -61 44 -117 70 -56 27 -140 77 -186 112 -78
59 -188 179 -220 239 -8 14 -17 28 -20 31 -14 11 -93 187 -93 207 0 4 -4 15
-9 24 -20 38 -39 172 -39 279 0 170 30 295 110 452 50 99 100 165 192 254 142
139 270 206 503 264 86 21 231 24 327 6 239 -45 401 -131 566 -301 51 -52 92
-99 92 -104 0 -5 7 -16 15 -25 28 -27 103 -189 131 -281 23 -75 28 -114 32
-235 2 -87 0 -165 -7 -195 -6 -27 -13 -60 -15 -71 -16 -83 -91 -245 -153 -332
-100 -141 -235 -252 -399 -328 -54 -26 -104 -54 -111 -63 -15 -19 -17 -81 -4
-113 6 -13 26 -66 46 -118 20 -52 40 -104 45 -115 4 -11 13 -36 20 -55 7 -19
16 -44 20 -55 4 -11 18 -47 30 -80 12 -33 26 -69 30 -80 5 -11 27 -69 50 -130
97 -259 114 -306 157 -420 25 -66 55 -147 68 -180 59 -156 116 -309 150 -400
33 -89 60 -160 85 -220 5 -11 12 -30 15 -43 4 -12 18 -36 32 -52 19 -23 33
-30 62 -30 47 0 177 52 356 142 77 39 150 76 162 82 13 6 23 14 23 19 0 4 5 7
11 7 6 0 68 38 138 84 405 268 756 636 1011 1061 63 106 230 450 230 475 0 6
4 18 10 28 34 62 113 345 153 552 44 222 51 311 51 605 0 263 -4 331 -34 505
-5 30 -12 72 -14 93 -3 21 -7 41 -10 45 -2 4 -7 23 -10 42 -3 19 -10 50 -15
68 -5 17 -8 32 -5 32 2 0 -2 17 -10 38 -7 20 -19 57 -26 82 -26 93 -72 227
-100 295 -5 11 -17 40 -27 65 -10 25 -53 115 -97 200 -43 85 -84 165 -90 177
-6 13 -14 23 -18 23 -5 0 -8 5 -8 10 0 8 -61 104 -130 204 -87 126 -197 254
-355 411 -306 307 -599 510 -980 680 -33 15 -69 31 -80 36 -25 11 -147 56
-200 74 -99 33 -329 95 -380 101 -16 2 -36 6 -44 9 -8 3 -37 8 -65 11 -28 3
-54 8 -57 10 -4 2 -33 6 -65 9 -33 3 -88 10 -124 15 -80 12 -541 11 -630 -1z
m528 -189 c51 -6 120 -12 153 -14 33 -3 68 -7 77 -10 9 -3 35 -7 57 -11 194
-27 456 -100 650 -180 11 -5 22 -9 25 -10 43 -14 274 -127 371 -183 39 -22
207 -130 224 -144 6 -5 42 -32 80 -60 39 -28 72 -54 75 -57 3 -3 32 -28 65
-56 76 -63 297 -283 355 -355 25 -30 47 -57 50 -60 4 -3 19 -23 35 -45 17 -22
32 -42 36 -45 8 -7 98 -141 143 -213 66 -105 156 -275 195 -367 13 -30 29 -68
36 -85 56 -132 144 -417 161 -523 3 -20 8 -40 10 -44 2 -3 7 -30 10 -60 3 -29
8 -56 10 -60 2 -4 7 -32 9 -63 3 -31 10 -86 15 -123 12 -86 13 -488 1 -567 -6
-33 -12 -88 -15 -122 -4 -34 -8 -68 -11 -75 -2 -7 -7 -32 -9 -56 -3 -23 -7
-45 -9 -50 -3 -4 -8 -24 -11 -44 -12 -77 -105 -397 -135 -463 -5 -11 -30 -69
-56 -130 -42 -99 -71 -155 -153 -305 -25 -45 -200 -311 -211 -320 -3 -3 -24
-27 -46 -55 -67 -84 -105 -125 -235 -255 -127 -127 -156 -154 -245 -225 -27
-22 -52 -43 -55 -46 -9 -11 -272 -184 -335 -220 -70 -41 -331 -169 -343 -169
-8 0 -23 34 -82 190 -17 47 -36 94 -40 105 -4 11 -13 36 -20 55 -7 19 -16 44
-20 55 -24 60 -55 141 -55 145 0 3 -6 14 -12 25 -6 11 -11 24 -11 28 0 4 -9
31 -20 60 -12 29 -55 144 -97 257 -42 113 -79 212 -82 220 -3 8 -7 17 -7 20
-1 5 -38 101 -56 145 -14 34 -67 175 -104 275 -19 52 -41 111 -49 129 l-15 35
77 45 c42 24 101 62 131 84 78 59 209 195 263 275 43 64 127 223 131 246 1 6
5 17 10 24 4 7 10 23 11 35 2 12 14 58 25 102 32 122 33 444 1 528 -6 15 -9
27 -7 27 5 0 -31 115 -50 159 -122 280 -314 485 -572 612 -57 28 -112 52 -123
54 -10 2 -24 7 -29 10 -5 3 -18 8 -27 10 -10 2 -58 13 -107 24 -69 15 -126 20
-247 20 -86 0 -172 -4 -190 -9 -19 -5 -49 -12 -68 -15 -39 -7 -142 -40 -186
-60 -16 -7 -46 -20 -65 -29 -75 -33 -184 -104 -250 -161 -196 -170 -320 -371
-386 -626 -24 -93 -27 -123 -28 -274 0 -107 5 -190 13 -225 88 -373 270 -627
578 -809 64 -38 72 -46 68 -68 -2 -14 -8 -30 -12 -36 -5 -7 -15 -30 -22 -52
-7 -22 -16 -49 -21 -60 -4 -11 -18 -47 -30 -80 -12 -33 -26 -69 -30 -80 -15
-36 -92 -240 -94 -250 -2 -5 -8 -23 -15 -40 -26 -66 -55 -144 -176 -470 -70
-187 -151 -403 -181 -481 -30 -77 -54 -145 -54 -151 0 -21 -21 -25 -53 -10
-250 117 -349 171 -527 292 -63 44 -117 81 -120 84 -3 4 -39 33 -80 66 -73 58
-306 285 -385 375 -84 95 -275 359 -275 380 0 5 -4 10 -9 10 -5 0 -11 8 -14
18 -4 9 -17 35 -30 57 -49 81 -147 283 -187 385 -68 170 -140 406 -156 510 -3
19 -9 51 -14 70 -9 39 -25 151 -40 286 -13 116 -13 436 0 545 17 147 31 243
41 289 5 25 12 56 14 70 12 66 19 93 51 205 62 215 158 452 245 606 21 37 47
83 58 102 10 19 25 45 33 58 7 13 15 26 18 29 3 3 23 32 44 65 37 57 153 214
166 225 3 3 33 39 67 80 112 136 337 345 483 448 36 26 67 49 70 52 9 11 87
61 220 140 78 46 301 161 325 166 6 2 42 16 80 32 183 76 474 156 645 178 25
3 52 8 60 10 8 3 44 8 80 10 36 3 97 9 135 13 100 12 304 12 413 1z"/>
<path d="M15383 4252 c-55 -20 -130 -76 -161 -120 -45 -66 -62 -120 -62 -199
0 -115 25 -172 107 -250 64 -60 144 -89 241 -88 92 2 148 25 221 91 171 154
124 453 -87 550 -77 35 -186 42 -259 16z m181 -44 c132 -39 207 -137 208 -274
0 -87 -21 -141 -80 -201 -62 -64 -108 -83 -196 -83 -87 0 -148 26 -203 87
-111 122 -106 283 13 399 79 77 162 100 258 72z"/>
<path d="M15380 3936 l0 -196 35 0 34 0 3 68 3 67 49 -67 50 -68 49 0 c47 0
49 1 36 19 -26 35 -74 96 -92 116 -17 19 -17 20 8 32 29 16 55 61 55 96 0 42
-27 93 -57 106 -15 8 -61 16 -100 19 l-73 5 0 -197z m138 104 c12 -12 22 -27
22 -35 0 -19 -39 -45 -67 -45 -20 0 -23 5 -23 43 0 24 3 47 7 50 12 13 39 7
61 -13z"/>
<path d="M930 3120 c0 -5 -22 -10 -50 -10 -27 0 -50 -4 -50 -10 0 -5 -13 -10
-29 -10 -17 0 -33 -4 -36 -10 -3 -5 -15 -10 -25 -10 -11 0 -35 -9 -55 -20 -20
-11 -44 -20 -54 -20 -10 0 -24 -7 -31 -15 -7 -9 -32 -24 -54 -35 -23 -10 -52
-30 -65 -44 -14 -14 -28 -26 -33 -26 -14 0 -178 -163 -178 -176 0 -6 -7 -17
-15 -24 -9 -7 -23 -28 -31 -46 -9 -19 -20 -34 -25 -34 -5 0 -9 -9 -9 -20 0
-11 -4 -20 -10 -20 -5 0 -10 -9 -10 -20 0 -11 -4 -20 -10 -20 -5 0 -10 -9 -10
-20 0 -11 -4 -20 -10 -20 -5 0 -10 -9 -10 -20 0 -11 -4 -20 -10 -20 -5 0 -10
-11 -10 -24 0 -14 -4 -28 -10 -31 -5 -3 -10 -19 -10 -36 0 -16 -4 -29 -10 -29
-5 0 -10 -13 -10 -30 0 -16 -4 -30 -10 -30 -6 0 -10 -27 -10 -60 0 -33 -4 -60
-10 -60 -14 0 -14 -537 0 -545 6 -3 10 -26 10 -50 0 -24 5 -47 10 -50 6 -3 10
-21 10 -40 0 -19 5 -37 10 -40 6 -3 10 -17 10 -30 0 -13 5 -27 10 -30 6 -3 10
-14 10 -23 0 -22 87 -197 106 -212 8 -7 14 -18 14 -24 0 -7 18 -30 40 -51 22
-21 40 -44 40 -50 0 -14 72 -85 86 -85 5 0 28 -18 49 -40 21 -22 44 -40 51
-40 6 0 17 -7 24 -15 15 -18 150 -85 172 -85 9 0 20 -4 23 -10 3 -5 17 -10 30
-10 13 0 27 -4 30 -10 3 -5 17 -10 30 -10 13 0 27 -4 30 -10 3 -5 30 -10 60
-10 30 0 57 -4 60 -10 8 -14 432 -14 440 0 3 6 26 10 50 10 24 0 47 5 50 10 3
6 21 10 40 10 19 0 37 5 40 10 3 6 17 10 30 10 13 0 27 5 30 10 3 6 14 10 23
10 22 0 157 67 172 85 7 8 18 15 25 15 6 0 20 9 30 20 10 11 23 20 29 20 14 0
186 171 186 186 0 6 11 21 25 34 27 25 135 235 135 262 0 9 5 20 10 23 6 3 10
17 10 30 0 13 5 27 10 30 6 3 10 21 10 40 0 19 5 37 10 40 6 3 10 30 10 60 0
30 5 57 10 60 14 8 14 412 0 420 -5 3 -10 37 -10 76 0 39 -4 69 -10 69 -5 0
-10 18 -10 40 0 22 -4 40 -10 40 -5 0 -10 18 -10 40 0 22 -4 40 -10 40 -5 0
-10 14 -10 30 0 17 -4 30 -10 30 -5 0 -10 9 -10 20 0 11 -4 20 -10 20 -5 0
-10 9 -10 20 0 11 -4 20 -10 20 -5 0 -10 9 -10 20 0 11 -4 20 -10 20 -5 0 -10
9 -10 20 0 11 -4 20 -10 20 -5 0 -10 8 -10 18 0 10 -9 24 -20 32 -11 8 -20 21
-20 28 0 8 -13 27 -30 42 -17 15 -30 33 -30 39 0 16 -127 141 -143 141 -7 0
-19 9 -27 20 -8 11 -21 20 -30 20 -9 0 -22 9 -30 20 -8 11 -20 20 -26 20 -6 0
-46 18 -89 40 -43 22 -86 40 -96 40 -10 0 -21 5 -24 10 -3 6 -21 10 -40 10
-19 0 -37 5 -40 10 -3 6 -26 10 -50 10 -24 0 -47 5 -50 10 -4 6 -97 10 -246
10 -153 0 -239 -4 -239 -10z m265 -680 c3 -5 16 -10 29 -10 12 0 37 -15 55
-34 40 -41 101 -160 101 -197 0 -15 5 -31 10 -34 6 -3 10 -35 10 -70 0 -35 5
-67 10 -70 6 -4 10 -53 10 -115 0 -62 -4 -111 -10 -115 -5 -3 -10 -30 -10 -60
0 -30 -4 -57 -10 -60 -5 -3 -10 -24 -10 -46 0 -21 -4 -39 -10 -39 -5 0 -10
-13 -10 -30 0 -16 -4 -30 -10 -30 -5 0 -10 -8 -10 -18 0 -9 -11 -26 -25 -36
-14 -10 -25 -25 -25 -33 0 -19 -25 -43 -44 -43 -9 0 -16 -4 -16 -10 0 -5 -24
-10 -53 -10 -49 0 -56 3 -96 43 -44 45 -91 127 -91 158 0 10 -4 21 -10 24 -5
3 -10 24 -10 46 0 21 -4 39 -10 39 -6 0 -10 78 -10 214 0 133 4 217 10 221 6
3 10 24 10 46 0 21 5 39 10 39 6 0 10 14 10 30 0 17 5 30 10 30 6 0 10 9 10
20 0 11 5 20 10 20 6 0 10 7 10 15 0 19 86 105 105 105 8 0 15 5 15 10 0 6 9
10 19 10 11 0 23 -4 26 -10z"/>
<path d="M2620 1565 l0 -1565 463 0 463 0 0 490 c0 390 -3 490 -13 494 -7 3
-10 12 -7 21 8 19 24 20 24 0 0 -8 23 -37 50 -64 28 -28 50 -57 50 -66 0 -8 7
-15 16 -15 8 0 33 -18 54 -40 21 -22 45 -40 52 -40 7 0 20 -9 28 -20 8 -11 22
-20 32 -20 10 0 18 -4 18 -10 0 -5 9 -10 20 -10 11 0 20 -4 20 -10 0 -5 18
-10 40 -10 22 0 40 -4 40 -10 0 -13 267 -13 275 0 3 5 18 10 33 10 30 0 163
63 182 85 7 8 18 15 24 15 14 0 146 132 146 146 0 6 9 19 20 29 11 10 20 24
20 30 0 7 7 18 15 25 16 14 65 108 65 127 0 7 9 28 20 48 11 20 20 44 20 55 0
10 5 22 10 25 6 3 10 21 10 40 0 19 5 37 10 40 6 3 10 21 10 40 0 19 5 37 10
40 6 3 10 30 10 60 0 30 5 57 10 60 6 4 10 55 10 120 0 65 4 116 10 120 6 3
10 50 10 106 0 59 -4 99 -10 99 -6 0 -10 47 -10 120 0 73 -4 120 -10 120 -5 0
-10 23 -10 50 0 28 -4 50 -10 50 -5 0 -10 18 -10 39 0 22 -4 43 -10 46 -5 3
-10 21 -10 40 0 19 -4 37 -10 40 -5 3 -10 15 -10 25 0 11 -9 35 -20 55 -11 20
-20 41 -20 48 0 19 -49 113 -65 127 -8 7 -15 18 -15 25 0 6 -9 20 -20 30 -11
10 -20 23 -20 29 0 6 -35 46 -78 89 -60 60 -99 88 -167 122 -49 25 -97 45
-106 45 -10 0 -21 5 -24 10 -4 6 -88 10 -219 10 -206 0 -214 -1 -261 -25 -50
-25 -165 -130 -165 -151 0 -6 -9 -19 -20 -29 -11 -10 -20 -23 -20 -30 0 -7 -8
-20 -19 -29 -17 -16 -19 -16 -23 2 -3 11 0 28 6 38 6 10 11 65 12 122 l1 102
-463 0 -464 0 0 -1565z m1170 815 c0 -5 7 -10 15 -10 20 0 85 -65 85 -85 0 -8
5 -15 10 -15 6 0 10 -13 10 -30 0 -16 5 -30 10 -30 6 0 10 -18 10 -40 0 -22 5
-40 10 -40 6 0 10 -73 10 -200 0 -127 -4 -200 -10 -200 -5 0 -10 -22 -10 -49
0 -28 -4 -53 -10 -56 -5 -3 -10 -15 -10 -26 0 -10 -6 -29 -12 -42 -18 -30 -90
-107 -102 -107 -5 0 -18 -7 -28 -16 -15 -14 -20 -15 -34 -3 -9 7 -25 15 -37
16 -12 2 -29 11 -39 20 -20 18 -74 123 -70 137 1 4 -3 15 -9 23 -7 8 -13 40
-13 71 -1 31 -5 64 -11 72 -12 20 -13 250 -1 275 6 11 11 45 12 77 1 31 6 62
10 70 5 7 9 19 10 26 4 25 54 120 70 133 32 26 60 37 97 38 20 1 37 -3 37 -9z"/>
<path d="M6055 3120 c-3 -5 -21 -10 -40 -10 -19 0 -37 -4 -40 -10 -3 -5 -19
-10 -35 -10 -16 0 -45 -9 -65 -20 -20 -11 -41 -20 -48 -20 -19 0 -113 -49
-127 -65 -7 -8 -18 -15 -25 -15 -6 0 -20 -9 -30 -20 -10 -11 -23 -20 -29 -20
-15 0 -216 -202 -216 -216 0 -6 -9 -19 -20 -29 -11 -10 -20 -24 -20 -30 0 -7
-6 -18 -14 -25 -17 -13 -106 -189 -106 -207 0 -7 -9 -28 -20 -48 -11 -20 -20
-49 -20 -65 0 -16 -4 -32 -10 -35 -5 -3 -10 -26 -10 -50 0 -24 -4 -47 -10 -50
-5 -3 -10 -39 -10 -79 0 -53 -4 -77 -15 -86 -12 -10 -15 -39 -15 -140 0 -101
3 -130 15 -140 11 -9 15 -33 15 -86 0 -40 5 -76 10 -79 6 -3 10 -26 10 -50 0
-24 5 -47 10 -50 6 -3 10 -21 10 -40 0 -19 5 -37 10 -40 6 -3 10 -14 10 -24 0
-10 18 -53 40 -96 22 -43 40 -84 40 -91 0 -8 5 -14 10 -14 6 0 10 -7 10 -16 0
-9 14 -29 30 -44 17 -15 30 -32 30 -37 1 -14 168 -183 182 -183 8 0 20 -9 28
-20 8 -11 22 -20 32 -20 10 0 18 -4 18 -10 0 -5 9 -10 20 -10 11 0 20 -4 20
-10 0 -5 9 -10 20 -10 11 0 20 -4 20 -10 0 -5 9 -10 20 -10 11 0 20 -4 20 -10
0 -5 9 -10 20 -10 11 0 20 -4 20 -10 0 -5 13 -10 29 -10 17 0 33 -4 36 -10 3
-5 22 -10 41 -10 19 0 34 -4 34 -10 0 -5 23 -10 50 -10 28 0 50 -4 50 -10 0
-6 83 -10 230 -10 147 0 230 4 230 10 0 6 27 10 60 10 33 0 60 4 60 10 0 6 18
10 40 10 22 0 40 5 40 10 0 6 14 10 30 10 17 0 30 5 30 10 0 6 9 10 20 10 11
0 20 5 20 10 0 6 9 10 20 10 11 0 20 5 20 10 0 6 9 10 20 10 11 0 20 5 20 10
0 6 9 10 20 10 11 0 20 5 20 10 0 6 8 10 18 10 10 0 24 9 32 20 8 11 20 20 28
20 16 0 162 145 162 161 0 6 14 24 30 39 17 15 30 35 30 44 0 9 5 16 10 16 6
0 10 9 10 20 0 11 5 20 10 20 6 0 10 8 11 18 0 9 9 31 20 47 27 42 42 77 45
99 1 10 6 21 12 25 5 3 9 17 8 31 -1 14 2 34 8 45 12 23 16 54 7 56 -3 1 -97
2 -209 3 -123 1 -206 5 -210 12 -8 12 -461 13 -480 1 -6 -5 -21 -28 -32 -53
-11 -24 -26 -44 -34 -44 -7 0 -21 -9 -31 -20 -15 -16 -31 -20 -84 -20 -67 0
-67 0 -111 48 -52 54 -70 83 -70 111 0 11 -4 23 -10 26 -5 3 -10 37 -10 76 l0
69 663 0 663 0 0 163 c-1 89 -5 169 -11 177 -5 8 -9 44 -10 80 0 36 -4 72 -10
80 -5 8 -10 31 -10 50 -1 19 -5 43 -9 52 -4 9 -9 22 -10 30 -2 7 -6 21 -10 30
-4 9 -9 22 -10 30 -2 7 -6 21 -10 30 -4 9 -9 23 -10 31 -1 8 -7 21 -12 28 -6
8 -27 48 -48 91 -20 42 -43 82 -51 88 -8 7 -15 18 -15 24 0 7 -13 25 -30 41
-16 16 -30 33 -30 39 0 14 -142 156 -156 156 -6 0 -19 9 -29 20 -10 11 -24 20
-30 20 -7 0 -18 7 -25 15 -15 18 -150 85 -172 85 -9 0 -20 5 -23 10 -3 6 -17
10 -30 10 -13 0 -27 5 -30 10 -3 6 -26 10 -50 10 -24 0 -47 5 -50 10 -4 6 -93
10 -235 10 -142 0 -231 -4 -235 -10z m250 -680 c3 -5 14 -10 24 -10 23 0 75
-26 92 -46 18 -22 59 -105 59 -121 0 -10 -40 -13 -200 -13 l-200 0 0 25 c0 32
15 57 66 112 31 33 48 43 72 43 17 0 34 5 37 10 3 6 15 10 25 10 10 0 22 -4
25 -10z"/>
<path d="M7750 1905 l0 -1225 460 0 460 0 0 679 c0 443 3 682 10 686 6 3 10
21 10 40 0 19 5 37 10 40 6 3 10 13 10 22 0 16 77 89 117 110 30 15 119 18
128 3 3 -5 17 -10 29 -10 27 0 41 -14 73 -77 l23 -46 0 -724 0 -723 468 2 467
3 3 843 c1 559 -1 842 -8 842 -6 0 -10 40 -10 100 0 60 -4 100 -10 100 -5 0
-10 18 -10 40 0 22 -4 40 -10 40 -5 0 -10 14 -10 30 0 17 -4 30 -10 30 -5 0
-10 14 -10 30 0 17 -4 30 -10 30 -5 0 -10 9 -10 20 0 11 -4 20 -10 20 -5 0
-10 8 -10 18 0 10 -9 24 -20 32 -11 8 -20 21 -20 30 0 19 -114 131 -152 150
-16 7 -28 17 -28 22 0 4 -9 8 -20 8 -11 0 -20 5 -20 10 0 6 -13 10 -30 10 -16
0 -30 5 -30 10 0 6 -13 10 -30 10 -16 0 -30 5 -30 10 0 6 -66 10 -179 10 -109
0 -182 -4 -186 -10 -3 -5 -18 -10 -33 -10 -35 0 -202 -83 -232 -115 -13 -14
-29 -25 -35 -25 -14 0 -85 -72 -85 -87 0 -6 -13 -21 -30 -34 -16 -13 -30 -31
-30 -39 0 -9 -9 -22 -20 -30 -11 -8 -20 -23 -20 -33 0 -10 -4 -15 -10 -12 -5
3 -10 31 -10 61 0 30 5 54 10 54 6 0 10 53 10 140 l0 140 -460 0 -460 0 0
-1225z"/>
<path d="M12325 2940 c-3 -5 -17 -10 -30 -10 -13 0 -27 -4 -30 -10 -3 -5 -14
-10 -24 -10 -21 0 -71 -22 -71 -32 0 -5 -7 -8 -16 -8 -9 0 -29 -13 -44 -30
-15 -16 -33 -30 -39 -30 -16 0 -121 -107 -121 -123 0 -7 -9 -19 -20 -27 -11
-8 -20 -22 -20 -32 0 -10 -4 -18 -10 -18 -5 0 -10 -9 -10 -20 0 -11 -4 -20
-10 -20 -5 0 -10 -13 -10 -30 0 -16 -4 -30 -10 -30 -5 0 -10 -13 -10 -30 0
-16 -4 -30 -10 -30 -6 0 -10 -60 -10 -160 0 -100 4 -160 10 -160 6 0 10 -13
10 -30 0 -16 5 -30 10 -30 6 0 10 -13 10 -28 0 -16 8 -34 20 -42 11 -8 20 -20
20 -27 0 -19 146 -163 165 -163 8 0 15 -4 15 -10 0 -5 8 -10 18 -10 10 0 24
-9 32 -20 8 -11 22 -20 32 -20 10 0 18 -4 18 -10 0 -5 9 -10 20 -10 11 0 20
-4 20 -10 0 -5 9 -10 20 -10 11 0 20 -4 20 -10 0 -5 9 -10 20 -10 11 0 20 -4
20 -10 0 -5 9 -10 20 -10 11 0 20 -4 20 -10 0 -5 9 -10 20 -10 11 0 20 -4 20
-10 0 -5 9 -10 20 -10 11 0 20 -4 20 -10 0 -5 14 -10 30 -10 17 0 30 -4 30
-10 0 -5 9 -10 20 -10 11 0 20 -4 20 -10 0 -5 9 -10 20 -10 11 0 20 -4 20 -8
0 -5 12 -15 28 -22 41 -21 132 -112 132 -132 0 -10 5 -18 10 -18 6 0 10 -35
10 -85 0 -50 -4 -85 -10 -85 -5 0 -10 -8 -10 -17 0 -10 -19 -37 -42 -60 -35
-36 -49 -43 -80 -43 -21 0 -38 -4 -38 -10 0 -5 -20 -10 -44 -10 -25 0 -48 5
-51 10 -3 6 -19 10 -36 10 -16 0 -39 6 -52 12 -32 18 -157 140 -157 154 0 6
-8 18 -18 27 -10 9 -24 32 -32 52 -14 36 -24 43 -35 25 -3 -5 -14 -10 -24 -10
-10 0 -71 -27 -136 -60 -65 -33 -123 -60 -129 -60 -6 0 -41 -15 -78 -33 -64
-30 -80 -48 -58 -62 6 -3 10 -14 10 -24 0 -23 26 -75 45 -91 8 -7 15 -18 15
-25 0 -6 9 -20 20 -30 11 -10 20 -23 20 -29 0 -6 42 -53 93 -104 76 -75 110
-101 182 -137 49 -25 97 -45 106 -45 10 0 21 -4 24 -10 3 -5 21 -10 40 -10 19
0 37 -5 40 -10 4 -6 78 -10 190 -10 112 0 186 4 190 10 3 5 21 10 40 10 19 0
37 5 40 10 3 6 14 10 23 10 22 0 157 67 172 85 7 8 18 15 24 15 13 0 162 150
192 195 32 46 68 118 70 137 1 10 6 23 12 31 6 7 9 25 8 40 -2 16 3 34 10 42
20 20 19 302 -1 329 -8 10 -12 23 -9 27 3 5 -2 19 -11 32 -8 13 -12 27 -8 30
3 4 -2 16 -12 27 -10 11 -14 20 -10 20 5 0 -4 14 -20 30 -16 17 -25 30 -20 30
5 0 -9 18 -30 40 -21 22 -44 40 -50 40 -6 0 -24 14 -40 30 -16 17 -34 30 -41
30 -6 0 -17 7 -24 15 -7 9 -29 23 -49 32 -20 9 -44 23 -53 31 -22 19 -189 102
-204 102 -7 0 -38 14 -69 30 -31 17 -63 30 -71 30 -8 0 -14 5 -14 10 0 6 -9
10 -20 10 -11 0 -20 5 -20 10 0 6 -9 10 -20 10 -11 0 -20 5 -20 10 0 6 -7 10
-15 10 -9 0 -40 25 -70 55 -53 53 -55 56 -55 110 0 30 5 55 10 55 6 0 10 7 10
16 0 20 24 44 44 44 9 0 16 5 16 10 0 6 13 10 29 10 16 0 31 6 34 13 4 10 7
10 18 0 7 -7 21 -13 31 -13 10 0 28 -6 41 -12 32 -19 127 -110 127 -124 0 -15
33 -44 51 -44 18 0 183 82 207 102 9 8 61 36 114 62 101 49 111 62 79 100 -7
9 -10 16 -6 16 5 0 1 8 -8 18 -10 10 -15 21 -12 24 3 3 -4 13 -15 23 -11 10
-20 23 -20 29 0 15 -172 186 -186 186 -7 0 -17 7 -24 15 -16 19 -68 45 -91 45
-10 0 -21 5 -24 10 -3 6 -17 10 -30 10 -13 0 -27 5 -30 10 -4 6 -77 10 -185
10 -108 0 -181 -4 -185 -10z"/>
<path d="M14585 2940 c-3 -5 -21 -10 -40 -10 -19 0 -37 -4 -40 -10 -3 -5 -24
-10 -46 -10 -21 0 -39 -4 -39 -10 0 -5 -13 -10 -30 -10 -16 0 -30 -4 -30 -10
0 -5 -9 -10 -20 -10 -11 0 -20 -4 -20 -10 0 -5 -9 -10 -20 -10 -11 0 -20 -4
-20 -10 0 -5 -9 -10 -20 -10 -11 0 -20 -4 -20 -10 0 -5 -9 -10 -20 -10 -11 0
-20 -4 -20 -10 0 -5 -7 -10 -16 -10 -9 0 -29 -13 -44 -30 -15 -16 -33 -30 -39
-30 -16 0 -261 -247 -261 -263 0 -7 -9 -19 -20 -27 -11 -8 -20 -22 -20 -32 0
-10 -4 -18 -10 -18 -5 0 -10 -9 -10 -20 0 -11 -4 -20 -10 -20 -5 0 -10 -9 -10
-20 0 -11 -4 -20 -10 -20 -5 0 -10 -9 -10 -20 0 -11 -4 -20 -10 -20 -5 0 -10
-9 -10 -20 0 -11 -4 -20 -10 -20 -5 0 -10 -13 -10 -30 0 -16 -4 -30 -10 -30
-5 0 -10 -13 -10 -30 0 -16 -4 -30 -10 -30 -5 0 -10 -22 -10 -50 0 -27 -4 -50
-10 -50 -6 0 -10 -73 -10 -199 0 -123 4 -202 10 -206 6 -3 10 -30 10 -60 0
-30 5 -57 10 -60 6 -3 10 -17 10 -30 0 -13 5 -27 10 -30 6 -3 10 -17 10 -30 0
-13 5 -27 10 -30 6 -3 10 -14 10 -23 0 -22 87 -197 106 -212 8 -7 14 -18 14
-24 0 -6 25 -36 56 -66 31 -30 60 -65 65 -77 5 -13 14 -23 22 -23 7 0 39 -27
72 -60 33 -33 65 -60 71 -60 6 0 17 -6 23 -14 16 -19 231 -126 253 -126 9 0
20 -4 23 -10 3 -5 17 -10 30 -10 13 0 27 -4 30 -10 3 -5 26 -10 50 -10 24 0
47 -4 50 -10 8 -14 452 -14 460 0 3 5 21 10 40 10 19 0 37 5 40 10 3 6 21 10
40 10 19 0 37 5 40 10 3 6 15 10 25 10 11 0 35 9 55 20 20 11 42 20 49 20 19
0 72 28 86 45 7 8 18 15 25 15 6 0 20 9 30 20 10 11 23 20 30 20 7 0 20 9 30
20 10 11 23 20 29 20 15 0 206 192 206 206 0 6 9 19 20 29 11 10 20 24 20 30
0 7 6 18 14 25 19 15 106 190 106 212 0 9 5 20 10 23 6 3 10 17 10 30 0 13 5
27 10 30 6 3 10 21 10 40 0 19 5 37 10 40 6 3 10 35 10 70 0 35 5 67 10 70 6
4 10 55 10 120 0 65 -4 116 -10 120 -5 3 -10 37 -10 76 0 39 -4 69 -10 69 -5
0 -10 18 -10 40 0 22 -4 40 -10 40 -5 0 -10 14 -10 30 0 17 -4 30 -10 30 -5 0
-10 14 -10 30 0 17 -4 30 -10 30 -5 0 -10 9 -10 20 0 11 -4 20 -10 20 -5 0
-10 9 -10 20 0 11 -4 20 -10 20 -5 0 -10 9 -10 20 0 11 -4 20 -10 20 -5 0 -10
8 -10 18 0 10 -9 24 -20 32 -11 8 -20 21 -20 28 0 8 -13 27 -30 42 -16 15 -30
33 -30 39 0 16 -167 181 -183 181 -7 0 -19 9 -27 20 -8 11 -21 20 -30 20 -9 0
-22 9 -30 20 -8 11 -21 20 -30 20 -9 0 -22 9 -30 20 -8 11 -22 20 -32 20 -10
0 -18 5 -18 10 0 6 -9 10 -20 10 -11 0 -20 5 -20 10 0 6 -13 10 -30 10 -16 0
-30 5 -30 10 0 6 -13 10 -29 10 -17 0 -33 5 -36 10 -3 6 -17 10 -30 10 -13 0
-27 5 -30 10 -3 6 -26 10 -50 10 -24 0 -47 5 -50 10 -4 6 -92 10 -230 10 -138
0 -226 -4 -230 -10z m260 -460 c3 -5 35 -10 70 -10 35 0 67 -4 70 -10 3 -5 18
-10 33 -10 54 0 166 -67 251 -149 44 -44 81 -85 81 -93 0 -7 9 -20 20 -28 11
-8 20 -25 20 -37 0 -12 9 -38 20 -58 11 -20 20 -44 20 -55 0 -10 5 -22 10 -25
6 -3 10 -30 10 -60 0 -30 5 -57 10 -60 6 -3 10 -48 10 -101 0 -56 -4 -94 -10
-94 -6 0 -10 -26 -10 -59 0 -33 -4 -63 -10 -66 -5 -3 -10 -17 -10 -30 0 -13
-4 -27 -10 -30 -5 -3 -10 -14 -10 -24 0 -26 -47 -115 -75 -141 -14 -13 -25
-28 -25 -34 0 -14 -71 -86 -86 -86 -6 0 -17 -7 -24 -15 -15 -18 -150 -85 -172
-85 -9 0 -20 -4 -23 -10 -3 -5 -26 -10 -50 -10 -24 0 -47 -4 -50 -10 -3 -5
-39 -10 -80 -10 -41 0 -77 5 -80 10 -3 6 -30 10 -60 10 -30 0 -57 4 -60 10 -3
6 -14 10 -24 10 -22 0 -116 47 -131 65 -7 8 -17 15 -23 15 -15 0 -147 131
-147 146 0 6 -7 17 -15 24 -17 14 -45 67 -45 86 0 7 -9 29 -20 49 -11 20 -20
53 -20 75 0 21 -4 42 -10 45 -6 4 -10 73 -10 176 0 106 4 169 10 169 6 0 10
14 10 30 0 17 5 30 10 30 6 0 10 14 10 30 0 17 5 30 10 30 6 0 10 9 10 20 0
11 5 20 10 20 6 0 10 9 10 20 0 11 5 20 10 20 6 0 10 8 10 18 0 10 9 24 20 32
11 8 20 20 20 27 0 17 86 103 103 103 7 0 19 9 27 20 8 11 19 20 25 20 17 0
65 24 65 33 0 4 9 7 20 7 11 0 20 5 20 10 0 6 14 10 30 10 17 0 30 5 30 10 0
6 30 10 69 10 39 0 73 5 76 10 3 6 17 10 30 10 13 0 27 -4 30 -10z"/>
<path d="M19910 2940 c0 -5 -15 -10 -34 -10 -41 0 -111 -34 -148 -72 -14 -16
-31 -28 -37 -28 -6 0 -35 -23 -63 -52 l-53 -51 -3 81 -3 82 -259 0 -260 0 0
-1105 0 -1105 258 2 257 3 3 653 c1 423 6 652 12 652 6 0 10 27 10 60 0 33 4
60 10 60 6 0 10 14 10 30 0 17 5 30 10 30 6 0 10 14 10 30 0 17 5 30 10 30 6
0 10 8 10 18 0 10 9 24 20 32 11 8 20 20 20 28 0 18 66 82 85 82 8 0 15 5 15
10 0 6 9 10 20 10 11 0 20 5 20 10 0 6 18 10 40 10 22 0 40 5 40 10 0 6 26 10
59 10 33 0 63 -4 66 -10 3 -5 18 -10 33 -10 15 0 64 -18 109 -41 68 -35 85
-40 98 -29 8 7 15 21 15 31 0 11 5 19 10 19 6 0 10 9 10 20 0 11 5 20 10 20 6
0 10 9 10 20 0 11 5 20 10 20 6 0 10 9 10 20 0 11 5 20 10 20 6 0 10 9 10 20
0 11 5 20 10 20 6 0 10 9 10 20 0 11 5 20 10 20 6 0 10 9 10 20 0 11 5 20 10
20 6 0 10 9 10 20 0 11 5 20 10 20 6 0 10 9 10 20 0 11 5 20 10 20 6 0 10 9
10 20 0 11 5 20 10 20 20 0 10 56 -12 76 -31 26 -65 44 -83 44 -8 0 -30 9 -50
20 -20 11 -49 20 -65 20 -16 0 -32 5 -35 10 -4 6 -70 10 -166 10 -99 0 -159
-4 -159 -10z"/>
<path d="M21595 2940 c-3 -5 -26 -10 -50 -10 -24 0 -47 -4 -50 -10 -3 -5 -17
-10 -30 -10 -13 0 -27 -4 -30 -10 -3 -5 -17 -10 -30 -10 -13 0 -27 -4 -30 -10
-3 -5 -14 -10 -23 -10 -22 0 -157 -67 -172 -85 -7 -8 -18 -15 -25 -15 -6 0
-20 -9 -30 -20 -10 -11 -23 -20 -29 -20 -14 0 -256 -242 -256 -256 0 -6 -9
-19 -20 -29 -11 -10 -20 -24 -20 -30 0 -7 -7 -18 -15 -25 -16 -14 -65 -108
-65 -127 0 -7 -9 -28 -20 -48 -11 -20 -20 -44 -20 -55 0 -10 -4 -22 -10 -25
-5 -3 -10 -26 -10 -50 0 -24 -4 -47 -10 -50 -5 -3 -10 -35 -10 -70 0 -35 -4
-67 -10 -70 -6 -4 -10 -53 -10 -115 0 -62 4 -111 10 -115 6 -3 10 -35 10 -70
0 -35 5 -67 10 -70 6 -3 10 -21 10 -40 0 -19 5 -37 10 -40 6 -3 10 -18 10 -33
0 -35 123 -282 155 -312 14 -13 25 -28 25 -34 1 -16 186 -206 202 -206 7 0 20
-9 28 -20 8 -11 21 -20 30 -20 9 0 22 -9 30 -20 8 -11 22 -20 32 -20 10 0 18
-4 18 -10 0 -5 6 -10 14 -10 17 0 100 -42 104 -52 2 -5 12 -8 23 -8 10 0 19
-4 19 -10 0 -5 14 -10 30 -10 17 0 30 -4 30 -10 0 -5 18 -10 39 -10 22 0 43
-4 46 -10 3 -5 26 -10 50 -10 24 0 47 -5 50 -10 8 -14 435 -14 435 0 0 6 23
10 50 10 28 0 50 5 50 10 0 6 13 10 29 10 17 0 33 4 36 10 3 6 17 10 30 10 13
0 27 5 30 10 3 5 17 10 31 10 13 0 24 5 24 10 0 6 9 10 20 10 11 0 20 5 20 10
0 6 9 10 20 10 11 0 20 5 20 10 0 6 8 10 18 10 41 0 42 10 42 367 0 219 -4
343 -10 343 -15 0 -50 -33 -50 -47 0 -18 -186 -203 -205 -203 -8 0 -20 -9 -27
-20 -7 -11 -20 -20 -28 -20 -9 0 -22 -9 -30 -20 -8 -12 -26 -20 -42 -20 -15 0
-28 -4 -28 -10 0 -5 -13 -10 -30 -10 -16 0 -30 -4 -30 -10 0 -5 -22 -10 -50
-10 -27 0 -50 -4 -50 -10 0 -6 -28 -10 -64 -10 -36 0 -68 5 -71 10 -3 6 -30
10 -60 10 -30 0 -57 5 -60 10 -3 6 -14 10 -24 10 -22 0 -116 47 -131 65 -7 8
-18 15 -24 15 -15 0 -146 132 -146 147 0 6 -7 16 -15 23 -22 19 -85 152 -85
182 0 15 -4 30 -10 33 -5 3 -10 26 -10 50 0 24 -4 47 -10 50 -6 3 -10 50 -10
106 0 59 4 99 10 99 6 0 10 22 10 49 0 28 5 53 10 56 6 3 10 17 10 30 0 13 5
27 10 30 6 3 10 17 10 31 0 13 5 24 10 24 6 0 10 9 10 20 0 11 4 20 8 20 5 0
15 12 22 28 18 36 171 192 189 192 7 0 21 8 30 18 25 26 100 62 131 62 16 0
32 5 35 10 3 6 33 10 66 10 33 0 59 4 59 10 0 6 18 10 39 10 22 0 43 -4 46
-10 3 -5 30 -10 60 -10 30 0 57 -4 60 -10 3 -5 14 -10 23 -10 22 0 157 -67
172 -85 7 -8 18 -15 24 -15 15 0 226 -212 226 -228 0 -6 7 -12 15 -12 13 0 15
45 15 348 l-1 347 -67 33 c-37 17 -75 32 -84 32 -9 0 -20 5 -23 10 -3 6 -17
10 -30 10 -13 0 -27 5 -30 10 -3 6 -17 10 -30 10 -13 0 -27 5 -30 10 -3 6 -26
10 -50 10 -24 0 -47 5 -50 10 -4 6 -93 10 -235 10 -142 0 -231 -4 -235 -10z"/>
<path d="M23670 2940 c0 -5 -18 -10 -39 -10 -22 0 -43 -4 -46 -10 -3 -5 -19
-10 -34 -10 -30 0 -81 -20 -81 -32 0 -5 -13 -8 -30 -8 -16 0 -30 -4 -30 -10 0
-5 -6 -10 -13 -10 -20 0 -73 -28 -87 -45 -7 -8 -18 -15 -24 -15 -7 0 -30 -18
-51 -40 -21 -22 -44 -40 -50 -40 -14 0 -75 -62 -75 -76 0 -6 -16 -26 -36 -45
-19 -18 -44 -53 -55 -76 -10 -23 -23 -44 -28 -48 -13 -7 -41 -64 -41 -82 0 -7
-4 -13 -10 -13 -5 0 -10 -13 -10 -30 0 -16 -4 -30 -10 -30 -5 0 -10 -13 -10
-30 0 -16 -4 -30 -10 -30 -5 0 -10 -11 -10 -24 0 -14 -4 -28 -10 -31 -5 -3
-10 -21 -10 -40 0 -19 -4 -37 -10 -40 -5 -3 -10 -35 -10 -70 0 -35 -4 -67 -10
-70 -6 -4 -10 -77 -10 -185 0 -108 4 -181 10 -185 6 -3 10 -35 10 -70 0 -35 5
-67 10 -70 6 -3 10 -21 10 -40 0 -19 5 -37 10 -40 6 -3 10 -17 10 -30 0 -13 5
-27 10 -30 6 -3 10 -15 10 -25 0 -11 9 -35 20 -55 11 -20 20 -44 20 -54 0 -10
7 -24 15 -31 9 -7 25 -32 35 -55 10 -23 26 -48 35 -55 8 -7 15 -18 15 -25 0
-14 183 -198 202 -204 7 -2 25 -14 39 -28 31 -29 195 -113 220 -113 10 0 21
-5 24 -10 3 -6 21 -10 40 -10 19 0 37 -4 40 -10 3 -5 21 -10 40 -10 19 0 37
-4 40 -10 8 -14 452 -14 460 0 3 6 26 10 50 10 24 0 47 5 50 10 3 6 21 10 40
10 19 0 37 5 40 10 3 6 14 10 23 10 22 0 157 67 172 85 7 8 18 15 25 15 6 0
20 9 30 20 10 11 23 20 29 20 14 0 226 212 226 226 0 6 14 23 30 39 17 16 30
34 30 41 0 6 7 17 15 24 7 6 25 34 39 61 l24 50 -21 19 c-11 11 -26 20 -33 20
-6 0 -17 7 -24 15 -14 17 -67 45 -87 45 -7 0 -13 5 -13 10 0 6 -9 10 -20 10
-11 0 -20 5 -20 10 0 6 -8 10 -18 10 -10 0 -24 9 -32 21 -16 22 -133 83 -164
85 -24 2 -46 -18 -46 -40 0 -9 -4 -16 -9 -16 -5 0 -16 -15 -24 -33 -9 -18 -27
-43 -41 -56 -14 -14 -26 -29 -26 -35 0 -13 -137 -146 -149 -146 -5 0 -14 -7
-21 -15 -16 -19 -68 -45 -91 -45 -10 0 -21 -4 -24 -10 -3 -5 -28 -10 -56 -10
-27 0 -49 -4 -49 -10 0 -6 -28 -10 -64 -10 -36 0 -68 5 -71 10 -3 6 -26 10
-50 10 -24 0 -47 5 -50 10 -3 6 -14 10 -24 10 -23 0 -75 26 -91 45 -7 8 -18
15 -24 15 -6 0 -40 28 -74 63 -67 67 -152 217 -152 267 0 14 -5 31 -11 37 -5
5 -9 34 -7 64 l3 54 783 3 782 2 0 174 c0 106 -4 177 -10 181 -5 3 -10 30 -10
60 0 30 -4 57 -10 60 -5 3 -10 21 -10 40 0 19 -4 37 -10 40 -5 3 -10 17 -10
30 0 13 -4 27 -10 30 -5 3 -10 14 -10 24 0 18 -58 140 -80 166 -7 8 -9 15 -4
15 4 0 -5 14 -21 30 -16 17 -25 30 -20 30 5 0 -9 18 -30 40 -21 22 -35 40 -30
40 5 0 -13 23 -40 50 -27 28 -54 50 -60 50 -6 0 -24 14 -40 30 -16 17 -34 30
-41 30 -6 0 -17 7 -24 15 -15 18 -150 85 -172 85 -9 0 -20 5 -23 10 -3 6 -17
10 -30 10 -13 0 -27 5 -30 10 -3 6 -26 10 -50 10 -24 0 -47 5 -50 10 -4 6 -93
10 -236 10 -146 0 -229 -4 -229 -10z m285 -460 c3 -5 30 -10 60 -10 30 0 57
-4 60 -10 3 -5 14 -10 24 -10 53 0 197 -111 236 -181 33 -60 64 -126 69 -151
l6 -28 -490 0 -490 0 0 30 c0 17 5 30 10 30 6 0 10 9 10 20 0 11 5 20 10 20 6
0 10 9 10 20 0 11 5 20 10 20 6 0 10 7 10 15 0 20 145 165 165 165 8 0 15 5
15 10 0 6 9 10 20 10 11 0 20 5 20 10 0 6 14 10 30 10 17 0 30 5 30 10 0 6 27
10 60 10 33 0 60 4 60 10 0 6 13 10 29 10 17 0 33 -4 36 -10z"/>
<path d="M16517 2883 c-12 -11 -8 -1533 3 -1533 6 0 10 -22 10 -50 0 -27 5
-50 10 -50 6 0 10 -15 10 -32 0 -44 84 -211 121 -240 16 -13 29 -30 29 -38 0
-17 100 -120 116 -120 6 0 23 -13 39 -30 16 -16 37 -30 47 -30 10 0 18 -4 18
-10 0 -5 9 -10 20 -10 11 0 20 -4 20 -10 0 -5 9 -10 19 -10 11 0 21 -3 23 -7
7 -17 92 -53 124 -53 19 0 34 -4 34 -10 0 -5 18 -10 40 -10 22 0 40 -4 40 -10
0 -14 427 -14 435 0 3 5 26 10 50 10 24 0 47 4 50 10 3 6 17 10 30 10 13 0 27
5 30 10 3 6 15 10 26 10 10 0 19 5 19 10 0 6 14 10 30 10 17 0 30 5 30 10 0 6
6 10 13 10 8 0 22 9 32 20 10 11 23 20 30 20 7 0 20 9 30 20 10 11 24 20 31
20 17 0 164 146 164 163 0 8 7 20 15 27 18 15 85 150 85 172 0 9 5 20 10 23 6
3 10 17 10 30 0 13 5 27 10 30 6 3 10 30 10 60 0 30 5 57 10 60 7 4 10 270 10
766 l0 759 -260 0 -260 0 0 -699 c0 -456 -3 -702 -10 -706 -5 -3 -10 -26 -10
-50 0 -24 -4 -47 -10 -50 -5 -3 -10 -14 -10 -24 0 -33 -50 -116 -98 -164 -59
-58 -132 -97 -183 -97 -21 0 -41 -5 -44 -10 -8 -13 -102 -13 -110 0 -3 5 -28
10 -56 10 -27 0 -49 5 -49 10 0 6 -9 10 -20 10 -11 0 -20 5 -20 10 0 6 -7 10
-15 10 -19 0 -130 111 -127 126 1 7 -5 14 -13 18 -9 3 -13 10 -10 16 3 6 -1
17 -9 25 -8 9 -12 23 -9 32 3 9 0 19 -8 24 -10 5 -14 22 -13 51 1 24 -3 49 -9
56 -8 10 -11 222 -11 705 l-1 692 -256 3 c-140 1 -258 -1 -262 -5z"/>
</g>
</svg>
