<?xml version="1.0" standalone="no"?>
<!DOCTYPE svg PUBLIC "-//W3C//DTD SVG 20010904//EN"
 "http://www.w3.org/TR/2001/REC-SVG-20010904/DTD/svg10.dtd">
<svg version="1.0" xmlns="http://www.w3.org/2000/svg"
 width="2500.000000pt" height="1000.000000pt" viewBox="0 0 2500.000000 1000.000000"
 preserveAspectRatio="xMidYMid meet">

<g transform="translate(0.000000,1000.000000) scale(0.100000,-0.100000)"
fill="#000000" stroke="none">
<path d="M12250 9930 c-522 -49 -1043 -267 -1450 -608 -401 -335 -686 -772
-844 -1293 -73 -242 -101 -451 -101 -749 1 -195 5 -260 24 -380 94 -595 352
-1097 777 -1510 138 -135 219 -200 374 -305 406 -273 880 -425 1374 -442 759
-25 1470 261 1997 803 303 313 524 691 644 1104 264 911 22 1891 -635 2573
-417 433 -929 698 -1522 788 -153 23 -487 33 -638 19z m1510 -1445 c10 -9 21
-27 24 -41 7 -25 -454 -2372 -476 -2428 -16 -39 -79 -82 -133 -90 -34 -6 -55
-2 -87 13 -24 11 -191 134 -373 274 -229 177 -332 251 -337 242 -18 -31 -428
-395 -451 -401 -25 -6 -27 -4 -28 27 l-1 34 -7 -30 -7 -30 -26 50 c-27 53 -68
180 -193 595 -43 140 -82 260 -89 267 -6 6 -166 63 -354 127 -189 64 -356 125
-370 137 -82 64 -66 142 41 192 28 14 512 205 1074 426 1862 730 1685 664
1742 656 18 -2 42 -11 51 -20z"/>
<path d="M11931 6434 c0 -11 3 -14 6 -6 3 7 2 16 -1 19 -3 4 -6 -2 -5 -13z"/>
<path d="M11922 6345 c0 -16 2 -22 5 -12 2 9 2 23 0 30 -3 6 -5 -1 -5 -18z"/>
<path d="M11912 6255 c0 -16 2 -22 5 -12 2 9 2 23 0 30 -3 6 -5 -1 -5 -18z"/>
<path d="M11902 6170 c0 -19 2 -27 5 -17 2 9 2 25 0 35 -3 9 -5 1 -5 -18z"/>
<path d="M0 5145 l0 -355 620 0 620 0 0 -1730 0 -1730 420 0 420 0 0 1730 0
1730 618 2 617 3 3 353 2 352 -1660 0 -1660 0 0 -355z"/>
<path d="M6670 3415 l0 -2085 400 0 400 0 0 2085 0 2085 -400 0 -400 0 0
-2085z"/>
<path d="M4430 4415 c-8 -2 -49 -8 -90 -15 -404 -62 -761 -323 -959 -701 -180
-343 -238 -873 -146 -1325 106 -521 407 -883 860 -1033 191 -63 283 -75 555
-76 261 0 343 10 517 66 294 94 536 292 690 564 40 71 113 234 113 252 0 6
-17 13 -37 16 -21 3 -186 30 -368 61 -181 30 -342 56 -358 58 -26 3 -29 -2
-60 -78 -97 -239 -244 -344 -482 -344 -355 0 -608 254 -644 647 -4 48 -6 91
-4 96 2 4 455 7 1005 7 l1001 0 -6 173 c-18 468 -106 803 -280 1065 -69 103
-201 242 -302 317 -134 101 -362 196 -552 230 -79 15 -415 30 -453 20z m347
-629 c92 -24 164 -68 244 -146 117 -115 176 -255 195 -462 l7 -78 -598 0 -598
0 6 93 c13 209 98 385 236 491 88 68 167 101 286 119 46 8 164 -2 222 -17z"/>
<path d="M9285 4414 c-241 -35 -444 -106 -590 -208 -356 -249 -549 -583 -620
-1075 -24 -166 -17 -560 14 -719 60 -315 193 -582 386 -777 203 -204 463 -322
805 -364 108 -14 360 -14 470 -1 475 58 820 303 1022 725 52 109 68 165 49
165 -7 0 -171 27 -364 59 -194 33 -367 61 -385 63 -32 3 -34 1 -53 -52 -35
-99 -71 -161 -129 -224 -98 -104 -202 -146 -365 -146 -179 0 -309 54 -436 180
-123 121 -191 281 -205 483 l-7 87 1002 0 1001 0 0 118 c0 222 -27 447 -76
644 -140 565 -511 921 -1066 1024 -79 15 -389 27 -453 18z m378 -634 c35 -11
90 -37 123 -58 183 -119 272 -291 297 -574 l5 -48 -599 0 -599 0 0 43 c0 114
42 274 97 373 38 67 136 168 202 208 140 84 316 105 474 56z"/>
<path d="M12428 4405 c-390 -61 -732 -320 -907 -688 -54 -115 -105 -282 -133
-434 -20 -114 -23 -159 -23 -418 0 -266 2 -300 24 -410 67 -337 196 -592 404
-800 155 -155 305 -242 507 -295 105 -27 355 -39 470 -21 260 40 506 187 680
405 25 31 47 56 51 56 10 0 1 -607 -11 -688 -20 -135 -84 -243 -180 -304 -133
-85 -453 -122 -671 -77 -135 27 -224 107 -250 225 -7 31 -17 58 -23 60 -6 2
-200 26 -431 54 -231 27 -433 52 -449 55 l-29 5 6 -132 c6 -149 21 -218 73
-327 119 -253 334 -417 656 -500 201 -52 328 -64 673 -63 335 0 426 8 615 58
546 145 781 490 819 1199 5 88 9 796 10 1573 l1 1412 -375 0 -375 0 0 -205 c0
-113 -3 -205 -7 -205 -5 1 -24 21 -43 46 -97 125 -288 278 -420 336 -202 90
-432 118 -662 83z m575 -621 c165 -42 325 -175 405 -334 126 -253 148 -703 47
-999 -41 -121 -84 -190 -175 -282 -111 -111 -206 -161 -356 -186 -92 -14 -109
-15 -194 0 -255 43 -439 228 -510 513 -29 118 -40 231 -40 406 0 249 28 399
104 553 136 276 421 406 719 329z"/>
<path d="M16350 4405 c-87 -19 -214 -84 -270 -137 -70 -67 -143 -155 -209
-252 l-61 -90 0 212 0 212 -375 0 -375 0 0 -1510 0 -1510 405 0 405 0 0 678
c0 1017 19 1222 136 1453 123 245 402 308 690 155 l82 -44 46 127 c159 448
196 556 192 567 -10 26 -163 93 -286 125 -101 27 -293 34 -380 14z"/>
<path d="M18287 4410 c-232 -27 -418 -79 -556 -157 -161 -91 -319 -269 -405
-455 -42 -89 -89 -228 -82 -236 6 -5 688 -132 712 -132 6 0 19 21 29 48 46
119 130 223 216 267 88 45 163 59 314 58 282 -2 414 -58 481 -207 24 -53 28
-77 32 -178 l4 -118 -36 -15 c-100 -42 -314 -94 -824 -200 -336 -70 -585 -165
-719 -274 -119 -98 -226 -265 -270 -421 -14 -51 -18 -102 -18 -240 0 -195 14
-270 76 -393 163 -325 480 -497 915 -497 326 0 588 97 856 318 l86 72 15 -48
c9 -26 25 -81 38 -122 12 -41 28 -92 36 -112 l15 -38 395 0 c313 0 394 3 389
13 -42 93 -102 256 -121 329 -43 172 -48 281 -49 1123 -1 698 -4 802 -19 889
-38 218 -88 325 -204 437 -156 151 -348 235 -629 275 -129 18 -562 27 -677 14z
m740 -1877 c-5 -254 -11 -293 -64 -397 -75 -149 -279 -277 -486 -307 -72 -11
-97 -10 -165 3 -106 21 -164 51 -233 119 -79 79 -111 151 -117 259 -5 110 19
179 87 249 86 88 190 127 586 216 115 26 243 57 285 70 125 38 113 61 107
-212z"/>
<path d="M22045 4405 c-258 -48 -447 -151 -652 -357 l-103 -102 0 202 0 202
-370 0 -370 0 0 -1510 0 -1510 400 0 400 0 0 753 c0 956 12 1180 70 1344 81
230 289 376 540 377 172 1 284 -58 346 -181 69 -137 74 -238 74 -1365 l0 -928
399 0 400 0 4 883 c4 911 7 976 48 1131 66 250 222 405 453 452 201 41 394
-49 457 -215 51 -133 51 -154 56 -1238 l4 -1013 400 0 400 0 -4 1123 c-3 978
-6 1134 -20 1214 -54 307 -204 516 -462 644 -200 99 -452 133 -686 93 -238
-41 -441 -153 -639 -354 l-106 -106 -44 68 c-125 194 -328 333 -563 384 -103
23 -332 27 -432 9z"/>
</g>
</svg>
