<?xml version="1.0" standalone="no"?>
<!DOCTYPE svg PUBLIC "-//W3C//DTD SVG 20010904//EN"
 "http://www.w3.org/TR/2001/REC-SVG-20010904/DTD/svg10.dtd">
<svg version="1.0" xmlns="http://www.w3.org/2000/svg"
 width="2500.000000pt" height="1000.000000pt" viewBox="0 0 2500.000000 1000.000000"
 preserveAspectRatio="xMidYMid meet">

<g transform="translate(0.000000,1000.000000) scale(0.100000,-0.100000)"
fill="#000000" stroke="none">
<path d="M12155 8859 c-157 -20 -328 -54 -465 -91 -1204 -330 -2090 -1353
-2245 -2592 -92 -739 93 -1505 513 -2116 99 -144 197 -264 328 -399 494 -513
1140 -834 1854 -923 159 -20 624 -16 775 5 1122 163 2058 904 2459 1947 365
951 233 2038 -347 2865 -520 740 -1329 1217 -2216 1305 -122 12 -556 11 -656
-1z m1808 -1669 c14 -11 28 -33 32 -49 9 -44 -541 -2807 -567 -2843 -52 -75
-147 -106 -232 -78 -20 6 -212 147 -427 311 -391 300 -391 300 -413 281 -11
-10 -122 -111 -246 -224 -124 -112 -235 -210 -247 -216 -67 -36 -107 3 -157
155 -34 104 -227 729 -260 844 l-17 57 -382 127 c-210 70 -404 139 -431 154
-58 30 -96 82 -96 130 0 26 8 42 38 70 33 31 171 88 1077 443 973 381 2141
838 2175 851 8 3 40 6 71 6 42 1 63 -4 82 -19z"/>
<path d="M9620 2500 l0 -80 140 0 140 0 0 -400 0 -400 95 0 95 0 0 400 0 400
145 0 145 0 0 80 0 80 -380 0 -380 0 0 -80z"/>
<path d="M11150 2100 l0 -480 95 0 95 0 0 480 0 480 -95 0 -95 0 0 -480z"/>
<path d="M10573 2316 c-166 -53 -259 -258 -209 -467 34 -148 133 -233 284
-246 140 -12 250 37 309 137 18 30 33 57 33 61 0 3 -41 13 -91 21 l-91 15 -9
-24 c-39 -103 -191 -97 -239 10 -11 23 -20 52 -20 65 l0 22 231 0 232 0 -6 78
c-10 139 -54 230 -140 287 -81 53 -192 69 -284 41z m183 -151 c28 -18 63 -87
64 -122 0 -23 -1 -23 -141 -23 l-141 0 7 38 c20 112 124 164 211 107z"/>
<path d="M11715 2321 c-86 -23 -170 -94 -206 -175 -67 -152 -33 -378 70 -468
64 -56 114 -73 226 -73 112 0 162 17 226 73 35 30 88 116 79 126 -3 2 -43 11
-90 18 l-85 15 -17 -33 c-25 -46 -55 -64 -106 -64 -76 0 -132 50 -147 133 l-7
37 231 0 231 0 0 58 c-1 160 -69 281 -188 334 -48 22 -169 32 -217 19z m152
-151 c41 -25 63 -59 70 -110 l6 -41 -139 3 -139 3 3 35 c10 102 116 161 199
110z"/>
<path d="M12439 2314 c-63 -19 -141 -90 -168 -153 -30 -71 -42 -172 -30 -256
25 -179 128 -285 276 -285 76 0 117 16 172 65 l41 37 0 -81 c0 -94 -15 -133
-57 -149 -84 -33 -173 -21 -198 27 -13 27 -20 29 -92 36 -43 3 -88 9 -100 12
-21 5 -23 1 -23 -31 0 -46 30 -106 69 -139 62 -52 208 -76 339 -58 87 13 138
37 180 85 58 67 64 107 64 499 0 194 0 360 -1 370 -1 15 -12 17 -86 17 l-85 0
0 -43 0 -44 -39 37 c-68 65 -164 85 -262 54z m220 -151 c47 -34 71 -97 71
-187 0 -148 -56 -212 -184 -207 -19 1 -41 14 -66 39 -90 90 -72 308 30 364 43
23 110 19 149 -9z"/>
<path d="M13364 2320 c-11 -4 -39 -29 -62 -55 l-42 -48 0 47 0 46 -85 0 -85 0
0 -345 0 -345 90 0 90 0 0 118 c0 251 15 353 57 398 21 23 30 25 76 22 29 -2
59 -8 68 -12 13 -6 21 8 43 70 30 85 30 86 -34 104 -42 12 -87 12 -116 0z"/>
<path d="M13771 2315 c-84 -24 -132 -66 -166 -148 l-14 -35 82 -15 c55 -10 83
-12 86 -5 2 6 16 24 31 41 22 25 36 31 81 34 75 6 121 -18 133 -70 12 -48 9
-50 -114 -77 -198 -44 -244 -65 -286 -127 -52 -77 -34 -196 37 -257 92 -78
261 -71 356 17 l22 20 11 -27 c5 -15 10 -32 10 -37 0 -5 41 -9 91 -9 80 0 90
2 85 16 -20 52 -26 122 -29 319 -3 241 -9 272 -63 314 -51 40 -95 53 -199 57
-70 3 -116 -1 -154 -11z m236 -432 c-7 -76 -25 -106 -77 -134 -79 -43 -170 -4
-170 73 0 57 20 72 141 103 52 13 98 24 103 25 5 0 6 -30 3 -67z"/>
<path d="M14680 2321 c-40 -13 -85 -38 -119 -67 l-31 -26 0 41 0 41 -85 0 -85
0 0 -345 0 -345 89 0 89 0 4 233 c3 252 8 277 63 313 33 22 95 28 125 12 42
-23 49 -64 49 -320 l1 -238 89 0 89 0 4 223 c3 199 6 227 24 268 45 98 177
106 203 11 6 -21 11 -139 11 -269 l0 -233 90 0 90 0 0 273 0 273 -26 52 c-38
76 -94 107 -194 107 -84 0 -122 -15 -181 -72 l-36 -35 -23 31 c-12 17 -40 41
-63 52 -44 23 -137 33 -177 20z"/>
</g>
</svg>
