<?xml version="1.0" standalone="no"?>
<!DOCTYPE svg PUBLIC "-//W3C//DTD SVG 20010904//EN"
 "http://www.w3.org/TR/2001/REC-SVG-20010904/DTD/svg10.dtd">
<svg version="1.0" xmlns="http://www.w3.org/2000/svg"
 width="2500.000000pt" height="1000.000000pt" viewBox="0 0 2500.000000 1000.000000"
 preserveAspectRatio="xMidYMid meet">

<g transform="translate(0.000000,1000.000000) scale(0.100000,-0.100000)"
fill="#000000" stroke="none">
<path d="M77 9693 c-12 -11 -8 -4647 4 -4748 5 -49 14 -142 19 -205 5 -63 13
-133 19 -155 9 -39 22 -99 43 -215 6 -30 14 -60 19 -65 4 -6 11 -31 15 -55 4
-24 13 -55 21 -69 7 -14 13 -35 13 -46 0 -11 7 -29 15 -39 8 -11 15 -28 15
-37 0 -10 7 -30 14 -46 8 -15 17 -35 20 -43 3 -8 10 -22 15 -30 5 -8 19 -35
32 -60 47 -91 54 -104 67 -118 6 -7 12 -18 12 -23 0 -5 5 -15 10 -22 30 -36
80 -107 80 -114 0 -18 182 -209 274 -288 33 -27 64 -54 70 -60 24 -21 135 -97
171 -115 11 -6 34 -19 50 -29 33 -21 182 -96 230 -116 17 -7 47 -20 68 -29
136 -58 199 -79 327 -107 25 -5 52 -14 60 -18 9 -5 45 -12 80 -16 36 -4 76
-12 90 -17 14 -6 63 -14 110 -18 47 -5 114 -14 150 -20 48 -9 482 -12 1635
-13 l1570 -1 3 592 c2 469 0 594 -10 597 -7 3 -681 7 -1498 9 -1261 3 -1501 5
-1591 18 -58 9 -115 21 -127 27 -11 6 -33 11 -49 11 -15 1 -39 7 -53 15 -14 8
-33 14 -43 15 -10 0 -39 9 -65 21 -26 11 -58 25 -72 31 -54 22 -115 53 -121
61 -3 4 -24 18 -47 30 -60 32 -144 106 -227 201 -22 26 -55 76 -55 85 0 5 -4
11 -9 13 -11 4 -81 154 -81 174 0 8 -5 25 -11 36 -16 30 -39 138 -51 238 -7
54 -13 952 -17 2425 l-6 2340 -591 3 c-325 1 -594 -1 -597 -5z"/>
<path d="M8314 9690 c-45 -4 -85 -10 -90 -13 -5 -3 -56 -8 -114 -12 -58 -4
-118 -10 -135 -15 -16 -5 -57 -12 -90 -15 -33 -4 -79 -13 -103 -21 -23 -8 -52
-14 -64 -14 -21 0 -102 -21 -163 -42 -16 -5 -46 -14 -65 -18 -45 -11 -126 -38
-167 -56 -17 -8 -36 -14 -42 -14 -6 0 -19 -4 -29 -9 -9 -6 -39 -20 -67 -32
-27 -12 -57 -25 -65 -30 -8 -5 -22 -12 -30 -15 -54 -21 -96 -44 -335 -187 -11
-7 -22 -14 -25 -17 -3 -3 -23 -17 -45 -33 -22 -15 -60 -45 -85 -67 -25 -22
-48 -40 -52 -40 -12 0 -238 -227 -294 -294 -48 -58 -103 -131 -134 -176 -8
-12 -23 -33 -32 -45 -10 -13 -18 -26 -18 -30 0 -4 -13 -24 -30 -45 -16 -21
-30 -45 -30 -53 0 -8 -7 -20 -15 -27 -8 -7 -15 -18 -15 -26 0 -7 -6 -19 -12
-26 -18 -19 -82 -154 -127 -268 -12 -30 -29 -68 -37 -83 -8 -16 -14 -35 -14
-44 0 -8 -6 -27 -14 -41 -7 -15 -24 -61 -36 -102 -12 -41 -26 -86 -31 -100 -4
-14 -11 -43 -15 -65 -4 -22 -11 -48 -16 -59 -6 -10 -14 -42 -18 -70 -5 -28
-13 -71 -19 -96 -24 -110 -33 -160 -41 -238 -5 -45 -12 -87 -16 -93 -12 -20
-35 -331 -43 -584 -12 -375 9 -931 40 -1065 6 -25 13 -76 16 -115 2 -38 11
-87 19 -108 8 -20 14 -51 14 -68 0 -33 22 -133 46 -210 8 -26 14 -54 14 -62 0
-9 7 -38 15 -64 8 -26 25 -79 36 -118 12 -38 28 -82 35 -97 8 -14 14 -34 14
-45 0 -10 7 -27 15 -37 8 -11 15 -30 15 -42 0 -12 7 -27 15 -34 8 -7 15 -20
15 -29 0 -9 7 -29 15 -45 8 -15 15 -34 15 -41 0 -7 7 -18 15 -25 8 -7 15 -21
15 -31 0 -9 6 -24 14 -31 7 -8 17 -25 21 -38 4 -13 14 -30 21 -38 8 -7 14 -19
14 -26 0 -8 7 -19 15 -26 8 -7 15 -21 15 -31 0 -11 4 -19 8 -19 5 0 14 -10 21
-23 31 -60 133 -203 225 -316 27 -33 221 -227 264 -264 101 -86 308 -233 363
-257 13 -6 38 -19 54 -29 60 -38 254 -131 273 -131 10 0 27 -8 100 -44 19 -9
41 -16 50 -16 9 0 30 -7 46 -15 15 -8 37 -15 48 -15 11 0 29 -6 41 -12 24 -14
99 -33 192 -49 33 -6 65 -15 70 -19 6 -4 39 -11 75 -15 36 -4 90 -13 120 -21
30 -8 77 -14 105 -14 27 -1 79 -7 114 -14 74 -16 174 -18 1026 -18 828 0 910
1 964 18 25 8 65 14 88 14 23 0 62 6 85 14 24 8 63 17 88 20 25 4 63 13 85 20
22 8 67 22 100 31 33 10 76 25 95 33 19 9 51 22 70 30 19 8 42 19 50 24 8 4
21 10 28 13 6 3 18 7 25 10 22 9 121 67 165 96 24 16 47 29 51 29 5 0 11 7 15
15 3 8 10 15 16 15 5 0 18 8 28 17 10 10 29 25 41 33 85 56 244 220 311 320 8
12 21 28 28 36 6 7 12 17 12 21 0 5 13 27 29 49 32 43 131 232 131 249 0 5 9
27 20 48 11 20 20 45 20 55 0 10 5 23 11 29 6 6 15 29 19 50 5 21 13 52 18 68
17 49 34 126 42 186 4 30 12 64 17 75 6 10 13 60 16 110 4 50 11 113 17 141
26 120 -3 759 -39 846 -6 16 -11 42 -11 59 0 29 -18 102 -42 173 -5 17 -14 45
-18 64 -5 18 -13 38 -19 44 -6 6 -11 20 -11 30 0 10 -6 31 -14 45 -8 15 -33
65 -56 112 -23 47 -50 99 -60 115 -11 17 -25 40 -32 52 -57 96 -157 216 -258
309 -71 65 -106 94 -114 94 -4 0 -25 14 -46 30 -21 17 -43 30 -48 30 -6 0 -17
6 -24 13 -16 15 -162 87 -178 87 -5 0 -18 4 -28 10 -24 14 -100 40 -142 49
-19 4 -44 12 -55 18 -11 6 -43 13 -72 16 -28 3 -60 10 -70 15 -55 30 -269 37
-1201 39 l-942 3 2 -517 3 -518 760 -2 c714 -1 1002 -10 1044 -32 9 -5 33 -12
55 -15 21 -4 46 -11 55 -16 9 -5 39 -19 66 -31 113 -51 240 -174 302 -294 48
-91 53 -103 53 -118 0 -8 7 -28 15 -43 8 -16 15 -45 15 -64 0 -19 7 -57 15
-84 21 -68 21 -340 0 -419 -8 -32 -15 -72 -15 -88 0 -17 -5 -40 -12 -52 -6
-12 -15 -35 -19 -52 -11 -45 -40 -119 -47 -125 -4 -3 -18 -25 -31 -50 -27 -50
-130 -190 -140 -190 -3 0 -22 -15 -42 -33 -20 -18 -53 -41 -75 -52 -21 -11
-45 -26 -52 -33 -7 -6 -21 -12 -30 -12 -9 0 -26 -7 -36 -15 -11 -8 -27 -15
-35 -15 -9 0 -29 -7 -45 -15 -15 -8 -42 -15 -60 -15 -17 0 -56 -7 -86 -15 -47
-13 -182 -15 -877 -15 -465 0 -833 4 -847 9 -13 5 -66 13 -117 17 -52 4 -111
13 -133 20 -21 8 -53 14 -70 14 -17 1 -42 7 -56 15 -14 8 -39 14 -56 15 -16 0
-39 7 -50 15 -10 8 -28 15 -39 15 -11 0 -33 7 -49 15 -15 8 -33 15 -39 15 -9
0 -83 32 -117 51 -8 4 -37 20 -65 35 -27 14 -64 37 -82 50 -17 13 -35 24 -39
24 -35 0 -270 238 -338 344 -81 124 -186 334 -186 372 0 7 -6 25 -14 41 -21
43 -37 93 -46 145 -5 27 -12 54 -17 60 -10 16 -30 117 -44 228 -6 46 -14 91
-19 101 -5 9 -12 65 -15 125 -3 60 -10 145 -15 189 -21 185 -19 612 4 760 3
17 7 79 11 139 3 59 9 116 14 125 5 9 12 50 16 91 4 41 11 84 15 95 4 11 11
44 15 73 4 30 13 66 21 80 8 15 14 41 14 57 1 17 7 41 15 55 8 14 15 36 15 50
0 14 7 34 15 44 8 11 15 28 15 39 0 10 6 31 14 45 7 15 23 50 36 77 38 87 55
119 68 133 6 7 12 17 12 22 0 21 131 200 204 279 71 75 284 229 356 257 8 3
22 10 30 15 8 5 22 12 30 15 8 3 29 12 45 19 50 22 107 42 180 65 109 34 126
39 185 46 30 4 64 11 74 17 11 5 70 13 130 18 61 4 122 11 136 16 14 4 716 9
1560 10 844 2 1541 5 1548 8 10 3 12 127 10 592 l-3 588 -1565 1 c-861 0
-1601 -2 -1646 -6z"/>
<path d="M12527 9694 c-4 -4 -7 -272 -7 -596 l0 -588 1858 -1 c1021 0 1868 -2
1882 -4 14 -3 50 -9 80 -14 30 -6 76 -13 102 -16 26 -3 50 -10 53 -16 4 -5 15
-9 27 -9 11 0 36 -7 56 -16 68 -29 127 -58 137 -66 6 -4 34 -26 63 -49 60 -46
123 -112 134 -140 4 -11 12 -19 18 -19 5 0 10 -4 10 -9 0 -6 13 -29 29 -53 15
-24 35 -59 44 -78 44 -98 57 -134 57 -152 0 -10 8 -33 17 -51 25 -46 26 -454
1 -507 -9 -19 -19 -53 -22 -75 -3 -22 -10 -41 -16 -43 -5 -2 -10 -10 -10 -19
0 -50 -77 -180 -180 -307 -28 -34 -185 -148 -230 -166 -14 -6 -38 -17 -55 -25
-70 -32 -104 -45 -122 -45 -10 0 -37 -7 -60 -15 -36 -13 -240 -15 -1450 -16
-1149 0 -1422 -3 -1483 -14 -41 -8 -100 -14 -131 -14 -31 -1 -73 -8 -92 -16
-20 -8 -49 -15 -64 -15 -15 0 -41 -7 -57 -15 -15 -8 -33 -15 -40 -15 -6 0 -28
-9 -49 -20 -20 -11 -42 -20 -47 -20 -6 0 -16 -5 -23 -10 -7 -6 -40 -28 -73
-50 -67 -44 -152 -135 -202 -218 -18 -29 -32 -56 -32 -60 0 -4 -7 -20 -16 -37
-9 -16 -20 -46 -24 -65 -5 -19 -13 -48 -18 -65 -19 -56 -34 -150 -42 -265 -11
-145 -13 -2940 -2 -2941 33 -4 1182 -3 1182 1 0 3 1 583 3 1290 l2 1285 24 36
c14 20 38 44 55 55 30 18 71 19 1311 24 704 3 1287 8 1295 13 8 4 56 12 105
17 112 13 240 35 283 49 83 28 99 33 135 42 21 5 45 13 55 18 9 5 42 19 72 31
63 25 180 83 225 110 65 41 81 50 108 62 15 7 27 16 27 20 0 4 5 8 11 8 6 0
30 16 53 35 24 19 48 35 55 35 6 0 11 4 11 8 0 5 15 20 34 33 98 70 344 341
379 419 4 8 16 29 27 45 11 17 25 41 30 55 6 13 14 27 18 30 7 5 36 63 68 135
9 22 23 52 31 67 7 14 13 35 13 45 0 10 5 24 10 29 6 6 17 35 25 65 9 30 23
79 31 109 9 30 22 88 30 128 7 40 16 77 18 81 3 4 8 36 11 72 4 35 13 99 22
142 12 62 14 128 10 310 -2 128 -9 248 -15 267 -6 19 -13 64 -17 99 -3 35 -8
67 -10 71 -2 4 -9 38 -15 75 -6 38 -15 74 -20 80 -5 6 -12 31 -16 55 -4 24
-13 55 -21 69 -7 14 -13 34 -13 43 0 9 -6 29 -14 45 -7 15 -20 44 -28 63 -35
82 -93 198 -120 238 -15 24 -28 45 -28 48 0 4 -62 90 -123 168 -59 78 -219
226 -307 286 -12 8 -28 20 -34 25 -19 16 -70 51 -86 58 -8 4 -28 16 -45 27
-16 11 -42 25 -57 31 -16 6 -28 15 -28 20 0 5 -5 9 -11 9 -6 0 -43 15 -82 33
-40 19 -92 42 -117 51 -25 10 -58 24 -73 32 -16 8 -38 14 -50 14 -12 1 -33 7
-47 15 -14 8 -36 14 -50 15 -14 0 -37 6 -51 14 -14 7 -52 17 -84 21 -32 4 -68
11 -80 15 -12 5 -59 11 -104 15 -45 4 -97 12 -114 18 -36 13 -3917 23 -3930
11z"/>
<path d="M19205 9693 c-16 -3 -34 -8 -40 -13 -5 -4 -27 -10 -47 -14 -20 -4
-50 -13 -65 -21 -15 -8 -32 -15 -36 -15 -19 0 -147 -126 -147 -144 0 -8 -7
-19 -15 -26 -8 -7 -15 -19 -15 -27 0 -8 -6 -29 -14 -46 -8 -18 -21 -76 -30
-130 -14 -88 -16 -399 -16 -3035 1 -2835 1 -2941 19 -3042 20 -109 39 -172 59
-192 7 -7 12 -16 12 -21 0 -36 177 -177 223 -177 10 0 32 -7 50 -16 29 -16
147 -17 1382 -17 1672 1 1705 1 1785 18 36 8 90 14 121 15 30 0 78 6 105 14
27 8 78 17 114 21 36 4 72 11 81 16 9 4 41 13 70 18 83 16 163 35 175 43 6 4
28 11 50 17 51 12 102 30 137 47 16 8 33 14 39 14 5 0 26 7 46 16 21 8 51 21
67 28 17 7 51 23 76 35 25 11 51 21 58 21 6 0 11 4 11 8 0 4 26 20 58 35 31
16 69 36 84 45 14 9 48 30 74 46 27 16 53 33 59 38 5 5 51 39 100 76 50 37
104 78 120 92 61 51 275 269 275 279 0 6 4 11 9 11 5 0 12 8 15 18 3 9 22 35
41 57 48 56 48 56 75 100 13 22 27 42 30 45 3 3 23 34 44 70 20 36 42 72 47
80 5 8 14 27 20 43 6 15 15 27 20 27 5 0 9 7 9 15 0 8 13 41 29 72 35 69 63
131 86 193 9 25 22 59 29 75 19 46 46 131 46 146 0 8 6 26 14 40 7 14 16 47
20 72 4 26 11 49 16 52 5 3 12 27 15 53 3 26 10 55 16 64 5 10 13 49 19 87 5
38 14 81 20 95 5 15 10 44 10 65 0 20 6 60 14 87 8 27 17 94 20 149 3 55 10
116 15 135 5 19 12 107 16 195 3 88 10 187 15 220 18 123 -4 774 -32 935 -6
36 -14 106 -19 155 -7 96 -23 201 -41 275 -6 25 -14 70 -18 102 -4 31 -11 61
-15 68 -4 6 -14 39 -22 73 -26 112 -39 162 -51 190 -7 16 -12 33 -12 39 0 12
-28 101 -46 143 -7 17 -20 50 -29 75 -22 59 -53 128 -71 162 -8 14 -14 33 -14
42 0 9 -4 16 -9 16 -5 0 -12 14 -16 30 -4 17 -10 30 -15 30 -4 0 -13 12 -19
28 -24 62 -170 294 -218 347 -10 11 -38 45 -62 75 -38 47 -251 262 -293 296
-78 63 -186 142 -200 147 -10 4 -18 11 -18 16 0 5 -11 12 -25 15 -14 4 -25 11
-25 16 0 6 -6 10 -13 10 -8 0 -24 9 -37 20 -13 11 -29 20 -37 20 -7 0 -13 4
-13 9 0 5 -12 14 -27 20 -16 6 -37 16 -48 22 -39 23 -50 29 -65 35 -8 3 -28
11 -45 19 -16 7 -40 16 -52 20 -13 3 -23 11 -23 16 0 5 -8 9 -17 9 -10 1 -36
9 -58 20 -22 11 -45 19 -51 20 -7 0 -25 7 -40 15 -16 8 -38 15 -49 15 -11 1
-31 7 -45 15 -14 8 -37 14 -51 15 -14 0 -34 7 -45 15 -10 8 -32 15 -47 15 -15
0 -44 7 -64 15 -19 8 -48 15 -64 15 -16 0 -48 6 -71 14 -24 8 -67 17 -96 20
-30 4 -73 10 -95 15 -23 5 -84 13 -136 16 -52 4 -104 9 -115 12 -12 3 -59 8
-106 13 -89 7 -2902 10 -2955 3z m2875 -1196 c14 -4 63 -10 110 -13 47 -4 103
-10 125 -16 22 -5 67 -14 100 -19 63 -10 79 -14 190 -49 73 -23 130 -43 180
-65 17 -7 37 -16 45 -19 8 -3 23 -10 33 -16 28 -16 49 -28 93 -50 93 -47 252
-180 334 -280 25 -30 47 -57 50 -60 15 -15 50 -71 50 -80 0 -5 3 -10 8 -10 10
0 61 -88 86 -150 3 -8 10 -22 15 -30 21 -35 51 -108 51 -124 0 -9 4 -16 10
-16 5 0 12 -17 16 -37 3 -21 12 -48 20 -60 8 -12 14 -34 14 -48 0 -15 5 -35
11 -46 6 -11 14 -41 19 -67 4 -26 13 -60 18 -77 17 -49 55 -298 72 -475 12
-123 12 -796 0 -920 -15 -159 -55 -417 -72 -465 -6 -16 -13 -50 -17 -75 -4
-25 -13 -55 -19 -67 -7 -12 -12 -35 -12 -50 0 -16 -7 -38 -15 -49 -8 -10 -15
-28 -15 -39 0 -11 -7 -33 -15 -49 -8 -15 -15 -33 -15 -38 0 -17 -101 -221
-131 -266 -16 -24 -29 -45 -29 -48 0 -14 -128 -168 -187 -225 -75 -73 -157
-139 -173 -139 -6 0 -10 -3 -10 -7 0 -7 -22 -22 -85 -58 -11 -7 -45 -24 -75
-39 -30 -15 -63 -32 -72 -37 -10 -5 -46 -18 -80 -30 -35 -11 -77 -27 -95 -35
-17 -8 -40 -14 -51 -14 -11 0 -36 -7 -55 -15 -20 -8 -50 -15 -66 -15 -17 0
-48 -6 -68 -14 -21 -8 -78 -17 -126 -21 -48 -3 -99 -10 -113 -15 -14 -6 -436
-10 -1048 -10 l-1024 0 -36 34 -36 33 2 2213 3 2212 34 29 c19 15 43 30 55 32
36 8 1970 1 1996 -6z"/>
<path d="M21565 7936 c-337 -57 -625 -289 -747 -603 -53 -137 -68 -234 -68
-459 l0 -201 -92 -6 c-120 -8 -200 -45 -252 -116 -69 -94 -66 -54 -66 -887 0
-734 1 -755 20 -808 26 -69 83 -128 162 -166 l62 -30 1143 0 1143 0 63 28 c74
34 136 98 163 168 18 47 19 86 19 819 l0 770 -27 50 c-60 113 -146 163 -293
172 l-93 6 -5 226 c-5 248 -17 323 -77 462 -60 142 -182 296 -314 396 -81 61
-240 136 -346 162 -109 28 -287 35 -395 17z m380 -290 c202 -68 367 -224 439
-414 41 -108 46 -146 53 -359 l6 -203 -718 0 -718 0 6 208 c4 170 9 220 26
280 77 267 279 454 552 512 24 5 96 8 159 6 93 -3 131 -9 195 -30z m170 -1409
c204 -154 457 -345 563 -425 154 -116 190 -148 180 -157 -7 -7 -206 -158 -443
-336 -236 -178 -488 -367 -558 -421 l-128 -97 -367 277 c-706 532 -765 578
-765 587 0 6 175 142 389 303 214 162 468 354 564 427 96 73 180 130 185 127
6 -4 177 -132 380 -285z"/>
<path d="M21606 6154 c-79 -19 -165 -67 -225 -124 -44 -43 -91 -104 -91 -121
0 -3 44 -9 98 -12 160 -11 313 -51 481 -127 l86 -39 3 34 c3 33 6 35 38 35 32
0 34 -2 34 -34 0 -32 -3 -35 -32 -38 l-33 -3 50 -29 c28 -16 80 -53 117 -82
37 -30 71 -54 76 -54 12 0 23 113 16 165 -16 121 -64 218 -148 300 -124 121
-301 170 -470 129z"/>
<path d="M21232 5648 c4 -97 7 -110 46 -189 140 -289 492 -375 753 -183 26 19
62 53 80 75 l32 40 -29 31 c-50 53 -152 125 -243 172 -180 93 -349 141 -532
152 l-112 7 5 -105z m108 -38 l0 -40 -40 0 c-39 0 -40 1 -40 33 0 42 5 47 47
47 32 0 33 -1 33 -40z m230 0 c0 -39 -1 -40 -35 -40 -33 0 -35 2 -35 34 0 32
3 35 33 39 17 2 33 5 35 5 1 1 2 -16 2 -38z m150 -75 c0 -33 -2 -35 -35 -35
-33 0 -35 2 -35 35 0 33 2 35 35 35 33 0 35 -2 35 -35z m-300 -80 c0 -34 -1
-35 -40 -35 -39 0 -40 1 -40 35 0 34 1 35 40 35 39 0 40 -1 40 -35z m610 -80
c0 -33 -2 -35 -35 -35 -33 0 -35 2 -35 35 0 33 2 35 35 35 33 0 35 -2 35 -35z
m-230 -81 c0 -32 -2 -34 -35 -34 -34 0 -35 1 -35 38 0 38 0 38 35 34 32 -4 35
-7 35 -38z"/>
<path d="M1900 2020 c-11 -11 -20 -29 -20 -40 0 -27 35 -60 63 -60 50 0 76 70
39 103 -25 23 -58 21 -82 -3z"/>
<path d="M5380 1595 l0 -445 40 0 40 0 0 445 0 445 -40 0 -40 0 0 -445z"/>
<path d="M6508 2028 c-2 -7 -3 -91 -2 -185 1 -95 0 -173 -3 -173 -2 0 -15 13
-29 29 -42 51 -120 82 -203 82 -135 1 -233 -57 -288 -169 -24 -50 -28 -69 -28
-147 0 -78 4 -97 28 -147 55 -112 155 -171 289 -170 86 1 162 34 208 90 l30
37 0 -63 0 -62 40 0 40 0 0 445 0 445 -39 0 c-22 0 -41 -5 -43 -12z m-138
-339 c59 -27 77 -44 108 -104 57 -114 20 -267 -81 -329 -89 -55 -204 -45 -279
22 -57 51 -78 101 -78 187 0 79 20 133 66 179 66 66 177 85 264 45z"/>
<path d="M14118 2028 c-2 -7 -3 -91 -2 -185 1 -95 0 -173 -3 -173 -2 0 -15 13
-29 29 -42 51 -120 82 -203 82 -135 1 -233 -57 -288 -169 -24 -50 -28 -69 -28
-147 0 -78 4 -97 28 -147 55 -112 155 -171 289 -170 86 1 162 34 208 90 l30
37 0 -63 0 -62 40 0 40 0 0 445 0 445 -39 0 c-22 0 -41 -5 -43 -12z m-138
-339 c59 -27 77 -44 108 -104 57 -114 20 -267 -81 -329 -89 -55 -204 -45 -279
22 -57 51 -78 101 -78 187 0 79 20 133 66 179 66 66 177 85 264 45z"/>
<path d="M17668 2028 c-2 -7 -3 -91 -2 -185 1 -95 0 -173 -3 -173 -2 0 -15 13
-29 29 -42 51 -120 82 -203 82 -135 1 -233 -57 -288 -169 -24 -50 -28 -69 -28
-147 0 -78 4 -97 28 -147 55 -112 155 -171 289 -170 86 1 162 34 208 90 l30
37 0 -63 0 -62 40 0 40 0 0 445 0 445 -39 0 c-22 0 -41 -5 -43 -12z m-138
-339 c59 -27 77 -44 108 -104 57 -114 20 -267 -81 -329 -89 -55 -204 -45 -279
22 -57 51 -78 101 -78 187 0 79 20 133 66 179 66 66 177 85 264 45z"/>
<path d="M23860 2020 c-11 -11 -20 -29 -20 -40 0 -42 62 -75 96 -52 24 16 35
51 23 75 -23 43 -66 50 -99 17z"/>
<path d="M11937 2009 c-19 -11 -41 -50 -51 -91 -6 -25 -4 -28 18 -28 18 0 27
8 34 29 12 34 44 55 71 46 11 -3 39 -21 63 -40 70 -56 143 -43 174 31 21 49
18 64 -11 64 -14 0 -25 -6 -25 -14 0 -21 -40 -66 -58 -66 -10 0 -41 18 -71 40
-55 42 -105 52 -144 29z"/>
<path d="M2845 1990 c-201 -33 -345 -184 -361 -381 -20 -235 130 -421 370
-460 106 -18 257 15 334 71 l42 30 0 160 0 160 -40 0 -39 0 -3 -142 -3 -143
-60 -30 c-53 -27 -69 -30 -155 -30 -84 0 -103 4 -157 29 -69 32 -137 97 -175
167 -20 38 -23 58 -23 149 0 121 14 158 91 240 115 123 327 143 469 45 l50
-34 22 27 c12 15 22 30 23 33 0 3 -19 20 -43 37 -83 59 -231 90 -342 72z"/>
<path d="M483 1570 l0 -420 279 0 278 0 0 40 0 40 -235 0 -235 0 0 380 0 380
-43 0 -44 0 0 -420z"/>
<path d="M7883 1570 l0 -420 43 0 43 0 3 133 3 132 175 5 c155 5 181 8 225 28
99 45 154 123 163 229 12 153 -70 263 -227 299 -36 9 -123 14 -242 14 l-186 0
0 -420z m428 329 c50 -15 108 -64 125 -105 22 -53 18 -144 -9 -195 -18 -34
-36 -51 -82 -74 -57 -29 -64 -30 -217 -34 l-158 -3 0 211 0 211 151 0 c85 0
169 -5 190 -11z"/>
<path d="M15493 1570 l0 -420 197 0 c229 0 279 7 377 55 118 58 193 163 212
298 32 231 -95 419 -321 472 -45 10 -122 15 -264 15 l-201 0 0 -420z m519 302
c88 -43 142 -104 168 -190 54 -174 -12 -337 -168 -414 l-66 -33 -183 -3 -183
-4 0 342 0 342 183 -4 183 -3 66 -33z"/>
<path d="M19660 1571 l0 -421 45 0 45 0 0 135 0 135 158 0 c113 0 173 4 210
15 122 37 196 138 195 268 0 94 -22 145 -84 201 -79 71 -112 78 -356 84 l-213
4 0 -421z m475 304 c137 -85 121 -299 -28 -361 -32 -13 -80 -18 -199 -22
l-158 -4 0 212 0 212 168 -4 c167 -3 169 -3 217 -33z"/>
<path d="M9980 1850 l0 -70 -60 0 -60 0 0 -35 0 -35 59 0 60 0 3 -232 c3 -222
4 -234 25 -264 13 -17 39 -39 59 -49 78 -37 233 -10 218 39 -10 34 -21 40 -49
28 -32 -15 -100 -16 -126 -2 -43 24 -49 57 -49 275 l0 205 95 0 95 0 0 35 0
35 -95 0 -95 0 0 70 0 70 -40 0 -40 0 0 -70z"/>
<path d="M1361 1778 c-97 -15 -181 -81 -225 -177 -16 -36 -20 -66 -20 -136 0
-107 21 -161 90 -230 109 -108 328 -118 440 -21 l39 34 -24 26 c-24 26 -25 26
-45 7 -61 -55 -176 -76 -263 -47 -76 25 -153 116 -153 181 l0 25 261 0 261 0
-4 64 c-11 184 -168 304 -357 274z m147 -84 c68 -28 131 -110 132 -171 l0 -23
-220 0 -220 0 0 25 c0 55 58 133 125 168 39 21 135 21 183 1z"/>
<path d="M3651 1778 c-97 -15 -181 -81 -225 -177 -16 -36 -20 -66 -20 -136 0
-107 21 -161 90 -230 109 -108 328 -118 440 -21 l39 34 -24 26 c-24 26 -25 26
-45 7 -61 -55 -176 -76 -263 -47 -76 25 -153 116 -153 181 l0 25 261 0 261 0
-4 64 c-11 184 -168 304 -357 274z m147 -84 c68 -28 131 -110 132 -171 l0 -23
-220 0 -220 0 0 25 c0 55 58 133 125 168 39 21 135 21 183 1z"/>
<path d="M4823 1779 c-64 -8 -171 -52 -179 -74 -3 -7 2 -24 11 -38 l16 -25 57
31 c47 26 70 31 137 34 69 3 85 1 119 -19 48 -28 76 -79 76 -135 l0 -43 -102
0 c-248 0 -338 -50 -338 -185 0 -111 83 -176 226 -176 82 0 146 22 189 65 l25
25 0 -44 0 -45 40 0 40 0 0 229 c0 146 -4 240 -12 262 -19 57 -49 91 -102 114
-60 27 -118 34 -203 24z m237 -389 c0 -61 -19 -101 -62 -133 -119 -88 -298
-45 -298 72 0 20 7 47 16 60 29 41 69 50 212 51 l132 0 0 -50z"/>
<path d="M7017 1779 c-105 -17 -177 -74 -225 -179 -38 -81 -37 -194 2 -273 34
-70 110 -140 177 -162 56 -19 166 -22 225 -6 47 13 134 68 134 84 -1 7 -10 23
-21 36 l-20 24 -22 -21 c-92 -87 -271 -80 -359 14 -30 32 -58 92 -58 124 0 20
5 20 266 20 l265 0 -6 58 c-13 109 -67 199 -150 247 -35 21 -56 27 -140 39
-11 2 -41 0 -68 -5z m153 -89 c69 -35 120 -105 120 -165 l0 -25 -220 0 c-214
0 -220 1 -220 20 0 32 28 92 58 124 61 65 183 87 262 46z"/>
<path d="M9413 1780 c-74 -11 -136 -44 -187 -101 -55 -62 -76 -121 -76 -218 0
-205 167 -342 377 -309 69 11 117 35 167 85 121 120 122 336 2 456 -57 57 -97
74 -211 91 -11 2 -43 0 -72 -4z m153 -89 c49 -23 107 -88 122 -140 65 -216
-128 -399 -324 -307 -148 69 -179 287 -58 403 24 23 58 47 76 52 55 16 140 12
184 -8z"/>
<path d="M10638 1779 c-150 -23 -248 -148 -248 -317 0 -164 103 -285 264 -310
101 -16 196 7 274 65 l32 24 -21 30 -21 30 -34 -26 c-53 -41 -117 -58 -188
-53 -102 9 -166 51 -205 138 -39 85 -56 80 245 80 l267 0 -7 61 c-19 188 -171
306 -358 278z m180 -101 c44 -29 86 -92 97 -145 l7 -33 -226 0 c-257 0 -245
-5 -202 86 41 88 105 125 212 121 58 -2 78 -7 112 -29z"/>
<path d="M11377 1778 c-107 -14 -189 -75 -239 -178 -27 -55 -32 -194 -9 -250
40 -97 118 -169 209 -192 39 -10 43 -13 38 -34 -18 -75 -20 -69 26 -79 33 -8
45 -16 52 -37 14 -41 -14 -68 -71 -68 -24 0 -53 4 -63 10 -15 8 -20 6 -25 -11
-11 -34 10 -44 91 -44 73 0 77 1 105 33 18 20 29 43 29 61 0 35 -44 91 -71 91
-25 0 -34 22 -19 49 7 15 21 21 44 21 67 0 158 46 191 96 14 21 13 24 -14 43
l-29 21 -34 -33 c-82 -77 -224 -76 -310 1 -57 51 -78 101 -78 187 0 79 20 133
66 179 84 84 237 89 322 9 l34 -33 29 21 c27 19 28 22 14 43 -47 72 -164 110
-288 94z"/>
<path d="M12003 1779 c-64 -8 -171 -52 -179 -74 -3 -7 2 -24 11 -38 l16 -25
57 31 c47 26 70 31 137 34 69 3 85 1 119 -19 48 -28 76 -79 76 -135 l0 -43
-102 0 c-248 0 -338 -50 -338 -185 0 -111 83 -176 226 -176 82 0 146 22 189
65 l25 25 0 -44 0 -45 40 0 40 0 0 229 c0 146 -4 240 -12 262 -19 57 -49 91
-102 114 -60 27 -118 34 -203 24z m237 -389 c0 -61 -19 -101 -62 -133 -119
-88 -298 -45 -298 72 0 20 7 47 16 60 29 41 69 50 212 51 l132 0 0 -50z"/>
<path d="M12763 1779 c-107 -14 -195 -80 -241 -179 -38 -80 -37 -194 2 -273
55 -113 163 -179 291 -179 96 0 160 26 226 91 67 67 89 123 89 226 0 103 -22
159 -89 226 -76 76 -164 104 -278 88z m153 -90 c58 -27 100 -78 119 -141 19
-66 19 -101 -1 -169 -45 -153 -242 -211 -368 -107 -74 61 -105 177 -74 279 15
52 73 117 122 140 57 26 148 25 202 -2z"/>
<path d="M14627 1779 c-105 -17 -177 -74 -225 -179 -38 -81 -37 -194 2 -273
34 -70 110 -140 177 -162 56 -19 166 -22 225 -6 47 13 134 68 134 84 -1 7 -10
23 -21 36 l-20 24 -22 -21 c-92 -87 -271 -80 -359 14 -30 32 -58 92 -58 124 0
20 5 20 266 20 l265 0 -6 58 c-13 109 -67 199 -150 247 -35 21 -56 27 -140 39
-11 2 -41 0 -68 -5z m153 -89 c69 -35 120 -105 120 -165 l0 -25 -220 0 c-214
0 -220 1 -220 20 0 32 28 92 58 124 61 65 183 87 262 46z"/>
<path d="M16623 1779 c-64 -8 -144 -38 -175 -65 -17 -16 -16 -23 18 -73 2 -2
15 6 31 17 74 52 204 67 280 33 48 -22 71 -60 80 -130 l5 -48 -148 -5 c-166
-6 -217 -20 -259 -70 -31 -36 -47 -95 -39 -139 18 -96 101 -151 227 -151 86 1
137 18 185 64 l32 32 0 -47 0 -47 40 0 40 0 0 223 c0 125 -5 239 -11 260 -30
110 -146 165 -306 146z m237 -392 c0 -93 -69 -161 -178 -174 -100 -11 -182 39
-182 113 0 46 14 71 53 94 28 17 51 20 170 20 l137 0 0 -53z"/>
<path d="M18193 1780 c-74 -11 -136 -44 -187 -101 -55 -62 -76 -121 -76 -218
0 -205 167 -342 377 -309 69 11 117 35 167 85 121 120 122 336 2 456 -57 57
-97 74 -211 91 -11 2 -43 0 -72 -4z m153 -89 c49 -23 107 -88 122 -140 65
-216 -128 -399 -324 -307 -148 69 -179 287 -58 403 24 23 58 47 76 52 55 16
140 12 184 -8z"/>
<path d="M18869 1779 c-116 -13 -189 -80 -189 -173 0 -102 47 -140 220 -176
119 -26 153 -40 176 -75 13 -20 14 -30 4 -59 -19 -58 -50 -71 -165 -71 -93 0
-106 3 -163 31 l-63 31 -14 -28 c-8 -15 -15 -32 -15 -37 0 -17 118 -62 187
-71 188 -23 323 50 323 175 0 49 -31 100 -76 126 -17 10 -82 29 -144 43 -62
14 -127 33 -144 43 -58 34 -60 104 -3 146 24 18 43 21 125 21 79 0 105 -4 140
-22 l43 -21 19 31 c18 29 18 31 2 43 -23 16 -115 41 -167 46 -22 2 -65 1 -96
-3z"/>
<path d="M20691 1778 c-97 -15 -181 -81 -225 -177 -16 -36 -20 -66 -20 -136 0
-107 21 -161 90 -230 109 -108 328 -118 440 -21 l39 34 -24 26 c-24 26 -25 26
-45 7 -61 -55 -176 -76 -263 -47 -76 25 -153 116 -153 181 l0 25 261 0 261 0
-4 64 c-11 184 -168 304 -357 274z m147 -84 c68 -28 131 -110 132 -171 l0 -23
-220 0 -220 0 0 25 c0 55 58 133 125 168 39 21 135 21 183 1z"/>
<path d="M21360 1779 c-128 -15 -192 -76 -192 -180 1 -97 42 -129 217 -168
150 -34 179 -51 183 -108 3 -35 -1 -44 -28 -66 -17 -15 -47 -29 -66 -33 -64
-12 -167 1 -229 30 -31 14 -60 26 -64 26 -4 0 -14 -13 -24 -29 l-17 -29 32
-20 c85 -52 259 -70 357 -37 116 38 166 165 99 250 -30 38 -69 54 -197 81 -64
14 -127 33 -141 43 -53 38 -51 105 3 145 24 18 42 21 125 21 81 0 104 -4 139
-23 l42 -22 16 29 c8 17 15 33 15 36 0 3 -20 15 -45 26 -55 24 -152 36 -225
28z"/>
<path d="M21937 1779 c-142 -16 -224 -133 -171 -245 24 -50 82 -78 216 -108
65 -14 129 -33 143 -42 48 -32 45 -99 -8 -138 -25 -18 -43 -21 -131 -21 -93 0
-107 3 -163 30 l-60 30 -17 -29 c-21 -35 -13 -46 55 -76 102 -43 271 -42 353
3 58 32 86 78 86 143 0 42 -5 59 -26 84 -37 43 -69 57 -194 85 -60 13 -122 31
-138 39 -67 34 -60 126 11 159 53 26 168 22 238 -7 l57 -23 16 33 c18 39 17
40 -69 67 -64 20 -125 25 -198 16z"/>
<path d="M22605 1779 c-111 -14 -205 -91 -246 -198 -44 -116 -8 -276 78 -352
65 -56 132 -81 225 -81 73 0 89 4 147 34 155 79 214 271 134 434 -59 121 -188
183 -338 163z m181 -104 c70 -44 104 -113 104 -209 0 -80 -20 -134 -66 -179
-49 -49 -82 -61 -165 -62 -67 0 -81 3 -124 30 -120 75 -147 251 -57 374 62 84
210 106 308 46z"/>
<path d="M23312 1778 c-34 -4 -86 -18 -115 -32 -76 -36 -81 -40 -68 -62 27
-48 27 -48 56 -25 37 28 117 51 182 51 96 0 154 -40 172 -120 19 -82 28 -76
-137 -82 -167 -6 -217 -21 -264 -77 -56 -66 -43 -184 27 -237 45 -34 87 -45
171 -45 83 0 134 18 182 63 l32 32 0 -47 0 -47 40 0 40 0 0 216 c0 122 -5 234
-11 258 -12 50 -58 110 -100 131 -40 21 -133 32 -207 23z m238 -386 c0 -61
-37 -121 -94 -154 -56 -31 -164 -33 -216 -2 -72 42 -72 147 0 185 29 16 57 19
172 19 l138 0 0 -48z"/>
<path d="M24307 1779 c-142 -16 -224 -133 -171 -245 24 -50 82 -78 216 -108
65 -14 129 -33 143 -42 48 -32 45 -99 -8 -138 -25 -18 -43 -21 -131 -21 -93 0
-107 3 -163 30 l-60 30 -17 -29 c-21 -35 -13 -46 55 -76 102 -43 271 -42 353
3 58 32 86 78 86 143 0 42 -5 59 -26 84 -37 43 -69 57 -194 85 -60 13 -122 31
-138 39 -67 34 -60 126 11 159 53 26 168 22 238 -7 l57 -23 16 33 c18 39 17
40 -69 67 -64 20 -125 25 -198 16z"/>
<path d="M1900 1465 l0 -315 40 0 40 0 0 315 0 315 -40 0 -40 0 0 -315z"/>
<path d="M4190 1465 l0 -315 39 0 40 0 3 203 c3 187 5 205 25 244 33 62 83 96
149 101 l54 4 0 39 c0 37 -1 39 -32 39 -59 0 -108 -21 -153 -64 l-45 -43 0 54
0 53 -40 0 -40 0 0 -315z"/>
<path d="M8730 1465 l0 -315 40 0 40 0 0 173 c1 189 9 243 45 299 31 46 75 70
140 78 49 5 50 5 53 43 3 37 3 37 -34 37 -63 0 -117 -22 -161 -67 l-43 -42 0
54 0 55 -40 0 -40 0 0 -315z"/>
<path d="M23860 1465 l0 -315 45 0 45 0 0 315 0 315 -45 0 -45 0 0 -315z"/>
</g>
</svg>
