<?xml version="1.0" standalone="no"?>
<!DOCTYPE svg PUBLIC "-//W3C//DTD SVG 20010904//EN"
 "http://www.w3.org/TR/2001/REC-SVG-20010904/DTD/svg10.dtd">
<svg version="1.0" xmlns="http://www.w3.org/2000/svg"
 width="2500.000000pt" height="1000.000000pt" viewBox="0 0 2500.000000 1000.000000"
 preserveAspectRatio="xMidYMid meet">

<g transform="translate(0.000000,1000.000000) scale(0.100000,-0.100000)"
fill="#000000" stroke="none">
<path d="M1308 8843 c-17 -4 -18 -112 -18 -2081 1 -1965 2 -2087 20 -2267 21
-206 35 -304 50 -349 6 -16 10 -41 10 -55 0 -14 7 -39 15 -55 8 -15 15 -36 15
-45 0 -17 25 -97 47 -148 7 -17 13 -38 13 -47 0 -9 5 -16 10 -16 6 0 10 -5 10
-11 0 -5 12 -36 26 -67 14 -31 30 -66 35 -77 5 -11 18 -33 29 -50 11 -16 23
-37 26 -45 4 -8 38 -58 77 -110 146 -199 383 -400 592 -501 28 -13 52 -27 53
-31 2 -5 8 -8 14 -8 5 0 26 -7 46 -16 21 -8 51 -21 67 -28 64 -28 173 -67 205
-73 14 -3 39 -11 57 -19 17 -8 45 -14 61 -14 17 0 34 -4 37 -10 3 -5 23 -10
43 -10 21 0 64 -7 95 -15 32 -8 75 -15 95 -15 20 0 69 -7 107 -15 60 -13 273
-15 1488 -15 l1417 0 -2 528 -3 527 -1330 6 c-1178 5 -1341 7 -1430 22 -164
27 -264 56 -358 103 -16 8 -34 14 -42 14 -7 0 -18 7 -25 15 -7 8 -19 15 -26
15 -20 0 -124 74 -198 140 -44 39 -133 158 -157 210 -38 79 -49 109 -49 128 0
12 -4 23 -9 26 -5 4 -12 25 -16 49 -3 23 -10 53 -15 67 -5 14 -12 50 -16 80
-4 30 -9 1000 -11 2155 -3 1642 -6 2101 -16 2107 -12 8 -1009 9 -1039 1z"/>
<path d="M8755 8839 c-228 -8 -374 -25 -565 -65 -130 -27 -291 -70 -322 -85
-10 -5 -24 -9 -33 -9 -8 0 -29 -6 -47 -14 -18 -8 -53 -22 -78 -31 -25 -9 -57
-23 -72 -31 -14 -8 -33 -14 -42 -14 -9 0 -16 -4 -16 -10 0 -5 -12 -13 -27 -16
-16 -4 -30 -10 -33 -13 -3 -3 -38 -23 -77 -43 -62 -32 -238 -142 -253 -158 -3
-3 -25 -21 -50 -40 -66 -50 -198 -168 -244 -219 -23 -25 -48 -52 -56 -61 -8
-8 -31 -36 -50 -60 -19 -25 -40 -49 -46 -55 -27 -24 -154 -231 -225 -367 -7
-13 -16 -30 -21 -38 -4 -8 -11 -22 -14 -30 -9 -24 -35 -83 -50 -112 -8 -14
-14 -33 -14 -41 0 -8 -7 -28 -15 -43 -8 -16 -15 -37 -15 -46 0 -9 -4 -19 -9
-22 -5 -4 -12 -24 -16 -46 -4 -22 -11 -40 -16 -40 -5 0 -9 -11 -9 -25 0 -14
-7 -42 -15 -62 -8 -19 -15 -46 -15 -60 0 -13 -5 -34 -12 -46 -6 -12 -15 -42
-20 -67 -4 -25 -14 -81 -23 -125 -8 -44 -20 -111 -25 -150 -5 -38 -14 -90 -19
-115 -5 -25 -12 -95 -15 -155 -4 -61 -11 -126 -16 -145 -13 -46 -13 -814 0
-877 6 -26 15 -104 20 -173 11 -128 26 -239 55 -390 30 -155 32 -165 44 -193
6 -16 11 -39 11 -52 0 -12 7 -36 15 -51 8 -16 15 -39 15 -50 0 -12 7 -35 15
-50 8 -16 15 -36 15 -45 0 -15 18 -59 41 -101 5 -10 9 -25 9 -34 0 -9 6 -28
14 -42 7 -15 21 -43 29 -62 25 -57 61 -130 101 -204 41 -76 163 -265 181 -281
6 -5 27 -30 45 -55 44 -59 244 -262 295 -299 22 -16 51 -39 65 -51 26 -23 204
-142 230 -154 8 -3 29 -15 45 -26 17 -11 37 -22 45 -26 8 -3 22 -10 30 -15 8
-5 22 -12 30 -15 25 -11 144 -65 160 -73 9 -5 30 -12 48 -15 17 -4 34 -12 37
-17 4 -5 15 -9 25 -9 11 0 34 -6 52 -14 18 -8 60 -22 93 -31 33 -9 74 -21 91
-26 47 -14 123 -29 194 -40 36 -5 78 -13 94 -19 16 -5 50 -10 75 -10 25 0 81
-7 124 -15 115 -22 1691 -22 1782 0 33 8 77 14 97 15 20 0 48 4 63 10 14 5 49
14 78 19 81 15 141 31 151 42 6 5 19 9 31 9 12 0 30 7 41 15 10 8 28 15 39 15
11 0 29 7 39 15 11 8 26 15 34 15 7 0 20 7 28 15 9 8 24 15 35 15 10 0 19 4
19 9 0 5 12 13 28 19 15 5 51 26 81 46 29 20 55 36 58 36 12 0 153 114 214
172 48 47 199 229 199 240 0 5 11 24 24 41 25 32 112 199 132 253 39 101 91
283 106 369 36 201 42 280 42 535 1 249 -11 428 -34 505 -4 17 -16 66 -25 110
-9 44 -23 95 -31 113 -8 18 -14 41 -14 52 0 10 -4 21 -9 24 -5 3 -12 18 -15
33 -8 31 -86 191 -116 238 -11 17 -23 37 -26 45 -17 39 -125 172 -194 240 -75
74 -126 120 -134 120 -2 0 -28 16 -57 36 -89 59 -282 145 -369 163 -19 4 -45
13 -57 19 -12 7 -35 12 -52 12 -16 0 -42 5 -58 11 -68 26 -258 32 -1075 36
l-848 3 0 -452 c0 -249 4 -458 8 -464 5 -7 206 -11 672 -11 695 -1 879 -7 944
-29 21 -8 49 -14 61 -14 12 0 28 -7 35 -15 7 -8 21 -15 32 -15 19 0 127 -67
173 -107 36 -31 110 -136 137 -193 122 -256 118 -620 -10 -900 -45 -97 -164
-242 -237 -287 -94 -58 -200 -96 -325 -117 -138 -24 -1467 -18 -1635 7 -150
22 -334 63 -349 78 -6 5 -19 9 -31 9 -12 0 -30 7 -41 15 -10 8 -26 15 -34 15
-27 0 -250 119 -250 133 0 4 -5 7 -11 7 -38 0 -299 260 -299 298 0 6 -6 15
-12 19 -16 10 -48 66 -99 173 -22 47 -44 92 -48 100 -5 9 -12 30 -15 48 -4 17
-12 34 -17 37 -5 4 -9 17 -9 29 0 13 -7 37 -15 52 -8 16 -15 39 -15 50 0 12
-7 38 -15 57 -8 20 -15 50 -15 66 0 17 -4 40 -10 53 -11 25 -24 116 -40 268
-5 52 -12 115 -15 140 -3 25 -8 144 -11 265 -7 218 12 580 36 695 5 25 14 74
20 110 25 150 28 169 36 182 4 7 11 30 15 53 7 38 13 59 47 150 17 47 24 64
51 127 12 26 21 52 21 57 0 6 5 11 10 11 6 0 10 9 10 19 0 11 5 23 11 26 5 4
14 17 20 28 22 53 125 190 193 259 48 49 156 134 222 175 32 21 197 100 239
115 110 41 134 48 235 69 30 6 71 15 90 20 102 29 277 33 1630 38 l1395 6 0
530 0 530 -1300 0 c-715 0 -1372 -2 -1460 -6z"/>
<path d="M12410 8315 l0 -535 1693 -3 c1707 -3 1818 -5 1852 -38 5 -5 17 -9
28 -9 51 0 225 -104 290 -173 41 -43 120 -155 133 -187 3 -8 12 -28 19 -45 37
-84 45 -105 45 -122 0 -10 6 -25 13 -31 16 -17 17 -442 1 -463 -6 -8 -15 -31
-18 -53 -4 -21 -11 -46 -15 -55 -5 -9 -16 -34 -26 -56 -9 -22 -21 -47 -26 -55
-5 -8 -12 -22 -16 -30 -16 -36 -116 -160 -150 -186 -21 -15 -40 -31 -43 -34
-9 -11 -65 -45 -116 -71 -61 -31 -96 -44 -194 -71 -74 -21 -95 -21 -1340 -24
-1068 -2 -1282 -5 -1375 -17 -127 -18 -203 -34 -227 -47 -10 -6 -23 -10 -29
-10 -12 0 -134 -58 -174 -83 -39 -23 -160 -153 -180 -192 -11 -22 -23 -42 -27
-45 -3 -3 -10 -18 -13 -33 -4 -15 -11 -30 -16 -33 -5 -3 -9 -14 -9 -24 0 -10
-5 -31 -12 -47 -53 -126 -58 -303 -56 -1673 l3 -1215 533 -3 532 -2 0 1146 c0
1133 0 1147 20 1179 11 18 33 41 48 51 26 18 79 19 1162 25 1194 6 1122 3
1415 49 39 6 74 16 80 21 5 5 18 9 30 9 24 0 109 27 147 46 14 8 34 14 45 14
10 0 27 7 37 15 11 8 28 15 38 15 10 0 18 4 18 9 0 5 12 12 27 16 15 3 30 10
33 13 3 4 25 17 50 30 25 13 59 32 75 42 17 11 37 23 45 27 8 4 57 38 109 76
132 98 167 129 256 232 75 86 155 195 186 255 13 25 26 47 29 50 6 6 65 128
84 175 19 44 37 96 45 130 4 17 13 40 19 52 7 12 12 33 12 46 0 14 7 41 15 60
8 20 15 50 15 67 0 17 4 39 9 48 5 9 12 49 16 87 3 39 11 88 16 110 15 61 5
491 -15 595 -36 198 -37 203 -68 295 -5 17 -14 45 -18 64 -5 18 -13 38 -19 44
-6 6 -11 19 -11 28 0 10 -6 30 -14 46 -8 15 -29 57 -47 93 -113 228 -262 404
-469 554 -58 42 -109 80 -115 84 -15 10 -187 99 -220 113 -11 4 -42 17 -70 29
-81 34 -87 36 -150 54 -33 10 -76 22 -95 29 -19 6 -55 14 -80 18 -189 32 -272
42 -385 49 -71 3 -862 7 -1757 8 l-1628 2 0 -535z"/>
<path d="M18410 8842 c-36 -1 -69 -7 -74 -13 -6 -5 -18 -9 -29 -9 -35 0 -128
-50 -175 -94 -69 -65 -104 -140 -121 -261 -16 -114 -16 -5344 0 -5447 12 -72
24 -110 57 -176 19 -38 100 -117 134 -132 13 -6 30 -14 38 -19 64 -36 43 -36
1450 -39 978 -2 1383 1 1430 9 36 6 97 13 135 16 39 2 81 9 96 14 14 5 56 14
95 19 38 5 98 16 134 25 36 9 81 20 100 24 44 10 105 29 148 47 18 8 41 14 52
14 10 0 21 4 25 9 3 5 20 13 37 17 18 3 39 10 48 14 8 5 76 38 150 74 74 37
144 72 155 79 59 36 191 121 195 126 3 3 39 33 80 66 68 55 238 218 285 276
79 96 217 299 229 337 4 12 12 22 17 22 5 0 9 8 9 19 0 10 7 24 15 31 8 7 15
18 15 24 0 6 18 47 40 90 22 43 40 82 40 88 0 11 23 66 46 111 8 16 14 39 14
51 0 12 7 31 15 42 8 10 15 29 15 42 0 13 5 33 12 45 11 22 16 40 37 142 6 28
15 59 20 70 9 20 26 110 41 220 5 33 13 73 19 88 6 16 11 56 12 90 0 34 6 94
13 132 7 39 14 115 15 170 0 55 6 141 12 191 17 140 -5 803 -30 899 -6 22 -11
67 -11 100 0 33 -7 82 -15 109 -8 27 -15 66 -15 87 0 21 -5 50 -10 65 -6 15
-15 52 -20 83 -5 31 -16 83 -25 116 -9 33 -20 78 -24 100 -5 22 -13 51 -18 65
-6 14 -18 50 -28 80 -18 60 -44 129 -80 215 -28 69 -162 333 -175 345 -3 3
-29 41 -58 86 -29 44 -60 89 -70 100 -9 10 -33 39 -52 64 -52 67 -205 217
-290 285 -41 33 -76 63 -78 68 -2 4 -8 7 -14 7 -6 0 -27 14 -48 30 -21 17 -41
30 -44 30 -3 0 -25 14 -48 30 -22 17 -47 30 -55 30 -7 0 -13 3 -13 8 0 4 -25
18 -55 32 -30 14 -55 28 -55 33 0 4 -7 7 -16 7 -9 0 -28 6 -42 14 -15 7 -45
22 -67 31 -22 10 -48 22 -57 26 -10 5 -46 18 -80 30 -35 11 -72 24 -83 28 -50
20 -217 63 -325 84 -209 42 -339 57 -565 67 -161 6 -2394 9 -2515 2z m2554
-1072 c242 -30 349 -51 474 -91 93 -30 285 -117 302 -138 3 -3 21 -15 40 -25
19 -11 40 -25 45 -31 6 -6 36 -31 68 -54 32 -24 76 -67 100 -95 23 -28 44 -53
47 -56 15 -14 70 -89 70 -95 0 -5 10 -22 23 -39 21 -30 74 -134 105 -206 8
-19 21 -47 29 -62 7 -14 13 -37 13 -50 0 -13 4 -28 9 -33 6 -6 14 -28 20 -50
5 -22 17 -67 26 -100 9 -33 21 -87 26 -120 5 -33 12 -67 15 -75 3 -8 10 -51
14 -95 5 -44 14 -111 19 -150 13 -91 13 -819 0 -910 -5 -38 -14 -104 -19 -145
-10 -86 -33 -208 -56 -295 -8 -33 -20 -78 -25 -100 -6 -22 -14 -44 -20 -49 -5
-6 -9 -19 -9 -29 0 -22 -28 -90 -91 -222 -19 -38 -37 -72 -40 -75 -4 -3 -9
-15 -13 -27 -4 -13 -12 -23 -17 -23 -5 0 -9 -5 -9 -11 0 -33 -244 -299 -274
-299 -6 0 -14 -6 -49 -35 -37 -32 -233 -135 -257 -135 -8 0 -24 -7 -34 -15
-11 -8 -29 -15 -41 -15 -12 0 -25 -4 -31 -9 -5 -5 -31 -14 -59 -20 -27 -7 -77
-19 -110 -27 -183 -45 -236 -47 -1195 -51 l-915 -4 -35 30 -35 29 0 1974 c0
1663 2 1978 14 1992 37 45 17 44 930 45 529 1 896 -3 945 -9z"/>
<path d="M20385 7416 c-112 -20 -177 -41 -276 -92 -225 -116 -390 -326 -459
-584 -20 -74 -24 -116 -27 -331 l-5 -246 -64 -6 c-116 -9 -212 -74 -256 -174
-18 -40 -18 -76 -16 -765 l3 -723 27 -47 c32 -54 88 -101 150 -126 40 -16 119
-17 1098 -17 1052 0 1055 0 1101 21 66 31 114 78 146 142 l28 57 0 705 0 705
-24 53 c-49 109 -158 172 -298 172 l-60 0 -6 243 c-4 217 -7 252 -30 340 -43
164 -121 302 -237 418 -207 207 -510 304 -795 255z m290 -251 c196 -42 366
-176 455 -360 57 -119 70 -198 70 -440 l0 -205 -666 0 -666 0 4 243 c5 263 9
289 71 415 128 262 438 409 732 347z m415 -1538 c283 -215 517 -392 519 -394
3 -2 -4 -10 -15 -17 -10 -8 -248 -187 -529 -399 l-509 -386 -42 32 c-708 535
-1004 761 -1004 767 0 4 165 133 368 286 202 153 436 331 521 396 84 65 159
115 165 111 6 -4 243 -182 526 -396z"/>
<path d="M20467 5689 c-107 -21 -222 -94 -285 -182 l-32 -46 57 -6 c173 -18
344 -64 491 -131 l72 -33 0 30 c0 27 3 29 35 29 32 0 35 -2 35 -29 0 -26 -4
-30 -32 -33 -32 -3 -32 -3 29 -40 33 -21 82 -56 109 -78 29 -23 52 -36 57 -31
5 5 8 56 5 113 -3 94 -7 110 -40 179 -65 138 -190 233 -339 258 -75 13 -95 12
-162 0z"/>
<path d="M20096 5274 c-18 -107 41 -270 130 -359 94 -93 195 -136 324 -136 89
0 143 12 214 48 53 27 166 128 166 148 0 17 -88 98 -152 138 -175 112 -383
182 -579 194 l-97 6 -6 -39z m104 -99 c0 -33 -2 -35 -35 -35 -33 0 -35 2 -35
35 0 33 2 35 35 35 33 0 35 -2 35 -35z m210 5 c0 -29 -8 -35 -40 -30 -41 6
-31 60 11 60 26 0 29 -4 29 -30z m140 -69 c0 -23 -5 -30 -25 -33 -30 -6 -35
-2 -35 34 0 24 4 28 30 28 26 0 30 -3 30 -29z m-280 -76 c0 -33 -2 -35 -35
-35 -33 0 -35 2 -35 35 0 33 2 35 35 35 33 0 35 -2 35 -35z m570 -70 c0 -33
-2 -35 -35 -35 -33 0 -35 2 -35 35 0 33 2 35 35 35 33 0 35 -2 35 -35z m-215
-72 c-1 -24 -7 -28 -33 -31 -30 -3 -32 -1 -32 27 0 28 3 31 33 31 29 0 33 -3
32 -27z"/>
<path d="M3545 2013 c-69 -25 -110 -57 -139 -106 -49 -82 -58 -142 -63 -422
-9 -475 23 -613 162 -684 70 -36 203 -42 263 -12 41 21 102 85 102 108 0 7 5
13 10 13 6 0 10 -12 10 -27 0 -16 3 -45 6 -65 l7 -38 53 0 54 0 0 305 0 305
-155 0 -155 0 0 -60 0 -60 76 0 76 0 -4 -117 c-6 -190 -45 -248 -163 -248 -75
0 -117 24 -142 79 -16 37 -18 74 -18 421 0 417 1 427 59 468 24 17 45 22 96
22 112 0 146 -38 156 -179 l7 -86 80 0 80 0 -6 83 c-12 158 -60 247 -157 290
-65 29 -226 34 -295 10z"/>
<path d="M12041 2004 c-28 -23 -51 -75 -51 -116 0 -15 9 -18 44 -18 39 0 47 4
58 28 19 38 53 39 123 1 81 -43 112 -51 157 -38 44 11 65 44 75 114 l6 45 -44
0 c-40 0 -46 -3 -56 -30 -15 -41 -54 -40 -143 5 -84 42 -127 45 -169 9z"/>
<path d="M1410 1400 l0 -620 245 0 245 0 0 60 0 59 -157 3 -158 3 -3 558 -2
557 -85 0 -85 0 0 -620z"/>
<path d="M5980 1400 l0 -620 80 0 80 0 0 620 0 620 -80 0 -80 0 0 -620z"/>
<path d="M7010 1821 l0 -200 -56 30 c-31 16 -68 29 -83 29 -92 0 -166 -59
-195 -156 -24 -76 -34 -437 -17 -540 24 -136 80 -202 181 -212 61 -6 86 1 133
32 l37 25 0 -24 c0 -25 1 -25 85 -25 l85 0 0 620 0 620 -85 0 -85 0 0 -199z
m-40 -287 l40 -16 0 -298 0 -298 -31 -11 c-18 -6 -49 -11 -69 -11 -84 0 -104
75 -98 373 3 158 6 198 21 224 30 55 66 65 137 37z"/>
<path d="M8350 1401 l0 -621 90 0 90 0 0 290 0 290 98 0 c60 0 119 6 151 16
131 38 203 174 187 351 -13 139 -56 217 -145 260 -55 27 -60 28 -263 31 l-208
3 0 -620z m386 478 c48 -23 66 -75 66 -188 0 -164 -31 -200 -183 -209 l-89 -5
0 213 0 213 88 -5 c49 -3 102 -12 118 -19z"/>
<path d="M13970 1814 l0 -206 -30 26 c-75 62 -191 56 -254 -14 -62 -69 -71
-119 -71 -405 0 -272 8 -321 61 -385 55 -65 176 -78 254 -26 l40 26 0 -25 c0
-25 1 -25 80 -25 l80 0 0 620 0 620 -80 0 -80 0 0 -206z m-40 -280 l40 -16 0
-294 0 -293 -30 -16 c-30 -15 -86 -20 -115 -9 -8 4 -23 21 -33 38 -14 26 -17
67 -20 246 -4 244 4 308 45 340 31 24 60 25 113 4z"/>
<path d="M15310 1400 l0 -620 170 0 c241 0 313 19 384 102 21 24 46 70 58 108
20 60 22 90 26 385 4 357 -4 431 -56 514 -64 104 -148 131 -404 131 l-178 0 0
-620z m379 472 c19 -9 43 -29 53 -43 30 -40 41 -205 35 -517 -5 -260 -6 -275
-29 -320 -33 -67 -70 -85 -177 -86 l-86 -1 -3 493 -2 492 87 0 c64 0 97 -5
122 -18z"/>
<path d="M17110 1813 c0 -196 -1 -205 -18 -190 -25 23 -103 57 -132 57 -95 0
-158 -52 -192 -161 -21 -69 -23 -91 -23 -304 0 -193 3 -239 18 -288 21 -69 73
-131 124 -148 55 -18 135 -7 177 24 43 33 46 33 46 2 0 -25 1 -25 80 -25 l80
0 0 620 0 620 -80 0 -80 0 0 -207z m-40 -283 l40 -20 0 -290 0 -289 -31 -16
c-18 -10 -48 -15 -76 -13 -64 4 -80 29 -94 143 -13 104 -7 396 9 437 27 68 80
85 152 48z"/>
<path d="M19030 1401 l0 -621 85 0 85 0 0 290 0 290 98 0 c138 0 194 18 258
84 42 43 54 64 69 119 37 138 0 327 -78 393 -63 53 -87 58 -309 62 l-208 4 0
-621z m388 472 c46 -34 56 -68 57 -183 0 -166 -29 -199 -187 -208 l-88 -5 0
213 0 213 96 -5 c74 -4 102 -10 122 -25z"/>
<path d="M2660 1885 l0 -85 80 0 80 0 0 85 0 85 -80 0 -80 0 0 -85z"/>
<path d="M22860 1885 l0 -85 80 0 80 0 0 85 0 85 -80 0 -80 0 0 -85z"/>
<path d="M10270 1796 l0 -125 -47 -3 -48 -3 -3 -52 -3 -52 48 -3 48 -3 5 -335
c5 -312 6 -337 25 -369 34 -58 67 -75 150 -79 41 -2 86 -1 100 2 23 6 25 11
25 65 l0 59 -44 -5 c-38 -5 -48 -2 -70 20 l-26 26 0 311 0 310 70 0 70 0 0 55
0 55 -70 0 -70 0 0 125 0 125 -80 0 -80 0 0 -124z"/>
<path d="M2166 1669 c-89 -22 -134 -70 -161 -174 -21 -84 -21 -466 0 -550 18
-67 55 -120 105 -149 41 -24 167 -33 228 -17 90 25 146 109 158 240 l7 71 -80
0 -80 0 -5 -71 c-7 -88 -29 -123 -81 -127 -84 -7 -107 37 -107 208 l0 120 177
0 176 0 -6 128 c-9 188 -38 261 -119 303 -46 24 -154 33 -212 18z m142 -132
c19 -20 31 -81 32 -159 l0 -68 -96 0 -97 0 5 93 c5 100 17 133 51 147 28 12
87 5 105 -13z"/>
<path d="M4336 1669 c-89 -22 -134 -70 -161 -174 -21 -84 -21 -466 0 -550 18
-67 55 -120 105 -149 41 -24 167 -33 228 -17 90 25 146 109 158 240 l7 71 -80
0 -80 0 -5 -71 c-7 -88 -29 -123 -81 -127 -84 -7 -107 37 -107 208 l0 120 177
0 176 0 -6 128 c-9 188 -38 261 -119 303 -46 24 -154 33 -212 18z m142 -132
c19 -20 31 -81 32 -159 l0 -68 -96 0 -97 0 5 93 c5 100 17 133 51 147 28 12
87 5 105 -13z"/>
<path d="M5138 1670 c-46 -14 -94 -48 -119 -85 l-24 -35 -5 58 -5 57 -80 0
-80 0 -3 -442 -2 -443 85 0 85 0 0 326 c0 308 1 327 20 354 28 40 70 54 141
47 l60 -5 -3 86 c-3 95 -8 101 -70 82z"/>
<path d="M5468 1666 c-97 -26 -152 -98 -164 -214 l-7 -62 82 0 81 0 0 45 c0
62 22 101 65 115 27 9 40 9 62 -2 40 -19 53 -53 53 -138 l0 -75 -104 -49
c-125 -58 -176 -99 -210 -169 -78 -162 -3 -347 142 -347 75 0 129 34 165 104
l15 30 6 -32 c3 -18 9 -46 12 -62 l6 -30 75 0 74 0 -6 53 c-4 29 -8 184 -10
343 -3 303 -6 336 -36 396 -46 90 -170 129 -301 94z m138 -723 c-46 -43 -95
-45 -125 -7 -16 20 -21 41 -21 84 0 74 24 111 110 169 l65 43 3 -128 3 -129
-35 -32z"/>
<path d="M7506 1669 c-89 -22 -134 -70 -161 -174 -21 -84 -21 -466 0 -550 18
-67 55 -120 105 -149 41 -24 167 -33 228 -17 90 25 146 109 158 240 l7 71 -80
0 -80 0 -5 -71 c-7 -88 -29 -123 -81 -127 -84 -7 -107 37 -107 208 l0 120 177
0 176 0 -6 128 c-9 188 -38 261 -119 303 -46 24 -154 33 -212 18z m142 -132
c19 -20 31 -81 32 -159 l0 -68 -96 0 -97 0 5 93 c5 100 17 133 51 147 28 12
87 5 105 -13z"/>
<path d="M9399 1671 c-49 -16 -74 -33 -116 -79 l-43 -47 0 63 0 62 -80 0 -80
0 0 -445 0 -445 80 0 80 0 0 321 c0 309 1 322 21 350 33 47 73 62 146 56 l64
-6 -3 87 c-3 95 -9 101 -69 83z"/>
<path d="M9740 1671 c-56 -12 -98 -39 -129 -82 -48 -65 -56 -120 -56 -369 0
-268 10 -318 79 -386 51 -52 105 -68 202 -62 94 6 150 38 186 105 41 74 51
157 46 390 -4 184 -7 214 -26 264 -36 92 -100 137 -205 144 -34 2 -78 0 -97
-4z m125 -133 c37 -33 48 -127 43 -373 -6 -250 -15 -275 -102 -275 -22 0 -40
8 -57 26 l-24 26 -3 268 c-2 231 -1 274 13 300 27 52 87 65 130 28z"/>
<path d="M10847 1666 c-27 -7 -61 -22 -75 -33 -45 -32 -80 -117 -93 -223 -15
-120 -6 -406 15 -473 33 -110 94 -157 213 -165 176 -11 265 69 275 248 l3 65
-77 3 -78 3 0 -38 c-2 -109 -32 -163 -92 -163 -79 0 -98 41 -98 205 l0 125
176 0 177 0 -7 118 c-12 201 -40 273 -122 312 -56 28 -152 35 -217 16z m121
-112 c35 -10 53 -57 59 -155 l6 -89 -97 0 -96 0 0 80 c0 137 39 187 128 164z"/>
<path d="M11487 1667 c-75 -22 -119 -66 -144 -147 -27 -82 -26 -508 0 -593 23
-73 75 -128 140 -146 l47 -14 0 -57 0 -58 42 -7 c78 -13 116 -86 63 -121 -17
-11 -41 -15 -85 -12 l-60 3 0 -42 0 -42 55 -6 c140 -18 235 36 235 135 0 69
-65 130 -139 130 -29 0 -31 2 -31 38 l0 39 55 12 c103 23 155 112 155 264 l0
67 -74 0 -74 0 -4 -91 c-3 -81 -6 -93 -27 -110 -25 -20 -81 -25 -111 -9 -33
17 -42 70 -47 265 -6 240 5 341 42 372 29 25 61 29 98 12 35 -16 47 -49 47
-129 l0 -70 76 0 76 0 -4 88 c-5 118 -33 177 -99 210 -58 29 -165 37 -232 19z"/>
<path d="M12155 1674 c-101 -26 -145 -61 -175 -140 -11 -30 -20 -75 -20 -99
l0 -45 79 0 79 0 4 60 c6 77 30 105 88 104 22 -1 47 -7 55 -14 21 -17 35 -75
35 -146 l0 -61 -87 -38 c-151 -65 -221 -126 -248 -219 -28 -95 -15 -183 37
-242 41 -46 77 -64 130 -64 59 0 107 28 145 83 l31 47 7 -43 c12 -80 9 -77 92
-77 68 0 74 2 68 18 -4 9 -11 175 -14 367 -5 238 -11 359 -19 379 -37 86 -96
125 -200 131 -37 2 -76 2 -87 -1z m145 -567 c0 -134 -7 -154 -60 -182 -41 -21
-73 -19 -97 8 -49 52 -37 150 24 209 37 35 110 86 126 87 4 1 7 -54 7 -122z"/>
<path d="M12777 1666 c-69 -19 -98 -43 -132 -111 l-30 -60 -3 -245 c-3 -204
-1 -255 13 -307 34 -124 116 -179 258 -171 126 6 191 60 223 186 13 52 15 108
12 296 l-3 232 -32 64 c-36 73 -73 103 -143 119 -59 14 -104 13 -163 -3z m126
-117 c46 -21 51 -49 55 -284 4 -263 -1 -319 -33 -351 -44 -44 -116 -28 -141
31 -21 50 -20 511 1 560 20 49 68 67 118 44z"/>
<path d="M14457 1666 c-27 -7 -61 -22 -75 -33 -45 -32 -80 -117 -93 -223 -15
-120 -6 -406 15 -473 33 -110 94 -157 213 -165 176 -11 265 69 275 248 l3 65
-77 3 -78 3 0 -38 c-2 -109 -32 -163 -92 -163 -79 0 -98 41 -98 205 l0 125
176 0 177 0 -7 118 c-12 201 -40 273 -122 312 -56 28 -152 35 -217 16z m121
-112 c35 -10 53 -57 59 -155 l6 -89 -97 0 -96 0 0 80 c0 137 39 187 128 164z"/>
<path d="M16277 1670 c-111 -28 -163 -94 -182 -228 l-7 -52 80 0 79 0 6 51
c10 86 52 126 118 112 44 -9 59 -39 66 -134 l5 -84 -101 -43 c-171 -74 -240
-154 -249 -288 -4 -61 -1 -80 20 -126 32 -70 74 -100 144 -106 69 -6 128 27
164 90 l24 43 11 -60 10 -60 70 -3 71 -3 -4 333 c-2 183 -7 356 -13 383 -15
76 -47 125 -99 152 -52 27 -154 38 -213 23z m163 -564 l0 -124 -31 -31 c-56
-56 -120 -54 -145 4 -28 69 -12 137 48 193 34 33 106 81 121 82 4 0 7 -56 7
-124z"/>
<path d="M17587 1666 c-26 -7 -62 -26 -78 -42 -76 -72 -92 -156 -87 -441 4
-219 13 -270 60 -336 44 -62 185 -95 288 -67 65 17 123 79 146 155 27 86 28
482 2 566 -37 117 -95 165 -214 174 -43 3 -87 0 -117 -9z m127 -116 c53 -20
57 -46 54 -340 l-3 -268 -24 -26 c-17 -18 -35 -26 -57 -26 -87 0 -97 26 -102
267 -2 106 -1 227 3 270 6 66 11 81 35 105 30 30 53 34 94 18z"/>
<path d="M18225 1671 c-105 -26 -155 -95 -155 -214 0 -102 29 -148 171 -269
131 -112 167 -163 155 -221 -9 -46 -43 -77 -83 -77 -65 0 -94 26 -120 110
l-18 56 -62 -19 c-60 -18 -63 -20 -63 -51 0 -45 45 -131 87 -165 47 -39 109
-55 186 -49 117 10 187 67 209 171 15 70 0 141 -42 201 -16 24 -79 90 -140
147 -124 114 -145 145 -136 194 9 45 39 70 86 70 51 0 77 -25 96 -92 8 -29 19
-53 24 -53 5 0 29 9 54 20 43 18 46 22 40 47 -13 59 -53 131 -85 156 -56 41
-131 55 -204 38z"/>
<path d="M19920 1671 c-85 -18 -140 -69 -167 -159 -26 -84 -26 -500 0 -585 35
-115 122 -165 267 -155 139 10 207 85 217 239 l6 80 -79 -3 -79 -3 -6 -79 c-6
-90 -25 -116 -85 -116 -77 0 -102 58 -103 238 l-1 92 176 0 176 0 -5 138 c-6
165 -17 204 -71 258 -56 56 -143 75 -246 55z m127 -135 c27 -23 28 -29 31
-125 l4 -101 -96 0 -96 0 0 33 c1 17 5 63 10 102 7 57 14 74 35 92 34 30 77
29 112 -1z"/>
<path d="M20515 1665 c-95 -25 -153 -121 -142 -231 10 -93 35 -126 220 -288
88 -77 107 -107 107 -166 0 -55 -34 -90 -87 -90 -21 0 -49 7 -62 16 -26 19
-60 87 -61 122 0 26 -6 27 -83 5 l-59 -16 6 -40 c14 -88 89 -176 168 -198 67
-18 168 -7 221 25 63 36 89 82 95 167 8 120 -25 177 -193 330 -55 50 -105 100
-112 112 -16 28 -16 87 0 108 53 69 141 38 167 -58 7 -27 14 -50 16 -52 2 -2
26 5 54 15 l52 19 -6 38 c-19 114 -114 198 -221 196 -16 0 -52 -6 -80 -14z"/>
<path d="M21105 1671 c-105 -26 -155 -95 -155 -214 0 -102 29 -148 171 -269
131 -112 167 -163 155 -221 -9 -46 -43 -77 -83 -77 -65 0 -94 26 -120 110
l-18 56 -62 -19 c-60 -18 -63 -20 -63 -51 0 -45 45 -131 87 -165 47 -39 109
-55 186 -49 117 10 187 67 209 171 15 70 0 141 -42 201 -16 24 -79 90 -140
147 -124 114 -145 145 -136 194 9 45 39 70 86 70 51 0 77 -25 96 -92 8 -29 19
-53 24 -53 5 0 29 9 54 20 43 18 46 22 40 47 -13 59 -53 131 -85 156 -56 41
-131 55 -204 38z"/>
<path d="M21697 1666 c-69 -19 -98 -43 -132 -111 l-30 -60 -3 -245 c-3 -204
-1 -255 13 -307 34 -124 116 -179 258 -171 126 6 191 60 223 186 13 52 15 108
12 296 l-3 232 -32 64 c-36 73 -73 103 -143 119 -59 14 -104 13 -163 -3z m126
-117 c46 -21 51 -49 55 -284 4 -263 -1 -319 -33 -351 -44 -44 -116 -28 -141
31 -21 50 -20 511 1 560 20 49 68 67 118 44z"/>
<path d="M22370 1671 c-97 -20 -158 -82 -179 -182 -22 -100 -22 -99 68 -99
l78 0 6 54 c3 29 11 63 19 75 30 49 123 46 147 -5 6 -14 11 -60 11 -103 l0
-78 -77 -34 c-197 -86 -262 -164 -264 -315 -2 -157 116 -254 244 -200 32 13
97 78 97 96 0 6 4 10 9 10 5 0 12 -25 16 -55 l6 -55 73 0 72 0 -3 208 c-6 388
-11 507 -23 547 -19 61 -84 120 -148 134 -58 12 -98 13 -152 2z m116 -728
c-43 -40 -93 -44 -122 -12 -15 16 -19 36 -19 88 0 82 22 116 109 173 l61 39 3
-128 3 -128 -35 -32z"/>
<path d="M23335 1671 c-105 -26 -155 -95 -155 -214 0 -102 29 -148 171 -269
131 -112 167 -163 155 -221 -9 -46 -43 -77 -83 -77 -65 0 -94 26 -120 110
l-18 56 -62 -19 c-60 -18 -63 -20 -63 -51 0 -45 45 -131 87 -165 47 -39 109
-55 186 -49 117 10 187 67 209 171 15 70 0 141 -42 201 -16 24 -79 90 -140
147 -124 114 -145 145 -136 194 9 45 39 70 86 70 51 0 77 -25 96 -92 8 -29 19
-53 24 -53 5 0 29 9 54 20 43 18 46 22 40 47 -13 59 -53 131 -85 156 -56 41
-131 55 -204 38z"/>
<path d="M2667 1663 c-4 -3 -7 -204 -7 -445 l0 -438 80 0 80 0 0 445 0 445
-73 0 c-41 0 -77 -3 -80 -7z"/>
<path d="M22860 1225 l0 -445 80 0 80 0 0 445 0 445 -80 0 -80 0 0 -445z"/>
</g>
</svg>
