<?xml version="1.0" standalone="no"?>
<!DOCTYPE svg PUBLIC "-//W3C//DTD SVG 20010904//EN"
 "http://www.w3.org/TR/2001/REC-SVG-20010904/DTD/svg10.dtd">
<svg version="1.0" xmlns="http://www.w3.org/2000/svg"
 width="2500.000000pt" height="1000.000000pt" viewBox="0 0 2500.000000 1000.000000"
 preserveAspectRatio="xMidYMid meet">

<g transform="translate(0.000000,1000.000000) scale(0.100000,-0.100000)"
fill="#000000" stroke="none">
<path d="M12685 8910 c-307 -55 -503 -156 -711 -364 -171 -173 -281 -374 -336
-621 -18 -79 -21 -137 -25 -472 l-5 -383 -232 0 c-259 0 -282 -5 -321 -71 -20
-33 -20 -55 -23 -1074 -2 -728 0 -1055 8 -1091 7 -34 21 -60 41 -80 l30 -29
1747 -3 c1238 -1 1755 1 1773 9 15 6 38 31 53 59 l26 48 0 1054 0 1055 -23 44
c-39 75 -56 79 -320 78 -126 0 -230 1 -232 3 -2 2 -5 183 -7 403 l-5 400 -36
123 c-60 199 -127 329 -242 466 -138 164 -281 273 -456 347 -41 17 -78 35 -84
39 -11 8 -157 46 -215 55 -19 3 -48 8 -65 11 -72 15 -243 12 -340 -6z m405
-346 c317 -82 557 -303 660 -609 43 -126 50 -210 50 -567 l0 -318 -925 0 -925
0 0 344 c0 405 8 469 74 617 54 120 107 199 194 286 118 120 266 204 432 247
134 34 306 34 440 0z m280 -1961 c289 -192 653 -434 808 -537 156 -104 280
-192 275 -196 -4 -4 -105 -73 -223 -152 -358 -240 -779 -524 -1083 -729 -158
-107 -294 -198 -302 -204 -11 -7 -98 47 -352 218 -186 124 -551 370 -812 545
-261 175 -474 321 -473 326 1 14 1607 1085 1622 1082 8 -2 251 -161 540 -353z"/>
<path d="M12681 6580 c-201 -53 -350 -170 -449 -353 l-32 -58 58 6 c166 17
400 8 532 -21 231 -50 517 -196 673 -343 52 -49 60 -35 53 99 -10 218 -106
409 -270 542 -156 125 -380 176 -565 128z"/>
<path d="M12236 6070 c-33 -6 -63 -13 -68 -18 -13 -13 -25 -125 -22 -208 4
-101 33 -212 79 -305 198 -395 695 -505 1033 -228 34 28 83 79 108 113 49 64
114 188 114 217 0 43 -234 214 -400 293 -208 98 -370 135 -615 141 -93 2 -197
0 -229 -5z"/>
<path d="M8937 4512 l-198 -2 4 -853 c3 -841 3 -853 25 -937 65 -248 208 -409
443 -500 143 -55 208 -60 802 -60 l537 0 0 200 c0 110 -3 200 -7 201 -5 0
-235 2 -513 3 -558 3 -585 6 -702 68 -95 51 -147 131 -167 258 -7 41 -11 350
-11 842 0 427 -3 778 -7 780 -5 2 -97 2 -206 0z"/>
<path d="M11565 4509 c-379 -20 -643 -163 -808 -437 -192 -319 -219 -969 -57
-1363 89 -214 264 -385 482 -469 181 -70 260 -80 651 -80 374 0 423 7 567 77
238 116 353 329 353 658 1 342 -142 565 -410 642 -48 13 -122 17 -415 21
l-358 4 0 -181 0 -180 318 -3 c302 -3 319 -4 357 -25 52 -28 79 -57 107 -118
20 -43 23 -66 23 -160 0 -100 -3 -115 -28 -167 -16 -32 -47 -73 -70 -93 -73
-63 -114 -69 -437 -69 -311 0 -378 7 -498 54 -123 48 -201 123 -264 257 -53
111 -71 231 -71 458 0 242 18 349 82 478 86 173 224 261 450 287 47 5 312 10
589 10 l502 0 0 200 c0 110 -3 200 -7 201 -41 4 -967 2 -1058 -2z"/>
<path d="M12970 4512 c-6 -2 -10 -79 -10 -202 l0 -199 663 -3 c496 -3 671 -7
699 -16 104 -35 185 -150 195 -275 12 -139 -57 -266 -175 -324 l-57 -28 -540
-5 c-529 -5 -541 -6 -595 -28 -67 -26 -121 -79 -152 -147 -23 -50 -23 -51 -26
-587 l-3 -538 206 0 205 0 0 438 c0 257 4 443 10 452 8 13 76 16 477 21 439 5
473 6 546 27 201 55 359 184 442 357 45 96 65 181 72 305 21 393 -185 666
-555 736 -74 14 -182 16 -740 18 -358 0 -657 0 -662 -2z"/>
<path d="M15250 4509 c-74 -8 -116 -31 -140 -79 -20 -39 -20 -53 -18 -1104 3
-1058 3 -1065 24 -1092 11 -15 33 -37 48 -48 27 -20 40 -21 549 -24 558 -4
635 1 785 44 94 27 223 89 291 138 59 43 157 147 201 211 43 62 101 196 129
296 84 300 75 744 -20 1033 -117 351 -367 555 -751 612 -89 13 -204 16 -577
18 -256 0 -491 -2 -521 -5z m1083 -422 c89 -21 198 -79 259 -139 131 -127 200
-435 169 -757 -37 -376 -161 -542 -455 -608 -56 -12 -145 -16 -416 -18 -190
-1 -355 2 -367 6 l-23 9 0 754 c0 708 1 756 18 766 29 18 730 7 815 -13z"/>
<path d="M9777 1850 c-21 -4 -51 -20 -67 -35 -42 -40 -53 -106 -48 -304 3
-144 6 -170 23 -200 30 -51 65 -73 119 -73 55 -1 86 13 109 50 l16 27 1 -37
c0 -34 3 -38 25 -38 15 0 25 6 26 15 0 8 1 71 1 140 0 69 -1 130 -1 135 -1 6
-33 10 -77 10 l-75 0 3 -27 c2 -20 9 -28 23 -29 11 -1 28 -2 38 -3 36 -2 16
-150 -23 -171 -30 -16 -79 -11 -99 9 -27 27 -33 83 -29 268 4 188 10 203 83
203 55 0 75 -22 75 -83 l0 -47 41 0 42 0 -6 57 c-6 61 -29 101 -68 119 -34 16
-88 22 -132 14z"/>
<path d="M8710 1545 l0 -305 118 0 119 0 -2 28 c-1 27 -2 27 -78 30 l-77 3 0
274 0 275 -40 0 -40 0 0 -305z"/>
<path d="M10960 1545 l0 -305 40 0 40 0 0 305 0 305 -40 0 -40 0 0 -305z"/>
<path d="M11470 1749 l0 -100 -22 15 c-12 9 -37 16 -56 16 -69 0 -102 -75
-102 -228 1 -151 31 -212 103 -212 24 0 48 7 59 17 17 15 18 15 18 0 0 -13 9
-17 40 -17 l40 0 0 305 0 305 -40 0 -40 0 0 -101z m-12 -137 c9 -7 12 -45 10
-158 l-3 -149 -38 -3 c-32 -3 -38 0 -47 23 -17 44 -13 247 6 273 15 22 48 29
72 14z"/>
<path d="M12130 1545 l0 -305 40 0 39 0 3 143 3 142 65 5 c77 6 116 27 136 75
20 48 17 122 -6 173 -26 58 -62 72 -185 72 l-95 0 0 -305z m202 228 c14 -12
18 -31 18 -83 0 -82 -15 -101 -87 -103 l-48 -2 -3 103 -3 102 52 0 c35 0 59
-6 71 -17z"/>
<path d="M13943 1838 c-6 -7 -13 -23 -16 -35 -4 -18 -1 -23 15 -23 12 0 26 8
33 17 12 16 16 16 64 -6 42 -20 55 -22 76 -13 14 6 25 18 25 26 0 8 3 21 6 30
4 12 0 16 -15 16 -12 0 -24 -7 -27 -15 -8 -19 -43 -19 -68 0 -24 18 -80 20
-93 3z"/>
<path d="M14900 1749 l0 -100 -22 15 c-12 9 -37 16 -56 16 -69 0 -102 -75
-102 -228 1 -151 31 -212 103 -212 24 0 48 7 59 17 17 15 18 15 18 0 0 -13 9
-17 40 -17 l40 0 0 305 0 305 -40 0 -40 0 0 -101z m-12 -137 c9 -7 12 -45 10
-158 l-3 -149 -38 -3 c-32 -3 -38 0 -47 23 -17 44 -13 247 6 273 15 22 48 29
72 14z"/>
<path d="M15560 1545 l0 -307 103 4 c190 8 206 32 207 308 0 157 -3 190 -18
219 -32 63 -60 75 -183 79 l-109 4 0 -307z m201 226 c23 -19 24 -24 27 -202 2
-100 1 -193 -3 -206 -10 -43 -40 -63 -95 -63 l-50 0 0 245 0 245 49 0 c33 0
56 -6 72 -19z"/>
<path d="M16450 1750 l0 -101 -30 16 c-52 27 -108 13 -131 -34 -15 -30 -24
-230 -14 -298 9 -59 41 -93 90 -93 20 0 46 5 58 11 16 9 22 9 25 0 2 -6 19
-11 38 -11 l34 0 0 305 0 305 -35 0 -35 0 0 -100z m-19 -140 c17 -10 19 -23
19 -154 0 -155 0 -156 -55 -156 -42 0 -50 24 -50 154 0 130 10 166 46 166 11
0 29 -5 40 -10z"/>
<path d="M9330 1780 c0 -39 1 -40 35 -40 34 0 35 1 35 40 0 39 -1 40 -35 40
-34 0 -35 -1 -35 -40z"/>
<path d="M13077 1793 c-2 -5 -3 -30 -2 -56 1 -45 -8 -65 -30 -66 -5 0 -11 -9
-13 -21 -3 -15 2 -20 17 -20 25 0 23 13 26 -160 3 -191 3 -184 25 -208 16 -17
32 -22 70 -22 48 0 50 1 50 29 0 23 -4 28 -19 24 -10 -2 -26 3 -35 12 -14 15
-16 38 -14 168 l3 152 33 3 c26 3 32 8 32 26 0 19 -5 22 -32 22 l-33 -1 -3 63
-3 62 -34 0 c-19 0 -36 -3 -38 -7z"/>
<path d="M9049 1665 c-38 -21 -51 -60 -57 -174 -9 -187 21 -251 119 -251 85 0
115 25 126 105 l6 45 -36 0 c-32 0 -35 -3 -42 -37 -8 -45 -21 -63 -45 -63 -34
0 -50 33 -50 103 l0 67 85 0 85 0 0 53 c0 116 -37 167 -119 167 -25 -1 -58 -7
-72 -15z m112 -76 c4 -13 7 -39 8 -56 1 -33 1 -33 -49 -33 l-50 0 0 45 c0 56
27 89 62 76 12 -4 26 -19 29 -32z"/>
<path d="M9335 1672 c-3 -3 -5 -101 -5 -219 l0 -213 35 0 35 0 -2 217 -3 217
-27 1 c-15 1 -30 0 -33 -3z"/>
<path d="M10119 1665 c-38 -21 -51 -60 -57 -174 -9 -187 21 -251 119 -251 85
0 115 25 126 105 l6 45 -36 0 c-32 0 -35 -3 -42 -37 -8 -45 -21 -63 -45 -63
-34 0 -50 33 -50 103 l0 67 85 0 85 0 0 53 c0 116 -37 167 -119 167 -25 -1
-58 -7 -72 -15z m112 -76 c4 -13 7 -39 8 -56 1 -33 1 -33 -49 -33 l-50 0 0 45
c0 56 27 89 62 76 12 -4 26 -19 29 -32z"/>
<path d="M10395 1672 c-3 -3 -5 -101 -5 -219 l0 -213 40 0 40 0 0 163 c0 185
4 197 73 197 36 0 37 1 37 40 0 29 -4 40 -15 40 -24 0 -73 -28 -84 -47 -9 -15
-10 -14 -11 10 0 15 -3 27 -7 28 -36 5 -64 5 -68 1z"/>
<path d="M10684 1666 c-30 -14 -50 -47 -56 -96 -3 -22 1 -25 35 -28 35 -3 37
-2 37 25 0 36 16 53 51 53 31 0 39 -15 39 -70 0 -37 -3 -40 -47 -60 -87 -39
-133 -104 -119 -173 16 -78 101 -105 149 -48 l25 30 6 -30 c5 -25 10 -29 38
-29 l33 0 -3 162 c-3 206 -6 221 -43 252 -35 30 -93 34 -145 12z m106 -268 c0
-43 -5 -67 -17 -80 -33 -37 -73 -16 -73 40 0 27 8 42 36 68 19 19 40 34 45 34
5 0 9 -28 9 -62z"/>
<path d="M11670 1653 c-39 -35 -54 -120 -46 -247 10 -136 33 -166 126 -166 28
0 60 5 71 10 26 15 49 62 49 105 0 33 -2 35 -35 35 -32 0 -35 -3 -35 -28 0
-35 -26 -72 -50 -72 -32 0 -50 39 -50 107 l0 63 85 0 85 0 0 66 c0 113 -34
154 -125 154 -35 0 -52 -6 -75 -27z m120 -54 c6 -10 10 -36 10 -58 l0 -41 -50
0 -50 0 0 34 c0 19 4 46 9 60 15 38 62 42 81 5z"/>
<path d="M12495 1672 c-3 -3 -5 -101 -5 -219 l0 -213 40 0 40 0 0 163 c0 185
4 197 73 197 36 0 37 1 37 40 0 29 -4 40 -15 40 -24 0 -73 -28 -84 -47 -9 -15
-10 -14 -11 10 0 15 -3 27 -7 28 -36 5 -64 5 -68 1z"/>
<path d="M12779 1665 c-43 -23 -54 -66 -54 -210 0 -178 20 -215 119 -215 105
0 126 35 126 217 0 141 -13 187 -60 210 -33 17 -99 16 -131 -2z m112 -76 c13
-44 9 -242 -4 -269 -17 -33 -51 -37 -71 -8 -13 18 -16 49 -16 150 0 114 2 130
20 148 25 25 62 14 71 -21z"/>
<path d="M13340 1667 c-47 -23 -60 -69 -60 -210 0 -183 20 -217 129 -217 62 0
98 27 107 78 3 20 8 45 11 55 4 14 -2 17 -36 17 -40 0 -41 -1 -41 -34 0 -35
-21 -66 -44 -66 -34 0 -48 27 -54 98 l-5 72 93 0 93 0 -7 71 c-9 87 -21 116
-57 135 -34 17 -95 18 -129 1z m108 -116 l3 -51 -50 0 c-56 0 -56 1 -44 73 7
45 36 63 68 42 15 -9 21 -25 23 -64z"/>
<path d="M13653 1668 c-44 -21 -57 -72 -57 -213 0 -150 12 -187 70 -211 25
-11 34 -20 34 -38 0 -17 9 -27 30 -36 18 -7 30 -20 30 -31 0 -22 -35 -43 -61
-36 -13 4 -19 0 -19 -13 0 -42 112 -28 133 17 16 35 -8 76 -48 83 -43 7 -41
41 2 52 42 11 60 39 69 106 l7 52 -37 0 c-33 0 -36 -3 -36 -27 0 -50 -12 -73
-38 -80 -19 -5 -30 0 -44 18 -17 21 -19 37 -16 157 3 119 5 135 22 148 26 18
32 18 56 -6 12 -12 20 -33 20 -55 0 -33 2 -35 35 -35 32 0 35 3 35 28 0 55
-20 101 -50 117 -33 17 -104 19 -137 3z"/>
<path d="M13975 1671 c-33 -14 -56 -47 -62 -90 l-6 -41 37 0 c30 0 36 4 36 21
0 37 19 59 50 59 34 0 38 -5 46 -62 l6 -44 -48 -21 c-27 -11 -64 -32 -81 -47
-81 -68 -56 -206 38 -206 29 0 43 6 62 30 l25 30 7 -30 c6 -26 11 -30 38 -30
l32 0 -3 178 c-2 97 -8 190 -14 205 -19 48 -102 72 -163 48z m105 -269 c0 -49
-4 -62 -24 -81 -45 -42 -92 4 -70 68 9 23 66 71 85 71 5 0 9 -26 9 -58z"/>
<path d="M14290 1667 c-46 -23 -60 -69 -60 -205 0 -180 24 -222 128 -222 97 0
127 60 120 245 -5 121 -17 159 -59 181 -34 17 -95 18 -129 1z m108 -205 c2
-117 0 -143 -13 -156 -20 -20 -35 -20 -60 -2 -16 12 -19 29 -21 132 -3 167 15
213 71 179 18 -11 20 -25 23 -153z"/>
<path d="M15120 1667 c-47 -23 -60 -69 -60 -210 0 -183 20 -217 129 -217 62 0
98 27 107 78 3 20 8 45 11 55 4 14 -2 17 -36 17 -40 0 -41 -1 -41 -34 0 -35
-21 -66 -44 -66 -34 0 -48 27 -54 98 l-5 72 93 0 93 0 -7 71 c-9 87 -21 116
-57 135 -34 17 -95 18 -129 1z m108 -116 l3 -51 -50 0 c-56 0 -56 1 -44 73 7
45 36 63 68 42 15 -9 21 -25 23 -64z"/>
<path d="M16015 1671 c-33 -14 -56 -47 -62 -90 l-6 -41 37 0 c30 0 36 4 36 21
0 37 19 59 50 59 34 0 38 -5 46 -62 l6 -44 -48 -21 c-27 -11 -64 -32 -81 -47
-81 -68 -56 -206 38 -206 29 0 43 6 62 30 l25 30 7 -30 c6 -26 11 -30 38 -30
l32 0 -3 178 c-2 97 -8 190 -14 205 -19 48 -102 72 -163 48z m105 -269 c0 -49
-4 -62 -24 -81 -45 -42 -92 4 -70 68 9 23 66 71 85 71 5 0 9 -26 9 -58z"/>
<path d="M16659 1665 c-43 -23 -54 -66 -54 -210 0 -178 20 -215 119 -215 105
0 126 35 126 217 0 141 -13 187 -60 210 -33 17 -99 16 -131 -2z m112 -76 c13
-44 9 -242 -4 -269 -17 -33 -51 -37 -71 -8 -13 18 -16 49 -16 150 0 114 2 130
20 148 25 25 62 14 71 -21z"/>
<path d="M16973 1670 c-38 -15 -56 -55 -50 -108 5 -43 11 -53 81 -118 62 -58
76 -78 76 -102 0 -64 -70 -69 -96 -6 -13 32 -18 35 -42 29 -15 -4 -29 -8 -31
-10 -9 -10 13 -61 39 -86 23 -24 37 -29 75 -29 56 0 97 20 113 55 29 63 6 114
-88 202 -58 53 -71 81 -52 109 22 33 75 15 86 -30 4 -18 11 -23 26 -19 11 3
23 9 25 14 9 14 -22 76 -46 93 -25 17 -80 20 -116 6z"/>
</g>
</svg>
