<?xml version="1.0" standalone="no"?>
<!DOCTYPE svg PUBLIC "-//W3C//DTD SVG 20010904//EN"
 "http://www.w3.org/TR/2001/REC-SVG-20010904/DTD/svg10.dtd">
<svg version="1.0" xmlns="http://www.w3.org/2000/svg"
 width="2500.000000pt" height="1000.000000pt" viewBox="0 0 2500.000000 1000.000000"
 preserveAspectRatio="xMidYMid meet">

<g transform="translate(0.000000,1000.000000) scale(0.100000,-0.100000)"
fill="#000000" stroke="none">
<path d="M3800 8695 c-36 -13 -84 -24 -107 -24 l-43 -1 0 -92 c0 -145 -5 -138
110 -138 73 0 105 4 131 18 30 15 66 17 290 17 231 0 259 -2 276 -17 16 -15
38 -18 120 -18 l100 0 6 106 c4 58 5 109 2 114 -2 4 -33 11 -67 14 -34 4 -81
16 -105 27 -39 17 -66 19 -345 18 -291 -1 -306 -2 -368 -24z"/>
<path d="M3220 8599 c0 -16 -65 -39 -113 -39 -30 0 -53 -7 -72 -22 -16 -13
-51 -25 -83 -29 -33 -5 -63 -16 -76 -28 -13 -12 -42 -23 -72 -27 -31 -4 -55
-14 -65 -26 -9 -12 -33 -22 -60 -25 -25 -3 -56 -16 -72 -29 -16 -13 -36 -24
-45 -24 -9 0 -37 -14 -61 -30 -24 -17 -53 -30 -65 -30 -12 0 -27 -9 -33 -19
-7 -11 -27 -22 -45 -26 -27 -6 -88 -56 -88 -72 0 -2 11 -19 25 -37 14 -18 25
-38 25 -44 0 -6 11 -22 25 -36 14 -14 25 -32 25 -41 0 -18 7 -18 66 -4 25 7
49 20 55 30 5 11 18 19 29 19 10 0 32 11 48 25 17 14 45 28 63 32 19 3 40 15
49 25 9 11 36 22 66 27 29 4 59 16 71 28 11 11 39 23 62 27 23 3 55 16 71 27
15 12 50 24 76 27 30 3 54 12 64 24 11 14 35 21 87 26 56 6 78 14 99 33 25 23
26 26 19 108 -6 74 -9 87 -35 112 -30 31 -40 35 -40 18z"/>
<path d="M5076 8593 c-4 -10 -13 -29 -21 -43 -7 -14 -15 -57 -16 -96 -3 -68
-2 -72 26 -96 22 -20 44 -27 93 -31 46 -3 70 -11 86 -26 12 -12 36 -21 52 -21
42 0 94 -17 108 -35 6 -8 32 -19 58 -23 25 -5 58 -19 73 -31 15 -11 38 -21 51
-21 13 0 33 -11 45 -24 12 -14 37 -26 59 -30 24 -4 43 -14 49 -25 6 -10 27
-22 48 -26 20 -4 50 -18 66 -31 16 -13 37 -24 48 -24 11 0 29 -4 39 -10 15 -8
20 -5 28 19 6 16 19 34 30 40 12 6 22 26 26 52 5 29 12 43 26 46 26 7 26 30 1
38 -11 3 -23 15 -26 26 -4 13 -15 19 -36 19 -18 0 -39 9 -54 24 -13 13 -36 27
-51 30 -15 4 -41 18 -57 32 -18 15 -41 24 -63 24 -24 0 -38 6 -49 24 -11 16
-28 25 -58 29 -23 3 -48 14 -57 25 -9 11 -35 21 -65 25 -27 4 -58 16 -69 26
-12 11 -48 24 -80 30 -33 6 -68 19 -78 28 -12 10 -45 20 -84 24 -46 5 -72 13
-88 28 -27 26 -51 27 -60 4z"/>
<path d="M3710 8056 c-36 -18 -68 -25 -155 -30 -88 -6 -114 -11 -130 -26 -15
-14 -42 -21 -95 -26 -57 -5 -82 -13 -103 -30 -20 -17 -41 -24 -69 -24 -28 0
-49 -7 -68 -24 -16 -13 -49 -27 -77 -31 -29 -4 -53 -14 -61 -26 -8 -12 -31
-21 -62 -25 -33 -4 -55 -14 -69 -30 -12 -13 -32 -24 -45 -24 -14 0 -31 -8 -38
-18 -16 -23 -51 -42 -77 -42 -11 0 -22 -8 -26 -18 -3 -11 -23 -24 -48 -32 -23
-7 -48 -21 -55 -31 -7 -10 -21 -19 -31 -19 -9 0 -27 -11 -39 -25 -12 -13 -33
-27 -46 -31 -14 -3 -32 -17 -41 -30 -8 -13 -24 -24 -34 -24 -10 0 -26 -11 -35
-25 -9 -14 -22 -25 -29 -25 -7 0 -26 -13 -42 -30 -16 -16 -37 -30 -47 -30 -10
0 -21 -8 -25 -17 -7 -21 -80 -93 -94 -93 -5 0 -14 -11 -19 -25 -6 -15 -17 -25
-30 -25 -13 0 -20 -7 -20 -20 0 -12 -10 -24 -24 -30 -13 -5 -27 -17 -30 -28
-4 -10 -18 -24 -31 -30 -14 -6 -25 -19 -25 -27 0 -9 -11 -20 -25 -25 -14 -5
-25 -16 -25 -25 0 -8 -9 -20 -21 -27 -11 -7 -29 -30 -40 -51 -11 -21 -26 -40
-34 -43 -7 -3 -16 -16 -19 -29 -3 -13 -15 -27 -26 -30 -11 -3 -20 -13 -20 -21
0 -8 -11 -25 -24 -37 -14 -13 -28 -35 -32 -51 -3 -15 -17 -34 -30 -43 -13 -8
-24 -22 -24 -30 0 -8 -11 -24 -23 -36 -13 -12 -27 -35 -31 -51 -4 -17 -18 -40
-32 -53 -13 -12 -24 -33 -24 -48 0 -14 -11 -34 -25 -47 -16 -14 -25 -32 -25
-50 0 -17 -10 -39 -24 -53 -13 -13 -26 -39 -30 -59 -4 -19 -16 -42 -26 -49
-13 -9 -22 -31 -27 -63 -3 -27 -17 -65 -30 -84 -12 -19 -23 -46 -23 -60 0 -38
-19 -98 -34 -107 -8 -5 -16 -37 -19 -77 -5 -49 -12 -75 -26 -90 -15 -16 -21
-41 -26 -111 -7 -99 -18 -149 -40 -192 -12 -23 -15 -96 -15 -443 l0 -415 24
-45 c18 -36 25 -68 30 -155 6 -89 11 -114 26 -130 15 -16 22 -42 27 -101 5
-65 10 -83 30 -101 15 -15 23 -33 23 -57 0 -20 10 -50 24 -70 13 -19 26 -56
30 -83 4 -32 13 -52 26 -60 13 -9 21 -29 26 -63 4 -34 13 -54 25 -60 10 -6 21
-25 24 -44 4 -19 17 -43 30 -54 13 -12 27 -37 30 -56 5 -22 14 -38 26 -41 24
-8 33 -73 26 -193 -4 -72 -10 -102 -25 -121 -13 -18 -22 -56 -29 -119 -8 -69
-16 -99 -31 -115 -16 -18 -21 -40 -24 -111 -4 -74 -8 -92 -25 -105 -16 -14
-21 -33 -25 -105 -5 -67 -11 -95 -26 -116 -15 -20 -23 -53 -30 -123 -7 -72
-14 -102 -31 -122 -16 -22 -21 -41 -21 -91 l0 -64 64 0 c49 0 69 5 90 21 21
16 51 24 119 31 61 7 99 16 116 29 19 14 51 21 119 26 77 5 95 10 107 26 11
15 33 22 107 30 62 7 101 16 118 29 18 13 51 20 110 24 64 5 90 11 106 26 17
15 44 21 130 27 133 10 194 -1 194 -33 0 -8 16 -16 38 -20 22 -3 51 -17 66
-31 16 -15 39 -25 57 -25 22 0 32 -7 41 -25 7 -16 19 -25 33 -25 33 0 83 -20
88 -34 3 -8 27 -17 53 -21 28 -4 60 -17 77 -31 17 -14 41 -24 60 -24 44 0 105
-18 114 -34 5 -8 37 -16 77 -19 48 -5 76 -12 90 -26 16 -14 42 -21 101 -26
113 -8 144 -14 193 -36 40 -19 65 -19 465 -17 382 3 425 5 440 20 18 18 49 23
187 33 58 5 88 11 95 22 12 17 78 32 142 33 31 0 46 5 57 21 10 15 29 23 62
27 26 3 62 15 80 27 18 13 55 26 81 30 29 4 53 14 60 25 8 12 32 22 61 26 30
4 55 15 69 30 12 13 33 24 46 24 15 0 31 10 41 25 11 17 29 27 55 31 26 4 41
12 44 24 3 12 21 23 46 30 22 6 45 20 51 30 6 11 19 20 29 20 10 0 32 14 49
30 18 17 39 30 48 30 9 0 25 11 36 25 11 14 28 25 38 25 10 0 21 9 25 19 3 11
14 23 24 26 10 3 33 19 51 35 19 17 40 30 47 30 7 0 19 11 25 25 6 13 19 27
29 30 9 3 24 17 33 30 9 14 22 25 30 25 7 0 18 11 24 25 6 14 19 25 27 25 9 0
20 11 25 25 5 14 16 25 25 25 9 0 20 11 25 24 5 13 18 27 29 31 12 3 21 13 21
20 0 8 11 22 25 31 13 9 27 24 30 34 3 11 15 22 26 25 10 4 25 21 33 39 7 18
25 44 40 59 14 14 26 30 26 36 0 5 9 13 20 16 11 3 20 15 20 25 0 10 11 27 25
38 14 11 25 27 25 36 0 9 14 30 30 48 17 17 30 36 30 43 0 7 9 20 20 30 11 10
25 35 30 56 6 22 18 40 29 44 12 3 21 19 25 43 3 23 16 47 31 60 16 14 25 32
25 50 0 17 10 38 24 51 13 12 26 39 30 61 3 21 14 45 24 52 12 8 21 32 25 62
4 28 16 59 27 71 11 12 23 42 26 71 4 27 16 67 29 89 14 25 24 65 28 105 4 47
11 69 25 80 15 13 20 34 25 117 4 74 12 117 29 155 23 52 23 57 23 473 0 414
0 420 -22 455 -17 28 -23 58 -29 150 -6 94 -10 117 -26 130 -14 11 -21 36 -27
98 -7 63 -14 89 -30 106 -13 14 -21 35 -21 56 0 20 -10 49 -25 70 -15 22 -28
58 -32 88 -4 37 -11 53 -23 57 -19 6 -30 33 -30 74 0 13 -11 36 -25 53 -14 16
-25 40 -25 53 0 13 -10 29 -25 39 -17 11 -27 29 -31 55 -4 26 -12 41 -24 44
-12 3 -23 21 -30 46 -6 22 -20 45 -30 51 -11 6 -20 19 -20 29 0 10 -13 32 -30
49 -16 18 -30 39 -30 48 0 9 -11 25 -25 36 -14 11 -25 28 -25 38 0 10 -9 21
-19 25 -11 3 -23 14 -26 24 -3 10 -19 33 -35 51 -17 19 -30 40 -30 47 0 7 -11
19 -25 25 -13 6 -27 19 -30 29 -3 9 -17 24 -30 33 -14 9 -25 22 -25 30 0 7
-11 18 -25 24 -14 6 -25 19 -25 27 0 9 -11 20 -25 25 -14 5 -25 16 -25 25 0 9
-11 20 -24 25 -13 5 -27 18 -31 29 -3 12 -13 21 -20 21 -8 0 -22 11 -31 25 -9
13 -24 27 -34 30 -11 3 -22 15 -25 26 -4 10 -21 25 -39 33 -18 7 -44 25 -59
40 -14 14 -30 26 -36 26 -5 0 -13 9 -16 20 -3 11 -15 20 -25 20 -10 0 -27 11
-38 25 -11 14 -27 25 -36 25 -9 0 -30 14 -48 30 -17 17 -36 30 -43 30 -7 0
-20 9 -30 20 -10 11 -35 25 -56 30 -22 6 -40 18 -44 29 -3 12 -19 21 -43 25
-23 3 -47 16 -60 31 -14 16 -32 25 -51 25 -19 0 -36 8 -48 23 -10 14 -35 27
-55 31 -21 4 -44 16 -51 26 -9 13 -31 22 -63 27 -27 3 -65 17 -84 30 -19 12
-46 23 -60 23 -41 0 -101 20 -107 36 -3 9 -20 14 -52 14 -57 0 -118 16 -128
34 -5 9 -47 17 -123 24 -77 7 -130 17 -160 31 -43 20 -62 21 -455 21 l-410 0
-45 -24z"/>
<path d="M6373 7959 c-3 -10 -16 -25 -29 -34 -13 -8 -24 -24 -24 -34 0 -10 -7
-21 -14 -24 -42 -16 -55 -127 -15 -127 10 0 26 -11 35 -25 9 -14 21 -25 26
-25 10 0 70 -47 119 -92 16 -16 34 -28 40 -28 5 0 14 -11 19 -25 5 -14 16 -25
25 -25 8 0 20 -11 26 -24 6 -13 20 -27 31 -29 11 -3 22 -14 25 -25 2 -11 16
-25 29 -31 13 -6 24 -18 24 -26 0 -9 11 -20 25 -25 14 -5 25 -14 25 -19 0 -6
12 -24 28 -40 45 -49 92 -109 92 -119 0 -5 11 -17 25 -26 14 -9 25 -25 25 -35
0 -41 107 -29 123 14 4 8 13 15 22 15 17 0 85 63 85 79 0 6 -13 24 -30 41 -16
17 -30 37 -30 45 0 8 -7 15 -16 15 -8 0 -20 14 -25 30 -6 17 -17 30 -25 30 -8
0 -19 11 -25 24 -6 13 -20 27 -30 29 -11 3 -22 13 -26 24 -10 24 -33 49 -140
156 -120 120 -139 137 -152 137 -6 0 -17 14 -26 30 -9 17 -22 30 -31 30 -8 0
-19 11 -24 25 -6 16 -17 25 -31 25 -12 0 -23 8 -26 19 -3 11 -18 24 -33 30
-15 5 -31 18 -34 29 -9 27 -57 36 -63 11z"/>
<path d="M1896 7945 c-9 -14 -23 -25 -30 -25 -8 0 -21 -11 -30 -25 -9 -14 -21
-25 -26 -25 -14 0 -90 -75 -90 -89 0 -6 -4 -11 -10 -11 -5 0 -25 -16 -44 -35
-20 -19 -40 -35 -45 -35 -13 0 -161 -153 -161 -167 0 -7 -11 -20 -25 -29 -13
-9 -27 -24 -30 -33 -3 -10 -17 -23 -30 -29 -14 -6 -25 -19 -25 -27 0 -9 -11
-20 -25 -25 -16 -6 -25 -17 -25 -31 0 -13 -8 -23 -20 -26 -11 -3 -23 -16 -26
-30 -4 -13 -17 -28 -29 -33 -30 -11 -40 -60 -14 -67 10 -3 25 -16 34 -29 8
-13 24 -24 34 -24 10 0 21 -7 24 -14 17 -45 115 -52 127 -10 3 10 19 34 35 53
17 18 40 45 53 59 12 14 22 28 22 32 0 6 76 92 119 134 5 4 40 40 79 78 117
117 136 134 170 152 15 8 48 34 74 59 25 25 54 47 64 49 26 5 35 52 17 88 -8
17 -19 30 -24 30 -5 0 -15 12 -22 28 -17 38 -62 82 -85 82 -11 0 -27 -11 -36
-25z"/>
<path d="M13259 7080 c-32 -4 -70 -17 -87 -29 -17 -11 -35 -21 -42 -21 -25 0
-132 -126 -161 -189 -74 -162 -9 -343 166 -460 106 -71 300 -75 427 -8 60 31
168 139 168 168 0 8 10 30 21 49 33 53 31 174 -3 254 -28 65 -115 161 -182
200 -66 38 -184 52 -307 36z"/>
<path d="M10835 6923 c-83 -3 -226 -24 -247 -34 -10 -5 -48 -15 -85 -23 -65
-13 -89 -22 -248 -88 -81 -34 -67 -26 -181 -103 -94 -63 -263 -225 -291 -278
-9 -18 -24 -43 -33 -57 -43 -63 -57 -91 -87 -180 -44 -130 -57 -234 -50 -411
5 -128 10 -157 39 -244 30 -92 62 -156 113 -228 37 -52 130 -149 165 -173 19
-13 52 -36 74 -51 100 -71 248 -153 277 -153 6 0 41 -13 79 -30 38 -16 79 -30
92 -30 13 -1 41 -8 63 -16 22 -9 78 -24 125 -33 47 -10 95 -23 107 -29 11 -6
60 -18 107 -27 48 -8 95 -19 105 -24 10 -6 60 -19 111 -30 51 -12 98 -25 104
-30 6 -5 35 -14 65 -20 30 -6 68 -20 85 -30 17 -10 45 -22 61 -25 71 -17 190
-118 235 -199 30 -54 32 -63 32 -158 0 -90 -3 -107 -29 -157 -26 -54 -139
-182 -159 -182 -5 0 -26 -11 -46 -25 -20 -13 -57 -29 -83 -35 -26 -6 -61 -18
-78 -27 -70 -36 -466 -35 -537 2 -15 8 -49 19 -75 25 -25 6 -58 19 -73 29 -15
10 -43 28 -62 40 -87 53 -104 70 -167 166 -25 39 -83 191 -83 218 0 8 -8 21
-18 30 -17 15 -56 17 -359 17 -411 0 -380 11 -366 -137 16 -157 78 -350 152
-468 17 -28 39 -63 49 -80 40 -68 219 -237 309 -291 77 -46 192 -102 224 -109
18 -4 49 -16 69 -25 19 -10 55 -21 80 -25 25 -4 70 -15 100 -25 52 -18 190
-32 435 -46 121 -7 467 19 545 41 30 9 82 22 115 29 33 7 78 22 100 34 22 12
50 22 62 22 24 0 140 58 208 103 22 15 57 38 77 52 55 37 167 145 197 189 100
149 134 216 161 316 11 41 26 93 32 115 18 63 13 357 -7 425 -9 30 -22 79 -30
108 -7 30 -20 61 -28 70 -8 10 -18 28 -22 42 -22 74 -135 214 -257 318 -47 39
-89 72 -93 72 -4 0 -25 13 -48 28 -65 43 -79 51 -127 73 -25 11 -68 31 -97 45
-28 13 -62 24 -74 24 -12 0 -36 9 -53 19 -17 10 -57 24 -89 31 -33 6 -74 18
-93 26 -18 8 -65 18 -104 24 -39 6 -83 16 -98 24 -15 8 -63 19 -107 26 -44 7
-96 18 -115 26 -19 8 -64 20 -100 28 -63 14 -150 45 -200 71 -14 8 -43 23 -65
34 -70 36 -126 84 -169 145 l-41 59 0 126 c0 126 0 127 33 178 49 76 189 193
232 193 7 0 49 12 95 26 78 24 93 25 257 22 118 -2 180 -7 190 -15 8 -7 43
-19 77 -27 35 -8 70 -21 79 -29 10 -8 36 -24 58 -35 81 -41 157 -150 209 -297
l21 -60 349 -3 c320 -2 351 -1 363 15 19 26 15 142 -9 214 -11 35 -24 86 -30
113 -5 27 -16 57 -24 66 -8 9 -20 32 -27 51 -41 110 -172 271 -302 371 -49 37
-95 68 -101 68 -7 0 -23 8 -36 19 -13 10 -41 23 -61 30 -20 7 -41 18 -47 25
-6 7 -30 18 -53 25 -24 7 -59 21 -79 31 -20 11 -64 24 -97 29 -33 5 -82 17
-108 26 -79 27 -333 39 -569 28z"/>
<path d="M959 6872 c-14 -15 -29 -44 -33 -63 -3 -20 -17 -45 -31 -57 -14 -12
-25 -31 -25 -41 0 -11 -11 -33 -25 -49 -14 -17 -25 -42 -25 -56 0 -15 -11 -38
-25 -52 -14 -14 -25 -33 -25 -43 0 -29 -20 -79 -34 -84 -8 -3 -17 -27 -21 -54
-4 -27 -16 -58 -27 -70 -14 -15 -24 -45 -30 -85 -5 -39 -16 -70 -28 -83 -11
-12 -20 -34 -20 -51 -1 -47 -18 -108 -34 -120 -48 -35 11 -78 122 -91 l81 -9
26 30 c20 22 28 46 35 98 5 42 15 77 26 89 10 11 21 45 25 77 5 37 15 62 27
72 12 10 21 34 24 65 4 32 13 54 26 64 11 9 24 33 27 54 4 21 17 45 30 55 12
10 25 34 29 55 4 21 14 41 21 44 8 3 20 24 27 47 6 22 22 54 35 69 13 16 23
36 23 45 0 9 3 27 6 39 5 18 1 25 -19 32 -14 6 -30 19 -36 29 -6 12 -26 22
-50 26 -27 4 -42 12 -46 26 -9 27 -25 24 -56 -8z"/>
<path d="M7315 6880 c-9 -10 -32 -24 -50 -30 -18 -6 -36 -18 -39 -26 -3 -8
-19 -19 -34 -25 -29 -10 -29 -10 -18 -59 7 -31 20 -56 34 -65 12 -9 22 -23 22
-31 0 -9 11 -30 25 -48 14 -18 25 -43 25 -55 0 -12 11 -33 25 -46 18 -16 28
-39 34 -74 5 -31 16 -60 28 -71 12 -11 23 -38 27 -69 4 -28 11 -51 17 -51 14
0 39 -64 39 -101 0 -19 8 -37 21 -48 17 -14 23 -33 28 -89 5 -56 12 -77 31
-98 24 -26 27 -26 108 -20 77 6 86 9 115 38 21 20 27 33 19 36 -21 7 -34 43
-42 114 -5 43 -14 76 -25 88 -10 11 -21 42 -26 69 -4 27 -16 58 -27 69 -12 12
-23 41 -27 71 -5 35 -15 60 -31 76 -15 15 -24 36 -24 55 0 18 -11 45 -25 64
-14 18 -25 42 -25 54 0 11 -11 34 -25 50 -14 17 -28 44 -31 62 -4 18 -17 43
-30 56 -13 12 -24 34 -24 48 0 16 -7 27 -19 31 -11 3 -23 15 -26 26 -8 24 -27
24 -50 -1z"/>
<path d="M23782 6855 c-18 -39 -17 -3630 1 -3665 l13 -25 349 -3 c346 -2 349
-2 372 20 l23 21 0 1823 0 1823 -22 15 c-19 14 -72 16 -374 16 l-351 0 -11
-25z"/>
<path d="M15205 5968 c-38 -5 -97 -18 -130 -29 -33 -11 -78 -25 -100 -31 -22
-6 -53 -22 -68 -35 -16 -12 -33 -23 -39 -23 -42 0 -295 -231 -339 -310 -11
-19 -33 -55 -49 -80 -17 -25 -35 -58 -41 -74 -7 -15 -22 -48 -35 -72 -13 -24
-28 -63 -34 -86 -6 -24 -17 -57 -25 -73 -8 -17 -19 -60 -24 -95 -6 -36 -18
-92 -26 -124 -34 -129 -38 -638 -6 -720 6 -15 18 -69 27 -119 9 -50 24 -107
34 -127 10 -20 22 -54 26 -75 4 -22 15 -51 24 -65 10 -14 21 -36 25 -50 4 -14
17 -37 29 -51 19 -24 36 -49 76 -118 67 -112 304 -296 414 -321 23 -5 59 -18
81 -30 21 -11 53 -20 70 -20 16 0 63 -9 104 -20 107 -29 247 -27 413 6 73 14
144 32 158 39 14 8 45 23 70 35 25 11 63 32 86 45 61 37 192 170 209 213 9 20
31 50 50 65 32 26 36 27 43 10 4 -10 7 -144 6 -298 0 -261 -2 -284 -22 -344
-12 -35 -22 -68 -22 -74 0 -14 -63 -107 -93 -137 -98 -96 -204 -137 -404 -154
-87 -8 -321 23 -350 46 -6 5 -32 17 -57 26 -53 21 -141 96 -198 170 l-41 52
-66 -6 c-36 -3 -109 -14 -161 -24 -52 -10 -135 -22 -185 -25 -120 -8 -215 -24
-242 -41 -34 -21 -29 -65 18 -158 66 -131 85 -160 160 -235 78 -78 136 -120
249 -178 41 -21 86 -46 100 -55 14 -10 50 -22 80 -29 30 -6 65 -17 77 -25 12
-8 64 -21 115 -29 51 -8 125 -22 163 -30 78 -16 413 -20 500 -5 28 4 107 18
176 29 69 11 142 27 162 36 19 8 56 19 81 25 24 5 61 21 82 35 20 14 45 25 54
25 10 0 28 9 41 19 14 10 40 26 59 35 133 62 330 269 369 389 7 19 18 40 26
47 7 6 19 34 25 63 6 29 21 79 33 112 l22 60 3 1447 c1 796 -1 1468 -5 1495
l-8 48 -363 3 -362 2 -10 -26 c-6 -14 -10 -112 -10 -219 0 -110 -4 -196 -9
-200 -11 -6 -91 69 -91 86 0 6 -10 24 -22 41 -31 41 -209 218 -220 218 -5 0
-25 11 -46 24 -20 13 -55 30 -77 36 -22 7 -50 19 -61 27 -55 35 -333 53 -499
31z m658 -633 c85 -39 205 -142 227 -195 7 -17 16 -30 20 -30 13 0 73 -162 92
-250 47 -219 48 -375 4 -565 -36 -158 -84 -263 -161 -353 -63 -74 -202 -144
-323 -164 -113 -19 -278 14 -376 73 -61 37 -156 138 -182 194 -13 27 -28 57
-33 65 -31 51 -64 194 -74 320 -13 168 4 411 32 474 10 23 21 57 25 77 3 19
17 51 31 69 14 19 25 41 25 51 0 16 37 69 88 124 56 60 179 127 267 146 22 4
90 6 150 4 101 -4 116 -7 188 -40z"/>
<path d="M19010 5965 c-47 -7 -106 -21 -130 -32 -25 -11 -62 -26 -82 -32 -20
-7 -42 -19 -48 -27 -7 -7 -16 -14 -21 -14 -31 0 -239 -176 -239 -202 0 -4 -13
-27 -30 -50 -16 -22 -30 -46 -30 -53 0 -15 -29 -41 -57 -49 l-21 -7 -4 216
c-2 178 -6 217 -18 225 -23 15 -683 13 -698 -2 -9 -9 -12 -328 -12 -1373 0
-1215 2 -1363 16 -1383 l15 -22 348 0 c312 0 350 2 362 17 12 13 15 167 19
877 l5 861 29 85 c32 94 45 114 128 199 74 77 143 115 244 135 105 21 158 20
270 -4 104 -21 144 -45 221 -126 70 -75 109 -159 122 -265 7 -52 11 -390 11
-906 0 -806 0 -823 20 -843 11 -11 30 -22 43 -25 13 -4 173 -5 356 -3 319 3
333 4 347 23 13 17 14 151 11 975 -2 750 -6 965 -16 1000 -8 25 -21 81 -31
125 -18 81 -62 198 -85 225 -7 8 -16 26 -20 40 -9 32 -45 80 -115 154 -56 59
-161 146 -177 146 -5 0 -24 11 -43 25 -18 14 -50 28 -69 31 -20 4 -54 16 -76
27 -85 43 -361 59 -545 32z"/>
<path d="M21715 5967 c-49 -5 -132 -22 -183 -38 -51 -16 -97 -29 -102 -29 -22
0 -169 -75 -245 -125 -114 -76 -258 -227 -299 -316 -9 -19 -23 -45 -31 -59
-55 -96 -86 -208 -63 -227 7 -6 60 -13 118 -16 58 -3 155 -12 215 -20 61 -8
160 -18 220 -22 l111 -7 31 32 c17 18 34 44 38 58 3 14 24 45 45 69 104 119
243 169 445 160 87 -3 118 -9 150 -26 22 -11 45 -21 51 -21 25 0 115 -84 145
-136 29 -51 31 -62 33 -159 l1 -104 -38 -39 c-55 -56 -154 -92 -298 -108 -64
-7 -143 -17 -175 -23 -33 -6 -134 -17 -227 -26 -92 -8 -186 -22 -210 -29 -23
-8 -71 -20 -106 -26 -36 -6 -81 -20 -101 -30 -20 -10 -53 -21 -73 -25 -20 -4
-47 -15 -60 -25 -12 -9 -32 -20 -44 -24 -27 -9 -109 -70 -181 -136 -112 -104
-190 -276 -203 -452 -9 -130 3 -302 24 -344 8 -16 19 -52 25 -80 12 -57 33
-94 107 -189 53 -67 185 -185 209 -185 7 0 25 -9 40 -21 15 -12 48 -27 74 -34
26 -8 66 -21 90 -30 106 -38 416 -50 582 -22 141 24 274 87 392 184 43 36 88
79 100 96 12 18 28 36 35 40 7 4 20 24 28 43 8 18 19 34 24 34 23 0 31 -46 31
-179 0 -85 5 -150 12 -166 l11 -25 317 0 c334 0 376 5 385 43 3 12 4 463 2
1002 -3 947 -4 983 -24 1066 -18 75 -49 149 -114 268 -30 56 -168 189 -255
246 -110 72 -220 117 -394 160 -133 33 -460 44 -665 22z m676 -1558 c21 -21
22 -28 16 -173 -7 -159 -22 -261 -42 -286 -7 -8 -22 -33 -33 -55 -39 -77 -197
-200 -290 -224 -20 -6 -80 -17 -133 -24 -88 -13 -106 -13 -203 4 -120 20 -147
34 -223 111 -44 44 -54 62 -63 107 -13 69 -13 146 1 194 22 79 113 178 179
194 14 3 39 14 55 23 17 10 73 26 125 34 52 9 109 21 125 26 17 5 79 14 139
20 59 6 127 18 150 26 33 13 126 36 169 43 4 0 17 -9 28 -20z"/>
<path d="M12987 5943 c-4 -3 -7 -624 -7 -1378 0 -1316 1 -1373 18 -1388 17
-15 57 -17 365 -17 l346 0 16 30 c13 26 15 185 14 1362 -1 733 -4 1347 -8
1363 l-6 30 -366 3 c-201 1 -368 -1 -372 -5z"/>
<path d="M505 5519 c-3 -4 -9 -40 -14 -79 -5 -40 -16 -79 -25 -89 -24 -26 -24
-662 0 -709 8 -18 20 -61 26 -97 l11 -65 91 0 c145 0 139 -5 133 109 -3 53
-10 119 -17 146 -25 110 -31 196 -25 355 5 131 10 173 26 207 14 31 19 64 19
127 l0 84 -67 6 c-38 4 -87 8 -111 10 -23 2 -45 0 -47 -5z"/>
<path d="M7745 5523 c-38 -2 -85 -5 -102 -8 l-33 -6 0 -98 c0 -74 4 -106 18
-132 14 -29 17 -70 20 -283 3 -239 2 -251 -17 -277 -18 -24 -21 -43 -21 -128
l0 -99 58 -6 c31 -3 82 -7 112 -8 l55 -3 11 75 c6 41 19 92 28 112 14 32 16
82 16 336 0 278 -1 302 -21 357 -12 33 -24 84 -28 114 -3 30 -10 55 -16 56 -5
0 -41 0 -80 -2z"/>
<path d="M651 4123 c-20 -3 -46 -16 -64 -34 -26 -27 -28 -31 -14 -42 17 -13
36 -82 37 -131 0 -17 9 -40 21 -52 12 -13 23 -43 28 -76 4 -31 16 -67 28 -81
11 -15 24 -48 28 -74 4 -29 14 -53 25 -60 12 -8 22 -32 26 -61 4 -26 17 -59
30 -75 13 -16 24 -38 24 -49 0 -11 11 -33 25 -50 14 -16 25 -40 25 -52 0 -13
9 -35 21 -50 20 -26 19 -55 -2 -82 -5 -6 -13 -52 -18 -102 -6 -65 -14 -100
-30 -126 -13 -20 -21 -47 -19 -63 3 -27 5 -28 83 -34 74 -5 125 -22 125 -41 0
-5 4 -8 9 -8 5 0 12 16 15 36 4 19 16 44 26 54 14 14 21 43 28 115 7 70 14
101 28 116 15 16 20 40 23 105 3 79 2 84 -23 107 -14 13 -26 31 -26 38 0 8
-14 34 -30 58 -17 24 -30 52 -30 62 0 10 -11 29 -24 42 -15 15 -26 41 -30 73
-5 31 -15 55 -28 65 -13 10 -22 32 -26 64 -3 31 -12 55 -24 65 -11 9 -22 36
-27 68 -4 28 -16 61 -25 71 -10 11 -22 50 -28 91 -14 95 -36 121 -104 118 -27
0 -64 -3 -83 -5z"/>
<path d="M7530 4106 c-18 -20 -26 -42 -31 -92 -5 -46 -13 -72 -28 -88 -11 -12
-21 -35 -21 -52 0 -42 -17 -94 -35 -108 -8 -6 -19 -32 -23 -58 -5 -25 -19 -58
-31 -73 -11 -15 -21 -38 -21 -51 0 -13 -11 -33 -24 -46 -13 -13 -29 -42 -35
-64 -6 -23 -17 -44 -25 -47 -7 -3 -18 -26 -25 -51 -6 -25 -19 -50 -30 -55 -11
-6 -22 -29 -28 -60 -10 -49 -9 -50 18 -62 16 -6 31 -20 34 -30 4 -13 16 -19
36 -19 19 0 39 -10 55 -25 30 -30 41 -31 49 -6 3 11 15 23 26 26 13 4 19 15
19 36 0 18 9 39 24 54 13 13 27 36 30 51 4 15 18 41 32 57 15 18 24 41 24 63
0 24 6 38 24 49 16 11 25 28 29 58 3 24 14 48 25 57 11 9 21 34 25 59 3 24 14
56 25 71 11 15 25 53 31 85 6 32 19 67 28 77 10 12 20 45 24 86 5 50 12 70 28
83 28 23 26 39 -8 66 -21 17 -47 23 -112 28 -82 7 -85 6 -109 -19z"/>
<path d="M6934 2903 c-14 -3 -24 -14 -28 -34 -3 -17 -12 -29 -21 -29 -9 0 -19
-10 -24 -23 -5 -13 -17 -29 -27 -37 -9 -8 -23 -30 -31 -49 -8 -18 -22 -35 -32
-38 -10 -3 -24 -16 -30 -29 -6 -13 -18 -24 -26 -24 -9 0 -20 -11 -25 -24 -5
-13 -18 -27 -28 -30 -11 -4 -22 -16 -25 -27 -3 -11 -14 -23 -25 -26 -11 -2
-25 -16 -31 -29 -6 -13 -18 -24 -26 -24 -9 0 -20 -11 -25 -25 -5 -14 -13 -25
-18 -25 -5 0 -25 -15 -45 -32 -61 -55 -104 -88 -116 -88 -6 0 -16 -11 -23 -24
-6 -14 -20 -26 -31 -28 -44 -6 -36 -107 9 -125 7 -3 14 -14 14 -24 0 -10 11
-26 25 -35 14 -9 25 -23 25 -30 0 -24 58 -18 65 7 4 11 20 25 36 31 16 5 29
16 29 23 0 7 14 18 30 24 17 5 30 17 30 26 0 8 11 20 24 25 13 5 27 18 31 29
3 12 10 21 15 21 12 0 55 39 163 147 107 107 130 132 140 156 4 11 15 21 26
24 10 2 24 16 30 29 6 13 17 24 26 24 8 0 15 7 15 15 0 8 12 28 28 45 15 16
39 44 55 60 15 17 27 35 27 41 0 16 -68 79 -85 79 -9 0 -18 7 -22 15 -5 16
-55 46 -70 44 -4 -1 -18 -4 -29 -6z"/>
<path d="M715 2403 c-4 -49 -16 -97 -31 -130 -16 -34 -24 -70 -24 -105 0 -64
-16 -124 -34 -131 -9 -4 -15 -35 -19 -98 -5 -75 -10 -98 -29 -123 -21 -29 -23
-41 -23 -163 0 -130 0 -131 28 -157 15 -14 27 -32 27 -41 0 -8 9 -15 20 -15
11 0 27 -11 36 -25 16 -25 17 -25 165 -25 120 0 151 3 155 14 8 22 52 34 131
38 52 3 77 9 92 22 15 14 48 22 118 29 63 7 102 16 109 25 12 17 80 31 152 32
l52 0 0 90 c0 84 -2 92 -27 120 l-28 30 -100 -11 c-69 -8 -109 -17 -128 -31
-20 -14 -51 -21 -115 -25 -70 -4 -90 -9 -103 -25 -12 -16 -34 -21 -107 -27
-67 -6 -98 -13 -112 -26 -25 -23 -86 -22 -111 1 -25 22 -25 76 0 98 14 13 21
37 26 99 4 54 15 100 31 134 15 32 24 70 24 100 0 57 17 124 34 138 8 6 16 49
20 108 7 96 7 99 -17 121 -20 19 -41 24 -115 30 l-90 7 -7 -78z"/>
<path d="M5900 1990 c-19 -5 -42 -18 -51 -29 -10 -12 -23 -21 -31 -21 -7 0
-33 -14 -57 -30 -24 -17 -53 -30 -63 -30 -11 0 -27 -9 -36 -20 -11 -13 -36
-24 -70 -29 -32 -5 -60 -16 -72 -28 -11 -12 -38 -23 -69 -27 -28 -4 -51 -11
-51 -17 0 -16 -65 -39 -110 -39 -22 0 -40 -5 -40 -11 0 -17 -66 -39 -115 -39
-37 0 -52 -5 -74 -27 -26 -27 -27 -30 -21 -112 6 -72 10 -87 28 -99 12 -8 22
-21 22 -28 0 -19 10 -17 36 7 15 14 40 22 80 26 37 3 72 14 94 28 20 13 58 25
89 29 33 3 58 11 63 20 9 16 68 36 105 36 12 0 33 11 47 25 16 16 36 25 56 25
18 0 45 11 64 25 18 14 42 25 54 25 11 0 34 11 50 25 17 14 44 28 62 31 18 4
43 17 56 30 12 13 34 24 48 24 16 0 27 7 31 19 3 11 15 23 26 26 26 9 24 27
-6 55 -14 13 -25 31 -25 41 0 10 -9 24 -20 32 -10 7 -24 25 -29 40 -11 29 -16
30 -71 17z"/>
<path d="M2281 1983 c-7 -3 -21 -13 -31 -23 -12 -12 -42 -19 -105 -24 -68 -5
-94 -11 -110 -26 -12 -11 -35 -23 -52 -26 l-32 -6 20 -28 c15 -20 22 -49 26
-109 l6 -81 44 0 c29 0 54 7 73 22 23 16 48 22 112 26 64 3 87 9 101 23 24 25
64 25 72 -1 4 -12 15 -20 29 -20 13 0 43 -13 67 -30 24 -16 56 -30 71 -30 15
0 37 -10 50 -24 13 -13 40 -26 63 -29 22 -4 46 -15 55 -25 9 -12 34 -22 64
-26 30 -4 59 -15 72 -27 13 -13 43 -23 78 -28 31 -4 65 -16 76 -26 14 -13 44
-21 88 -26 50 -5 70 -12 83 -28 23 -28 39 -26 66 8 17 21 23 47 28 112 7 82 6
85 -19 108 -21 19 -43 27 -99 33 -52 5 -76 12 -87 26 -11 13 -35 21 -75 25
-41 5 -65 13 -76 27 -10 11 -36 22 -60 26 -24 4 -53 15 -64 24 -11 10 -39 23
-63 30 -23 6 -48 20 -55 30 -7 12 -23 20 -39 20 -14 0 -39 11 -55 24 -15 13
-45 29 -67 34 -21 6 -44 19 -51 29 -11 15 -30 18 -102 20 -48 1 -94 0 -102 -4z"/>
<path d="M3659 1543 c0 -10 -2 -26 -4 -36 -6 -30 -10 -166 -5 -170 3 -3 34 -8
68 -12 35 -4 83 -15 105 -26 38 -17 70 -19 345 -19 236 0 311 3 335 14 47 20
110 36 145 36 17 0 33 4 36 9 3 5 3 57 -1 115 l-6 106 -103 0 c-60 0 -104 -4
-106 -10 -6 -19 -54 -24 -301 -27 -236 -4 -250 -3 -283 16 -29 17 -52 21 -130
21 -83 0 -94 -2 -95 -17z"/>
</g>
</svg>
