<?xml version="1.0" standalone="no"?>
<!DOCTYPE svg PUBLIC "-//W3C//DTD SVG 20010904//EN"
 "http://www.w3.org/TR/2001/REC-SVG-20010904/DTD/svg10.dtd">
<svg version="1.0" xmlns="http://www.w3.org/2000/svg"
 width="2500.000000pt" height="1000.000000pt" viewBox="0 0 2500.000000 1000.000000"
 preserveAspectRatio="xMidYMid meet">

<g transform="translate(0.000000,1000.000000) scale(0.100000,-0.100000)"
fill="#000000" stroke="none">
<path d="M385 9933 c-146 -62 -244 -182 -270 -330 -12 -63 -14 -265 -14 -1043
-1 -596 3 -992 9 -1035 26 -175 158 -328 325 -374 27 -7 290 -11 840 -11 l800
-1 68 -27 c88 -35 145 -85 182 -158 l30 -59 3 -2055 c1 -1130 3 -2604 5 -3275
l2 -1220 29 -58 c37 -74 101 -138 174 -174 l57 -28 1190 -3 1190 -3 60 22
c104 37 184 118 225 225 20 54 20 70 22 3292 l3 3237 29 62 c29 64 97 137 152
166 16 8 54 23 84 33 51 17 116 19 841 24 l785 5 75 37 c115 57 191 142 235
263 l24 66 0 1040 c0 1026 0 1040 -21 1101 -41 124 -119 211 -238 271 l-66 32
-3385 2 -3385 2 -60 -26z"/>
<path d="M23499 9896 c-2 -2 -51 -7 -109 -10 -58 -4 -123 -9 -145 -11 -22 -2
-66 -7 -98 -10 -455 -46 -995 -210 -1405 -427 -278 -147 -538 -321 -782 -525
-133 -111 -368 -350 -489 -498 -207 -253 -403 -554 -517 -795 -11 -25 -37 -79
-56 -120 -35 -74 -140 -336 -151 -375 -3 -11 -23 -78 -45 -150 -42 -137 -56
-191 -102 -423 -69 -339 -65 -159 -65 -3297 0 -2406 2 -2837 14 -2879 22 -74
91 -160 169 -210 133 -86 -1 -80 1652 -80 1661 -1 1532 -7 1665 82 75 51 134
121 162 192 17 42 18 188 23 2505 4 1828 9 2470 17 2500 68 233 168 383 342
512 83 62 232 139 331 171 58 19 207 52 300 66 49 8 153 15 306 21 267 11 338
55 363 225 14 93 13 3059 0 3130 -29 153 -148 299 -289 358 -42 17 -89 34
-105 39 -30 7 -978 16 -986 9z"/>
<path d="M14203 9711 c-629 -471 -1091 -971 -1382 -1495 -61 -110 -89 -150
-77 -111 17 58 243 965 240 965 -12 0 -291 -568 -330 -670 -7 -19 -27 -69 -44
-110 -76 -180 -190 -526 -238 -720 -46 -185 -69 -300 -108 -548 l-5 -32 -260
175 c-149 100 -266 172 -272 168 -7 -4 -28 -19 -47 -35 l-35 -28 72 -146 c76
-155 140 -334 169 -474 28 -130 25 -360 -4 -463 -36 -126 -92 -225 -173 -305
-50 -49 -104 -86 -574 -399 -593 -394 -777 -533 -995 -752 -393 -395 -640
-823 -738 -1281 -46 -214 -56 -322 -56 -610 1 -390 32 -609 131 -900 190 -561
598 -1065 1135 -1401 453 -282 935 -431 1523 -468 183 -12 803 -6 925 8 765
89 1372 349 1822 779 450 431 727 976 814 1602 24 171 24 509 0 680 -60 434
-199 818 -422 1167 -301 471 -683 795 -1434 1218 -85 48 -185 108 -222 132
-94 63 -237 200 -309 296 -68 92 -150 251 -175 342 -24 89 -30 292 -10 385 9
41 12 77 8 81 -4 3 -83 16 -177 28 -93 13 -180 26 -193 29 -21 7 -14 20 119
217 151 225 168 249 299 425 378 510 753 943 1220 1410 136 136 371 359 468
445 23 21 41 39 39 41 -4 4 -203 -71 -337 -126 -189 -78 -483 -239 -655 -358
-226 -157 -482 -396 -647 -603 -56 -71 -104 -127 -106 -124 -5 5 98 198 171
320 218 363 479 718 869 1183 71 83 126 152 124 152 -3 0 -58 -40 -123 -89z
m-2122 -2690 c118 -48 246 -101 284 -116 l70 -29 -5 -2005 -5 -2006 -31 -71
c-46 -103 -72 -140 -208 -298 -67 -77 -137 -163 -155 -189 -80 -117 -146 -300
-178 -490 -21 -131 -24 -480 -5 -547 51 -174 126 -377 193 -517 73 -153 216
-316 339 -387 74 -42 44 -46 -92 -11 -307 79 -505 171 -667 310 -292 248 -579
694 -687 1064 -91 313 -74 521 65 795 161 317 409 582 714 765 340 204 492
412 592 810 33 130 27 152 -9 41 -41 -122 -102 -262 -158 -359 -115 -201 -238
-317 -478 -451 -202 -113 -328 -209 -470 -356 -205 -212 -331 -447 -385 -716
-41 -208 2 -599 96 -854 41 -112 139 -299 206 -394 94 -131 272 -307 428 -423
131 -98 332 -208 505 -277 92 -36 76 -38 -55 -4 -238 60 -462 138 -560 195
-114 66 -256 209 -466 471 -335 419 -604 931 -697 1328 -40 169 -46 212 -46
340 -1 120 2 145 27 225 125 402 311 714 583 975 171 164 321 278 780 590 142
96 281 197 310 223 155 141 253 381 344 842 40 199 43 216 38 220 -2 2 -26
-71 -53 -163 -78 -269 -142 -448 -212 -592 -60 -122 -74 -143 -147 -215 -57
-57 -118 -104 -206 -158 -762 -467 -1109 -784 -1344 -1228 -93 -177 -182 -414
-212 -567 -32 -164 -4 -380 87 -674 144 -467 514 -1080 869 -1438 118 -118
195 -176 342 -255 46 -25 79 -45 73 -45 -13 0 -204 68 -310 110 -193 76 -444
224 -625 368 -88 70 -304 278 -377 364 -263 305 -464 686 -547 1038 -32 139
-34 149 -47 335 -10 139 -6 450 6 488 2 7 6 44 10 83 18 222 93 489 197 704
144 298 316 505 688 825 77 65 484 386 535 421 33 23 128 83 210 134 312 193
417 271 555 409 175 176 268 325 294 473 22 129 14 350 -19 479 -17 66 -104
277 -167 407 -25 50 -42 92 -38 92 4 0 104 -40 221 -89z m513 -212 l69 -34 -9
-225 c-16 -393 -8 -527 41 -725 30 -123 90 -247 225 -470 293 -483 381 -658
454 -905 128 -432 189 -896 189 -1450 0 -314 -23 -677 -59 -945 -8 -60 -17
-128 -20 -150 -9 -75 -51 -320 -69 -405 -55 -262 -69 -317 -96 -382 -16 -40
-48 -106 -70 -147 -40 -71 -155 -241 -165 -241 -2 0 5 18 16 39 42 83 101 262
165 506 15 55 34 125 42 155 8 30 16 62 18 70 2 8 13 56 25 105 22 95 46 213
55 280 3 22 10 65 16 95 33 187 33 730 0 980 -6 41 -13 100 -16 130 -9 80 -52
291 -81 395 -70 252 -218 579 -476 1048 -66 120 -133 247 -149 282 -36 81 -73
249 -103 475 -31 233 -36 278 -46 415 -6 77 -13 145 -15 150 -14 39 16 -462
40 -675 37 -332 58 -403 205 -680 279 -530 378 -763 454 -1070 42 -167 55
-236 108 -560 12 -77 5 -573 -10 -670 -6 -36 -15 -108 -22 -160 -6 -52 -17
-131 -25 -175 -8 -44 -16 -98 -20 -120 -5 -41 -8 -53 -50 -265 -72 -353 -75
-368 -119 -490 -60 -168 -203 -424 -296 -530 -21 -25 -17 -16 14 30 132 196
224 427 281 710 33 159 63 360 71 467 3 49 8 91 11 96 2 4 6 110 8 235 5 272
-9 384 -88 682 -80 304 -159 492 -336 802 -67 118 -119 222 -130 260 -17 59
-32 169 -65 463 l-14 120 -2 -85 c-10 -299 -2 -437 30 -565 26 -106 55 -165
158 -329 93 -149 156 -270 178 -345 44 -148 115 -422 128 -496 38 -205 38
-210 32 -425 -3 -118 -10 -253 -15 -300 -5 -47 -12 -116 -15 -154 -13 -145
-55 -391 -96 -561 -57 -232 -173 -456 -314 -603 -45 -48 -156 -137 -156 -126
0 3 17 27 38 53 134 161 203 324 227 531 3 30 10 89 15 130 5 41 12 113 15
160 4 47 10 123 16 170 12 113 11 325 -1 430 -6 47 -13 108 -16 135 -15 131
-71 354 -194 765 -32 107 -61 210 -65 228 -4 18 -9 31 -11 29 -5 -5 24 -246
31 -257 2 -4 9 -33 14 -66 6 -32 26 -135 45 -229 19 -93 37 -188 40 -210 4
-22 11 -65 16 -95 23 -138 31 -369 20 -616 -5 -137 -15 -280 -20 -319 -5 -38
-12 -90 -15 -115 -4 -25 -10 -61 -15 -80 -5 -19 -12 -50 -15 -68 -21 -124 -93
-362 -128 -428 -15 -26 -16 257 -17 3179 l0 3207 33 -14 c17 -7 63 -29 101
-47z m-164 -5159 l0 -1179 -35 20 c-115 68 -260 303 -378 609 -81 212 -99 301
-100 490 0 181 21 296 79 443 49 122 75 167 229 397 114 170 135 208 165 298
19 56 36 102 37 102 2 0 3 -531 3 -1180z"/>
<path d="M12331 4244 c0 -11 3 -14 6 -6 3 7 2 16 -1 19 -3 4 -6 -2 -5 -13z"/>
</g>
</svg>
