<?xml version="1.0" standalone="no"?>
<!DOCTYPE svg PUBLIC "-//W3C//DTD SVG 20010904//EN"
 "http://www.w3.org/TR/2001/REC-SVG-20010904/DTD/svg10.dtd">
<svg version="1.0" xmlns="http://www.w3.org/2000/svg"
 width="2500.000000pt" height="1000.000000pt" viewBox="0 0 2500.000000 1000.000000"
 preserveAspectRatio="xMidYMid meet">

<g transform="translate(0.000000,1000.000000) scale(0.100000,-0.100000)"
fill="#000000" stroke="none">
<path d="M14313 9923 c9 -2 23 -2 30 0 6 3 -1 5 -18 5 -16 0 -22 -2 -12 -5z"/>
<path d="M14175 9909 c-44 -4 -111 -14 -150 -23 -97 -21 -171 -35 -230 -45
-27 -5 -72 -16 -100 -24 -27 -9 -93 -28 -145 -42 -178 -51 -226 -67 -350 -115
-30 -12 -67 -25 -82 -30 -14 -4 -55 -21 -90 -37 -34 -16 -88 -40 -118 -54 -89
-39 -324 -160 -341 -175 -8 -8 -19 -14 -23 -14 -14 0 -349 -210 -366 -230 -3
-3 -16 -13 -31 -22 -38 -24 -251 -192 -295 -233 -22 -19 -68 -61 -104 -92
-119 -105 -327 -340 -410 -463 -8 -12 -23 -33 -32 -45 -10 -13 -18 -26 -18
-29 0 -3 -13 -25 -30 -49 -44 -65 -134 -251 -160 -332 -13 -38 -29 -84 -37
-102 -7 -17 -13 -38 -13 -47 0 -9 -10 -54 -22 -99 -20 -74 -22 -107 -22 -322
-1 -218 2 -249 23 -335 12 -52 27 -108 33 -125 5 -16 14 -48 19 -70 6 -22 14
-44 20 -49 5 -6 9 -16 9 -24 0 -29 99 -233 148 -304 17 -26 32 -52 32 -57 0
-5 3 -11 8 -13 4 -1 34 -39 66 -83 112 -149 355 -369 517 -466 169 -102 412
-260 417 -271 2 -5 8 -8 14 -8 6 0 23 -10 38 -22 15 -13 43 -34 62 -48 18 -13
78 -69 134 -125 98 -98 171 -195 211 -285 46 -101 54 -124 63 -183 5 -34 12
-79 16 -100 13 -73 -29 -289 -77 -394 -10 -23 -19 -44 -19 -47 0 -15 -82 -142
-140 -218 -94 -123 -225 -257 -369 -378 -29 -25 -70 -60 -90 -78 -20 -18 -54
-45 -76 -60 -22 -15 -51 -37 -65 -49 -35 -30 -259 -187 -312 -218 -115 -68
-184 -110 -188 -115 -3 -3 -31 -19 -62 -35 -32 -17 -88 -47 -125 -67 -38 -21
-75 -40 -83 -44 -8 -4 -53 -25 -100 -46 -117 -54 -157 -72 -265 -116 -91 -36
-130 -50 -157 -56 -17 -4 -28 -13 -28 -22 0 -15 14 -16 128 -10 70 4 165 13
212 21 47 8 117 19 155 26 106 17 201 36 295 59 47 12 110 28 140 35 30 7 66
17 80 23 14 5 59 20 100 32 41 12 87 28 102 36 14 8 34 14 45 14 10 1 36 9 58
20 22 11 45 19 52 20 6 0 24 6 40 14 57 28 120 56 129 56 17 0 428 203 444
220 3 3 50 32 105 65 107 63 292 186 331 220 6 6 22 17 34 25 32 21 123 93
135 106 6 5 35 30 65 55 96 78 254 231 319 309 56 67 161 214 161 225 0 1 15
29 33 62 87 156 132 329 132 508 0 144 -19 238 -71 350 -7 17 -18 41 -24 55
-40 92 -168 257 -271 348 -30 26 -69 60 -87 77 -18 16 -58 46 -87 67 -30 21
-76 53 -102 71 -27 18 -55 36 -63 40 -8 4 -27 15 -42 25 -56 36 -357 212 -363
212 -3 0 -28 16 -55 35 -27 19 -52 35 -54 35 -10 0 -167 109 -251 173 -91 70
-243 218 -273 266 -9 14 -28 42 -43 61 -73 95 -130 233 -169 405 -12 54 -12
389 1 445 5 25 15 68 20 95 12 58 44 156 65 202 7 17 14 36 14 41 0 6 6 23 14
39 8 15 33 66 56 113 46 95 76 148 129 230 20 30 40 63 46 72 148 247 561 694
833 903 7 6 21 17 30 26 9 8 40 31 67 50 230 161 249 175 265 182 8 4 27 15
42 25 53 33 184 108 233 132 28 14 52 28 55 32 3 3 17 9 32 13 15 4 32 13 39
21 6 8 16 14 22 14 5 0 31 10 56 21 25 12 60 27 76 34 17 7 46 20 65 29 19 9
48 20 64 24 32 9 45 27 24 34 -7 2 -49 1 -93 -3z"/>
<path d="M7459 9850 c-42 -4 -81 -10 -86 -13 -5 -3 -43 -9 -84 -13 -40 -3 -96
-13 -124 -20 -27 -8 -78 -20 -112 -28 -34 -8 -72 -21 -85 -30 -12 -9 -32 -16
-43 -16 -35 0 -319 -142 -415 -207 -162 -111 -329 -265 -429 -396 -24 -31 -47
-57 -52 -57 -5 0 -9 -6 -9 -12 0 -7 -18 -38 -39 -68 -42 -59 -151 -267 -151
-288 0 -7 -9 -30 -19 -50 -27 -50 -71 -191 -71 -224 0 -15 -9 -64 -20 -110
-20 -82 -20 -120 -20 -2495 0 -2354 0 -2414 19 -2465 11 -29 22 -68 26 -85 4
-18 10 -35 15 -38 5 -3 18 -25 30 -50 12 -25 26 -45 31 -45 5 0 9 -6 9 -13 0
-19 104 -119 171 -166 129 -90 281 -123 474 -103 57 5 117 17 132 26 15 8 44
22 63 31 93 41 232 154 264 215 7 14 28 52 46 85 19 33 43 94 54 135 20 74 20
97 26 2440 l5 2365 32 65 c35 69 101 147 158 186 55 37 164 76 235 85 36 4
565 8 1177 8 l1112 1 102 25 c56 13 112 31 125 40 13 8 29 15 35 15 38 0 220
157 252 218 59 110 87 170 92 193 28 125 20 340 -15 414 -10 22 -26 56 -34 75
-30 65 -51 93 -121 165 -125 126 -224 175 -425 205 -67 10 -2225 10 -2331 0z"/>
<path d="M16715 9839 c-22 -5 -77 -13 -122 -18 -46 -5 -111 -18 -145 -29 -35
-11 -81 -23 -103 -27 -22 -4 -49 -12 -60 -19 -11 -8 -36 -17 -55 -21 -31 -6
-106 -37 -165 -68 -11 -6 -33 -17 -50 -25 -16 -9 -42 -23 -57 -34 -14 -10 -33
-18 -40 -18 -8 0 -23 -9 -33 -20 -10 -11 -23 -20 -30 -20 -6 0 -20 -9 -32 -19
-11 -10 -34 -26 -51 -35 -18 -9 -32 -20 -32 -25 0 -4 -8 -12 -19 -17 -78 -38
-329 -299 -412 -429 -14 -22 -38 -58 -52 -81 -15 -22 -27 -45 -27 -50 0 -6 -9
-19 -20 -29 -11 -10 -20 -25 -20 -34 0 -9 -8 -30 -19 -47 -10 -17 -22 -41 -26
-55 -4 -13 -18 -48 -31 -77 -13 -29 -24 -62 -24 -73 0 -11 -7 -34 -16 -50 -8
-17 -22 -69 -29 -117 -8 -48 -20 -112 -27 -142 -10 -44 -13 -542 -13 -2440 l0
-2385 24 -80 c25 -86 62 -169 99 -225 29 -45 153 -164 189 -182 16 -8 37 -19
48 -26 124 -69 247 -88 445 -67 41 4 91 16 110 26 19 10 51 26 70 34 76 33
114 62 196 145 30 30 54 60 54 66 0 6 6 17 14 23 22 18 66 115 89 194 21 72
21 85 26 2447 l6 2375 30 54 c37 67 50 84 98 129 71 67 174 118 272 134 37 6
507 11 1205 12 803 1 1151 5 1165 13 11 6 43 14 70 18 46 6 109 33 194 81 71
40 241 231 241 270 0 5 9 26 20 47 12 21 26 82 35 144 14 96 14 119 0 209 -24
161 -84 273 -215 401 -63 61 -172 118 -287 149 l-91 24 -1179 -1 c-666 -1
-1195 -5 -1218 -10z"/>
<path d="M7919 6665 c-3 -2 -34 -12 -69 -21 -198 -51 -349 -228 -365 -429 -16
-191 49 -339 200 -458 56 -45 143 -78 228 -87 105 -13 1890 -12 1977 1 152 21
299 135 373 289 30 63 31 70 32 200 0 121 -2 139 -22 177 -13 23 -23 47 -23
54 0 29 -136 174 -185 199 -17 8 -36 19 -44 25 -8 5 -44 19 -80 29 -63 19
-110 20 -1042 23 -536 2 -978 1 -980 -2z"/>
<path d="M17150 6663 c-83 -13 -172 -39 -217 -65 -69 -38 -156 -119 -177 -163
-9 -19 -20 -37 -25 -39 -5 -3 -21 -43 -36 -88 -37 -111 -37 -194 0 -305 15
-45 33 -87 41 -94 8 -6 14 -17 14 -23 0 -13 75 -93 125 -134 48 -39 137 -76
215 -87 88 -12 1861 -13 1979 -1 105 11 196 59 284 148 37 38 67 75 67 82 0 8
9 25 20 39 11 14 25 47 30 74 34 164 34 157 16 239 -17 74 -29 107 -66 175
-19 34 -141 159 -156 159 -6 0 -23 9 -38 21 -14 11 -70 31 -123 44 l-98 24
-915 -1 c-503 0 -926 -3 -940 -5z"/>
<path d="M4485 2340 c-112 -34 -164 -69 -213 -145 -24 -36 -26 -50 -26 -135
-1 -83 2 -100 23 -135 35 -57 76 -91 157 -131 38 -19 74 -34 78 -34 4 0 22 -6
39 -14 18 -7 59 -23 92 -36 144 -54 204 -101 231 -182 33 -100 -18 -218 -116
-268 -45 -23 -197 -52 -236 -46 -16 3 -74 10 -129 17 -55 6 -104 15 -109 20
-6 5 -20 9 -33 9 -17 0 -23 -6 -23 -22 0 -40 16 -50 106 -69 113 -23 294 -25
367 -4 122 37 187 82 235 165 23 39 27 55 26 135 0 80 -3 95 -26 131 -33 52
-100 109 -158 135 -25 12 -58 27 -73 35 -16 8 -33 14 -38 14 -5 0 -51 16 -102
36 -109 43 -192 96 -212 134 -56 109 -25 232 74 294 52 33 164 59 225 52 67
-7 172 -31 214 -48 30 -12 35 -11 48 6 8 11 14 23 14 27 0 30 -196 80 -309 78
-36 0 -93 -9 -126 -19z"/>
<path d="M5540 2340 c-36 -10 -85 -28 -110 -41 -66 -32 -162 -133 -195 -204
-15 -33 -31 -68 -37 -78 -15 -30 -38 -186 -38 -262 0 -75 23 -232 38 -262 5
-10 21 -43 35 -74 32 -71 120 -167 186 -203 189 -102 477 -81 621 47 34 30
100 112 100 124 0 5 5 14 12 21 35 35 77 219 77 342 1 96 -18 216 -43 280 -23
58 -26 64 -39 86 -47 80 -116 146 -196 187 -109 56 -286 72 -411 37z m267 -64
c62 -14 122 -37 148 -58 91 -75 135 -142 172 -263 25 -84 26 -314 0 -400 -57
-191 -159 -294 -324 -325 -166 -30 -333 12 -426 108 -167 174 -184 587 -32
787 67 89 127 127 240 150 83 17 142 17 222 1z"/>
<path d="M14520 2350 c-232 -28 -381 -158 -446 -390 -20 -71 -29 -299 -16
-365 27 -124 31 -142 46 -170 9 -16 16 -34 16 -38 0 -16 80 -115 119 -149 129
-110 365 -155 566 -108 130 30 198 64 268 133 30 31 97 129 97 143 0 3 6 20
14 37 8 18 22 71 31 118 25 131 11 377 -26 459 -36 79 -47 100 -81 146 -59 79
-148 138 -254 167 -70 19 -243 28 -334 17z m235 -282 c48 -24 68 -46 102 -118
25 -52 27 -63 27 -210 -1 -137 -3 -161 -23 -210 -42 -102 -113 -150 -222 -150
-85 0 -156 39 -201 111 -45 72 -61 270 -32 395 14 64 68 164 88 164 5 0 17 6
25 14 21 19 106 35 156 29 22 -3 58 -14 80 -25z"/>
<path d="M22740 2350 c-96 -10 -189 -44 -255 -94 -139 -106 -200 -235 -211
-448 -6 -128 7 -303 26 -322 5 -5 10 -16 10 -24 0 -38 76 -161 129 -211 128
-117 361 -168 575 -125 209 42 340 161 404 368 19 60 22 93 22 241 0 156 -2
179 -25 252 -40 126 -87 197 -180 268 -106 82 -287 116 -495 95z m172 -261
c125 -26 184 -123 195 -314 5 -90 1 -128 -23 -230 -12 -50 -67 -118 -115 -142
-58 -29 -150 -30 -212 -4 -47 20 -104 81 -114 121 -3 14 -11 31 -17 39 -7 9
-11 71 -11 170 0 128 3 164 18 200 45 109 99 151 219 170 4 1 31 -4 60 -10z"/>
<path d="M19717 2327 c-8 -12 -18 -37 -22 -55 -4 -18 -13 -45 -21 -60 -8 -15
-14 -35 -14 -44 0 -10 -6 -32 -14 -50 -8 -18 -29 -80 -46 -138 -18 -58 -36
-113 -41 -122 -5 -10 -13 -34 -18 -55 -9 -36 -16 -59 -46 -143 -7 -19 -27 -82
-45 -140 -18 -58 -36 -116 -41 -128 -5 -13 -18 -52 -29 -85 -11 -34 -27 -83
-36 -109 -9 -26 -13 -52 -9 -58 4 -6 67 -10 169 -10 171 0 186 4 186 46 0 12
7 38 15 57 8 20 15 47 15 60 0 13 6 32 14 42 12 17 29 19 182 20 226 1 221 3
244 -65 10 -30 21 -72 24 -92 12 -66 19 -68 196 -68 176 0 177 0 153 65 -8 22
-18 54 -22 70 -5 17 -13 41 -19 55 -5 14 -51 153 -102 310 -50 157 -98 300
-106 318 -8 18 -14 40 -14 50 0 9 -6 29 -14 44 -8 15 -17 41 -21 59 -4 19 -11
40 -16 49 -4 8 -18 49 -30 90 -34 116 -19 110 -254 110 -200 0 -203 0 -218
-23z m248 -269 c7 -42 21 -102 50 -203 29 -105 45 -171 48 -200 l2 -30 -119
-3 c-66 -1 -123 1 -129 7 -5 5 -2 32 8 67 37 133 63 236 77 309 10 51 32 95
47 95 5 0 12 -19 16 -42z"/>
<path d="M145 2328 c-3 -7 -4 -269 -3 -583 l3 -570 30 0 30 0 3 250 c2 184 6
251 15 257 6 4 123 8 259 8 135 0 253 3 262 6 19 7 21 35 4 52 -9 9 -80 12
-259 12 -245 0 -248 0 -263 22 -13 19 -16 60 -16 243 0 159 3 224 12 233 9 9
84 12 274 12 144 0 269 3 278 6 19 7 21 35 4 52 -18 18 -627 17 -633 0z"/>
<path d="M1002 2328 c-9 -9 -12 -141 -12 -579 0 -614 -3 -579 51 -579 18 0 19
10 19 234 0 129 4 245 9 259 9 23 10 24 143 22 73 -1 141 -5 150 -9 13 -6 193
-295 283 -455 21 -38 38 -51 64 -51 51 0 53 12 16 71 -20 29 -73 116 -118 192
-45 76 -90 150 -99 165 -50 80 -59 122 -24 122 28 0 96 42 139 85 53 53 80
128 79 222 -2 118 -52 208 -140 253 -26 13 -55 27 -66 32 -50 25 -471 39 -494
16z m462 -79 c63 -25 105 -59 132 -109 15 -27 19 -56 19 -130 0 -86 -3 -99
-26 -135 -26 -40 -88 -95 -107 -95 -5 0 -23 -7 -38 -15 -44 -23 -369 -22 -378
1 -8 20 -8 468 0 488 5 14 30 16 174 16 147 0 175 -3 224 -21z"/>
<path d="M2005 2328 c-3 -7 -4 -269 -3 -583 l3 -570 315 0 315 0 3 28 c2 15 0
27 -5 28 -4 0 -129 2 -278 3 -148 0 -276 5 -282 9 -16 10 -18 441 -3 481 l9
26 263 2 263 3 3 28 c2 15 0 28 -5 28 -4 1 -124 2 -265 3 -141 1 -261 5 -265
10 -4 4 -9 101 -11 215 -3 169 -1 210 11 219 9 8 98 12 288 14 l274 3 0 30 0
30 -313 3 c-245 2 -314 0 -317 -10z"/>
<path d="M2935 2318 c-3 -13 -4 -275 -3 -583 l3 -560 309 -3 c205 -1 313 1
321 8 12 10 9 49 -4 51 -3 0 -125 2 -271 2 -146 1 -271 6 -277 10 -19 12 -18
480 0 496 9 7 101 12 268 13 l254 3 0 30 0 30 -255 0 c-140 0 -261 4 -267 8
-10 6 -13 62 -13 222 0 185 2 214 16 219 9 3 135 6 280 6 l265 0 8 23 c18 46
9 47 -320 47 l-309 0 -5 -22z"/>
<path d="M6531 2326 c-8 -9 -10 -170 -9 -582 l3 -569 30 0 30 0 5 255 5 255
265 3 c145 1 268 6 273 11 5 5 7 21 3 35 l-6 26 -260 0 c-248 0 -260 1 -270
20 -7 12 -9 103 -8 252 l3 233 280 3 c153 1 283 6 288 11 5 5 7 21 3 35 l-6
26 -309 0 c-248 0 -311 -3 -320 -14z"/>
<path d="M7210 2325 c-6 -8 -10 -22 -8 -32 3 -16 21 -18 193 -23 l190 -5 5
-545 c3 -300 6 -546 8 -548 1 -2 17 -2 35 0 l32 3 3 534 c1 374 6 538 13 548
9 10 54 13 194 13 170 0 183 1 188 19 2 10 0 26 -5 35 -8 14 -49 16 -422 16
-349 0 -415 -2 -426 -15z"/>
<path d="M8143 2329 c-6 -6 -10 -17 -8 -23 1 -6 10 -38 20 -71 16 -58 27 -96
59 -215 27 -100 56 -204 70 -250 13 -45 30 -106 60 -213 28 -101 45 -160 66
-231 11 -38 20 -76 20 -83 0 -33 31 -73 56 -73 20 0 29 9 44 43 11 23 20 51
20 62 0 10 6 37 14 60 7 22 20 65 29 95 9 30 25 87 37 125 11 39 27 93 35 120
17 61 43 155 61 215 20 70 35 127 63 233 14 54 30 98 36 98 9 0 24 -42 64
-181 44 -153 54 -186 66 -225 20 -66 43 -146 65 -225 34 -121 52 -182 66 -223
8 -20 14 -46 14 -57 0 -11 6 -34 14 -52 8 -18 17 -45 21 -60 4 -20 12 -28 26
-28 28 0 59 18 59 34 0 7 9 44 20 82 24 79 44 150 65 229 27 99 45 163 100
355 7 25 21 72 30 105 22 83 42 155 60 218 32 115 34 126 20 137 -18 15 -46 9
-55 -10 -8 -15 -27 -81 -56 -188 -18 -70 -40 -151 -58 -215 -8 -28 -24 -86
-36 -127 -11 -41 -25 -89 -30 -106 -6 -16 -14 -50 -19 -75 -6 -24 -19 -75 -30
-114 -12 -38 -25 -90 -30 -113 -18 -87 -36 -66 -76 83 -7 28 -21 75 -30 105
-9 30 -23 78 -30 105 -8 28 -21 73 -29 100 -43 141 -58 194 -67 230 -5 22 -13
49 -18 60 -5 11 -14 38 -20 60 -5 22 -15 60 -22 85 -6 25 -20 64 -30 88 -18
41 -21 43 -55 40 -34 -3 -38 -7 -54 -53 -19 -55 -38 -121 -70 -235 -22 -79
-45 -159 -65 -225 -22 -70 -59 -201 -100 -350 -7 -27 -16 -67 -20 -87 -10 -63
-48 -46 -60 27 -4 22 -13 60 -20 85 -7 25 -20 74 -30 110 -34 129 -44 166 -65
240 -41 146 -49 176 -65 235 -9 33 -23 80 -30 105 -8 25 -17 61 -20 80 -12 59
-53 88 -82 59z"/>
<path d="M10058 2303 c-9 -21 -26 -63 -38 -93 -12 -30 -27 -68 -34 -85 -8 -16
-22 -50 -32 -75 -9 -25 -25 -63 -34 -85 -9 -22 -25 -60 -34 -85 -26 -64 -41
-100 -59 -140 -8 -19 -32 -78 -52 -130 -21 -52 -50 -123 -66 -158 -16 -34 -29
-68 -29 -75 0 -7 -7 -22 -15 -33 -8 -10 -15 -25 -15 -32 0 -7 -9 -33 -21 -58
-26 -59 -22 -79 16 -79 35 0 42 12 125 220 57 143 74 177 92 184 14 5 416 7
466 2 11 -1 62 -98 62 -120 0 -5 6 -22 14 -38 18 -35 73 -170 81 -199 8 -31
40 -56 67 -52 19 2 23 8 21 33 -1 16 -9 43 -17 60 -8 16 -24 55 -36 85 -11 30
-25 64 -30 75 -4 11 -25 63 -45 115 -20 52 -41 104 -45 115 -5 11 -18 45 -30
75 -12 30 -28 68 -36 83 -8 16 -14 33 -14 38 0 6 -8 29 -18 52 -10 23 -27 62
-36 87 -10 25 -24 59 -31 75 -7 17 -21 50 -31 75 -10 25 -26 64 -36 87 -10 23
-18 48 -18 55 -1 21 -37 58 -57 58 -13 0 -25 -13 -35 -37z m67 -156 c4 -17 11
-36 15 -42 4 -5 13 -28 20 -50 7 -22 16 -44 21 -49 5 -6 9 -17 9 -25 0 -9 7
-29 15 -45 8 -15 15 -33 15 -40 0 -6 7 -24 16 -41 9 -16 20 -41 24 -55 5 -14
17 -49 28 -78 20 -51 20 -52 2 -62 -24 -13 -366 -13 -390 0 -20 11 -18 20 39
160 13 30 30 73 39 95 8 22 24 59 34 82 10 23 18 48 18 55 0 7 7 22 15 32 8
11 15 30 15 43 0 25 35 67 50 58 4 -3 12 -20 15 -38z"/>
<path d="M10788 2329 c-17 -9 -18 -47 -18 -572 0 -309 4 -568 9 -575 5 -8 21
-12 37 -10 l29 3 5 241 c4 170 9 245 17 256 17 20 257 19 288 -1 11 -7 49 -63
85 -123 36 -61 73 -122 82 -136 10 -15 21 -34 25 -42 4 -8 20 -34 35 -56 15
-23 28 -44 28 -48 0 -9 51 -80 63 -88 20 -13 57 -9 63 6 5 13 -13 48 -66 131
-21 33 -173 282 -185 304 -6 11 -17 26 -24 34 -22 27 -9 58 29 71 99 34 169
115 195 228 18 74 18 79 0 145 -10 37 -29 85 -42 106 -24 37 -105 96 -134 97
-8 0 -20 5 -26 11 -24 24 -459 40 -495 18z m467 -81 c105 -40 155 -117 155
-238 0 -118 -44 -185 -156 -236 -49 -22 -65 -24 -216 -24 -114 0 -168 4 -176
12 -9 9 -12 78 -12 248 0 170 3 239 12 248 8 8 61 12 174 12 143 0 169 -3 219
-22z"/>
<path d="M11792 2328 c-9 -9 -12 -148 -12 -579 0 -508 2 -567 16 -573 9 -3
155 -6 325 -6 l309 0 0 30 c0 17 -3 30 -7 31 -5 1 -129 2 -278 4 -148 1 -273
3 -278 4 -4 0 -6 115 -5 254 l3 252 265 5 265 5 3 28 c4 32 33 29 -278 32
-126 1 -237 3 -245 4 -13 1 -15 30 -13 224 l3 222 283 3 283 2 -3 33 -3 32
-310 3 c-233 2 -314 -1 -323 -10z"/>
<path d="M13175 2328 c-3 -7 -4 -278 -3 -603 l3 -590 144 -3 c97 -2 148 1 157
9 11 9 14 54 14 218 0 148 3 210 12 219 8 8 61 12 173 12 112 0 165 4 173 12
8 8 12 48 12 113 0 65 -4 105 -12 113 -8 8 -61 12 -174 12 -126 0 -164 3 -173
14 -8 9 -11 50 -9 117 l3 104 185 5 c102 3 191 9 198 13 15 10 17 199 2 228
-10 18 -25 19 -356 19 -266 0 -346 -3 -349 -12z"/>
<path d="M15454 2305 c-3 -20 -4 -210 -2 -423 4 -334 7 -394 22 -442 48 -149
116 -228 241 -283 101 -44 272 -58 400 -32 184 36 297 133 354 305 21 63 22
77 19 485 l-3 420 -152 3 c-151 3 -153 2 -158 -20 -2 -13 -6 -201 -7 -418 l-3
-395 -24 -38 c-37 -60 -88 -87 -163 -87 -81 0 -133 28 -168 90 l-25 45 -5 410
-5 410 -157 3 -157 3 -7 -36z"/>
<path d="M16766 2318 c-9 -35 -7 -1161 2 -1176 7 -9 41 -12 138 -10 l129 3 3
410 c1 225 6 413 10 417 4 4 36 -48 70 -115 35 -67 92 -178 128 -247 36 -69
104 -199 151 -290 47 -91 91 -168 97 -172 6 -5 103 -7 216 -5 l205 2 0 600 0
600 -129 3 c-86 2 -133 -1 -142 -9 -11 -9 -14 -67 -13 -313 0 -165 4 -340 7
-389 9 -114 3 -130 -29 -80 -32 50 -32 49 -204 378 -29 55 -78 150 -110 210
-32 61 -69 131 -83 158 l-25 47 -207 0 c-207 0 -208 0 -214 -22z"/>
<path d="M18202 1738 l3 -603 270 0 c297 0 318 3 454 69 63 31 148 103 187
161 113 165 139 447 61 658 -7 21 -19 43 -25 49 -7 7 -12 18 -12 25 0 18 -119
135 -155 153 -16 8 -37 19 -45 25 -21 16 -83 34 -170 51 -51 9 -153 14 -323
14 l-247 0 2 -602z m530 322 c82 -36 121 -90 144 -200 18 -84 18 -148 -1 -235
-19 -92 -37 -126 -90 -173 -37 -33 -56 -41 -114 -50 -94 -16 -121 -15 -143 5
-17 15 -18 38 -18 319 0 172 4 314 10 328 9 25 13 26 88 26 57 0 92 -6 124
-20z"/>
<path d="M20612 2213 l3 -128 145 -5 145 -5 5 -470 5 -470 135 -3 c74 -1 145
0 158 3 l22 5 0 458 c0 343 3 461 12 470 8 8 52 12 134 12 67 0 129 3 138 6
13 5 16 25 16 111 0 57 -5 113 -10 124 -10 18 -26 19 -461 19 l-450 0 3 -127z"/>
<path d="M21716 2324 c-3 -9 -6 -278 -6 -600 l0 -584 23 -5 c12 -3 85 -4 162
-3 l140 3 3 580 c1 319 0 590 -3 603 -5 22 -8 22 -159 22 -131 0 -155 -2 -160
-16z"/>
<path d="M23685 2318 c-3 -13 -4 -284 -3 -603 l3 -580 135 0 135 0 3 413 c1
226 6 412 11 412 5 0 22 -26 38 -57 43 -85 196 -379 274 -528 37 -71 80 -154
94 -182 17 -34 34 -55 48 -58 12 -3 110 -4 217 -3 l195 3 3 580 c1 319 0 590
-3 603 -5 22 -7 23 -143 20 l-137 -3 0 -410 0 -411 -23 27 c-23 28 -64 102
-168 304 -31 61 -72 139 -91 175 -19 36 -51 97 -71 135 -19 39 -51 96 -69 128
l-34 57 -205 0 c-203 0 -204 0 -209 -22z"/>
</g>
</svg>
