<?xml version="1.0" standalone="no"?>
<!DOCTYPE svg PUBLIC "-//W3C//DTD SVG 20010904//EN"
 "http://www.w3.org/TR/2001/REC-SVG-20010904/DTD/svg10.dtd">
<svg version="1.0" xmlns="http://www.w3.org/2000/svg"
 width="2500.000000pt" height="1000.000000pt" viewBox="0 0 2500.000000 1000.000000"
 preserveAspectRatio="xMidYMid meet">

<g transform="translate(0.000000,1000.000000) scale(0.100000,-0.100000)"
fill="#000000" stroke="none">
<path d="M13430 8394 c-548 -79 -1020 -290 -1426 -637 -267 -228 -431 -479
-495 -757 -17 -71 -16 -318 0 -390 76 -326 244 -549 561 -749 193 -122 278
-183 341 -243 76 -72 138 -164 164 -240 25 -71 25 -224 1 -293 -71 -204 -253
-402 -593 -642 -160 -114 -515 -293 -661 -335 -18 -5 -30 -14 -26 -19 16 -26
370 25 567 80 20 6 52 15 70 20 90 24 359 131 432 171 17 9 66 36 110 60 44
24 139 83 210 132 391 266 585 520 602 788 7 111 -8 185 -58 288 -67 139 -240
296 -461 421 -85 48 -109 61 -184 107 -172 104 -302 217 -372 323 -80 121
-106 208 -106 366 -1 208 56 373 211 609 252 385 640 707 1068 887 44 18 89
39 100 46 19 12 18 13 -5 12 -14 -1 -36 -3 -50 -5z"/>
<path d="M9725 7805 c-210 -40 -388 -143 -525 -306 -85 -102 -141 -221 -169
-357 -16 -77 -15 -2241 0 -2279 31 -76 41 -92 80 -131 64 -63 119 -85 214 -85
68 -1 88 3 135 27 92 46 143 109 169 211 7 27 11 395 11 1096 0 1168 -4 1097
65 1158 72 63 56 61 634 61 545 0 579 2 657 43 136 70 194 257 126 402 -32 67
-83 117 -151 149 -45 21 -59 21 -611 23 -431 1 -582 -2 -635 -12z"/>
<path d="M14510 7805 c-171 -35 -280 -84 -401 -181 -102 -81 -203 -210 -239
-304 -7 -19 -17 -39 -22 -44 -4 -6 -8 -18 -8 -28 0 -10 -4 -26 -9 -36 -28 -55
-31 -164 -31 -1225 0 -1068 0 -1087 20 -1141 28 -74 91 -143 160 -174 81 -36
184 -36 262 1 65 32 121 89 152 156 21 46 21 49 26 1136 5 1009 6 1092 22
1122 23 42 80 88 127 102 27 7 198 11 557 11 540 0 572 2 652 44 49 25 105 85
132 141 34 73 33 190 -3 261 -30 60 -92 118 -156 148 -45 21 -57 21 -611 23
-434 1 -580 -2 -630 -12z"/>
<path d="M9976 6360 c-98 -38 -146 -110 -146 -218 0 -58 4 -75 29 -115 17 -25
49 -59 72 -74 l43 -28 491 0 491 0 43 28 c52 34 98 105 107 163 7 51 -17 139
-49 175 -32 36 -76 64 -123 77 -29 8 -170 12 -475 12 -403 -1 -437 -2 -483
-20z"/>
<path d="M14715 6367 c-81 -23 -165 -135 -165 -220 0 -45 38 -132 72 -165 66
-63 60 -62 575 -62 431 0 471 2 508 19 82 37 144 148 131 233 -15 91 -86 173
-170 196 -61 16 -891 15 -951 -1z"/>
<path d="M11309 3569 c-83 -12 -155 -62 -178 -122 -18 -47 -13 -118 12 -161
17 -31 38 -48 92 -75 39 -19 79 -38 90 -42 144 -51 192 -85 202 -142 21 -130
-71 -201 -249 -191 -48 2 -98 8 -113 14 -42 16 -55 12 -55 -14 0 -22 7 -26 55
-36 235 -49 404 19 422 169 7 62 -9 110 -50 148 -42 40 -68 53 -212 108 -93
35 -132 66 -146 115 -42 141 130 232 318 167 46 -16 63 -12 63 13 0 34 -152
64 -251 49z"/>
<path d="M11991 3570 c-99 -21 -186 -87 -230 -176 -35 -69 -52 -193 -39 -284
10 -74 50 -174 86 -216 68 -80 205 -126 315 -105 162 31 246 115 283 286 37
166 -15 350 -121 430 -72 56 -201 84 -294 65z m184 -62 c27 -7 57 -27 92 -62
67 -67 88 -132 88 -271 -1 -163 -47 -257 -154 -311 -45 -23 -65 -27 -135 -27
-50 1 -95 7 -118 17 -50 22 -105 71 -128 116 -24 47 -50 159 -50 213 0 52 25
157 46 200 60 119 198 167 359 125z"/>
<path d="M14912 3557 c-6 -7 -59 -132 -118 -277 -58 -146 -124 -307 -145 -359
-45 -107 -47 -121 -19 -121 25 0 32 11 88 150 l47 115 158 3 158 3 23 -53 c13
-29 36 -84 51 -123 15 -38 32 -76 38 -82 14 -19 47 -16 47 5 0 13 -114 306
-207 532 -8 19 -31 75 -51 124 -38 92 -51 107 -70 83z m48 -162 c5 -11 22 -58
40 -105 18 -47 36 -94 40 -105 5 -11 12 -30 15 -42 l6 -23 -136 0 c-126 0
-137 1 -131 18 43 116 123 309 131 314 5 4 14 -2 19 -15 4 -12 12 -31 16 -42z"/>
<path d="M8455 3547 c-3 -6 -4 -176 -3 -377 l3 -365 25 0 25 0 5 165 5 165
170 5 c162 5 170 6 170 25 0 19 -8 20 -170 25 l-170 5 -3 158 c-1 86 1 158 5
158 5 1 85 2 180 3 95 1 175 5 179 8 3 4 4 14 1 23 -6 13 -36 15 -212 15 -156
0 -207 -3 -210 -13z"/>
<path d="M9005 3549 c-3 -8 -4 -178 -3 -379 l3 -365 25 0 25 0 3 163 2 162 95
0 94 0 41 -59 c22 -33 40 -63 40 -66 0 -4 14 -26 30 -50 17 -24 30 -46 30 -49
0 -2 14 -27 31 -55 27 -43 37 -51 62 -51 36 0 37 -2 -48 136 -37 60 -78 128
-92 152 -24 42 -25 72 -3 72 24 0 88 53 109 91 17 30 23 57 24 102 0 90 -31
140 -113 183 -46 24 -346 35 -355 13z m310 -49 c95 -36 132 -155 76 -247 -33
-52 -94 -73 -221 -73 l-110 0 0 163 c0 90 3 167 8 171 10 11 211 0 247 -14z"/>
<path d="M9667 3553 c-4 -3 -7 -174 -7 -380 l0 -373 210 0 c203 0 210 1 210
20 0 19 -7 20 -172 20 -95 0 -179 4 -186 8 -9 7 -12 47 -10 168 l3 159 173 3
c163 2 172 3 172 22 0 19 -9 20 -172 22 l-173 3 -3 143 c-2 121 0 142 13 143
8 1 87 3 175 4 195 3 180 1 180 25 0 19 -7 20 -203 20 -112 0 -207 -3 -210 -7z"/>
<path d="M10270 3180 l0 -380 210 0 c203 0 210 1 210 20 0 19 -7 20 -172 20
-95 0 -179 4 -186 8 -9 7 -12 47 -10 168 l3 159 173 3 c163 2 172 3 172 22 0
19 -9 20 -172 22 l-173 3 -3 143 c-2 92 1 142 8 143 5 1 88 2 183 3 170 1 172
1 175 24 l3 22 -210 0 -211 0 0 -380z"/>
<path d="M12605 3548 c-3 -7 -4 -177 -3 -378 l3 -365 22 -3 c22 -3 23 -3 25
165 l3 168 175 5 c131 4 175 8 174 18 -1 6 -2 16 -2 22 -1 6 -72 11 -174 12
l-173 3 -3 158 c-2 135 0 157 13 158 8 1 93 2 188 3 165 1 172 2 172 21 0 19
-8 20 -208 23 -161 2 -209 0 -212 -10z"/>
<path d="M13044 3545 c-4 -9 -3 -19 1 -23 3 -4 61 -7 128 -8 l122 0 3 -358 2
-357 28 3 27 3 3 353 c1 193 6 352 10 353 4 1 59 2 122 2 108 2 115 3 115 22
0 19 -8 20 -278 23 -244 2 -278 0 -283 -13z"/>
<path d="M13650 3546 c0 -7 4 -26 9 -42 5 -16 14 -47 20 -69 6 -22 27 -96 46
-165 19 -69 40 -143 46 -165 6 -22 15 -51 19 -65 9 -30 30 -103 40 -145 23
-86 25 -90 50 -90 23 0 27 11 92 235 83 285 109 376 115 413 3 15 9 27 13 27
7 0 12 -11 30 -75 4 -16 25 -86 45 -155 20 -69 41 -138 45 -155 5 -16 19 -64
30 -105 12 -41 25 -88 30 -105 18 -68 29 -86 52 -83 18 2 25 15 40 68 36 136
148 534 167 595 5 17 12 45 16 63 6 29 5 32 -19 32 -14 0 -26 -2 -26 -5 0 -2
-7 -30 -16 -62 -9 -32 -19 -71 -24 -88 -4 -16 -30 -111 -58 -210 -27 -99 -55
-204 -63 -232 -7 -29 -16 -53 -19 -53 -4 0 -26 64 -48 143 -23 78 -56 189 -73
247 -17 58 -41 139 -53 180 -21 71 -23 75 -53 78 -33 3 -33 4 -63 -108 -12
-43 -39 -137 -73 -250 -14 -47 -35 -123 -47 -170 -12 -47 -24 -91 -26 -99 -8
-26 -24 4 -44 80 -10 41 -27 106 -38 144 -86 311 -106 382 -115 393 -13 16
-47 15 -47 -2z"/>
<path d="M15370 3181 l0 -381 25 0 25 0 2 163 3 162 80 3 c44 2 89 1 100 -2
13 -4 54 -63 115 -166 87 -147 97 -160 124 -160 36 0 38 -4 -74 180 -49 82
-90 154 -90 159 0 6 20 19 44 29 119 53 154 228 63 323 -50 53 -86 62 -259 67
l-158 4 0 -381z m321 315 c64 -27 94 -86 87 -167 -6 -59 -30 -95 -84 -127 -35
-20 -50 -22 -154 -20 l-115 3 -3 159 c-2 121 1 162 10 168 19 13 219 1 259
-16z"/>
<path d="M16025 3547 c-3 -6 -4 -176 -3 -377 l3 -365 210 0 c191 0 210 2 213
17 3 16 -13 18 -185 20 l-188 3 -3 145 c-1 80 0 155 3 167 5 22 9 23 178 25
153 3 172 5 175 20 3 16 -12 18 -175 20 l-178 3 0 145 0 145 182 0 c100 0 185
4 189 7 3 4 4 14 1 23 -6 13 -36 15 -212 15 -156 0 -207 -3 -210 -13z"/>
<path d="M9355 2550 c-142 -31 -231 -108 -274 -239 -26 -78 -29 -268 -7 -342
57 -187 205 -281 423 -267 255 17 388 184 370 466 -12 190 -87 311 -226 363
-62 23 -221 34 -286 19z m202 -207 c55 -40 68 -82 68 -213 0 -132 -16 -178
-74 -217 -40 -27 -116 -31 -161 -8 -101 52 -132 244 -64 393 36 78 156 102
231 45z"/>
<path d="M15000 2554 c-90 -16 -159 -52 -216 -112 -121 -127 -136 -424 -29
-586 69 -103 181 -155 335 -155 207 0 333 88 391 274 18 59 16 258 -4 324 -22
70 -58 131 -101 169 -33 28 -52 39 -130 71 -31 13 -202 23 -246 15z m172 -200
c57 -30 88 -108 88 -224 0 -162 -54 -240 -167 -240 -68 0 -113 27 -143 86 -22
43 -25 61 -25 154 0 153 35 220 128 240 39 8 83 3 119 -16z"/>
<path d="M8455 2537 c-3 -6 -4 -194 -3 -417 l3 -405 92 -3 c137 -4 132 -10
135 166 l3 147 120 5 120 5 3 74 c2 41 -2 79 -7 84 -6 6 -61 10 -123 11 l-113
1 0 80 0 80 133 3 132 3 0 77 c0 47 -5 83 -12 90 -18 18 -477 17 -483 -1z"/>
<path d="M10020 2252 c0 -272 2 -302 20 -352 25 -69 65 -118 120 -149 185
-102 466 -43 534 113 35 81 36 91 34 386 l-3 295 -105 0 -105 0 -5 -285 c-4
-206 -9 -292 -19 -311 -40 -79 -185 -79 -226 1 -12 24 -15 77 -15 299 0 148
-3 276 -6 285 -5 13 -25 16 -115 16 l-109 0 0 -298z"/>
<path d="M10916 2534 c-3 -9 -6 -192 -6 -409 0 -325 2 -395 14 -404 9 -8 45
-11 98 -9 l83 3 2 284 c1 156 4 285 5 287 2 1 49 -86 105 -194 56 -108 124
-237 150 -287 l48 -90 145 0 145 0 0 415 0 415 -95 0 -95 0 0 -278 c0 -152 -2
-277 -5 -277 -7 0 -27 34 -78 130 -24 47 -64 122 -88 167 -25 45 -62 116 -83
158 -58 112 -44 105 -201 105 -116 0 -139 -2 -144 -16z"/>
<path d="M11896 2534 c-3 -9 -6 -192 -6 -409 0 -340 2 -394 15 -405 19 -16
362 -8 415 10 121 40 187 96 237 198 l38 77 0 140 c0 134 -1 142 -28 195 -33
64 -66 101 -122 139 -80 54 -174 71 -386 71 -134 0 -158 -2 -163 -16z m384
-192 c22 -11 44 -34 60 -62 22 -39 25 -57 25 -145 0 -88 -3 -105 -25 -144 -33
-59 -65 -81 -133 -90 -91 -12 -87 -22 -87 234 0 169 3 225 13 229 21 9 110 -4
147 -22z"/>
<path d="M12932 2523 c-6 -16 -39 -113 -73 -218 -34 -104 -90 -277 -125 -384
-35 -106 -61 -197 -58 -202 6 -11 214 -12 230 -1 6 4 19 36 28 72 10 36 23 68
30 72 20 14 253 9 263 -4 6 -7 16 -38 23 -68 7 -30 17 -61 23 -67 12 -16 223
-18 232 -3 3 6 -14 72 -39 148 -25 75 -86 259 -135 407 l-89 270 -150 3 -149
3 -11 -28z m181 -195 c2 -18 18 -85 35 -148 17 -63 28 -118 26 -122 -3 -5 -41
-8 -85 -8 -97 0 -94 -13 -40 182 11 43 21 86 21 96 0 20 19 44 30 37 5 -3 10
-19 13 -37z"/>
<path d="M13552 2458 l3 -93 98 -3 97 -3 0 -309 c0 -169 3 -315 6 -324 5 -13
24 -16 99 -16 51 0 100 3 109 6 14 5 16 43 16 325 l0 319 88 0 c48 0 93 4 100
9 9 5 12 31 10 92 l-3 84 -313 3 -313 2 3 -92z"/>
<path d="M14312 2538 c-19 -19 -17 -801 2 -817 9 -8 48 -11 112 -9 l99 3 0
415 0 415 -100 3 c-70 2 -104 -1 -113 -10z"/>
<path d="M15655 2528 c-3 -13 -4 -201 -3 -418 l3 -395 89 -3 c64 -2 92 1 98
10 5 7 8 133 6 280 -2 146 -1 269 2 272 6 6 22 -23 155 -279 51 -99 104 -200
117 -225 12 -25 28 -48 33 -52 14 -10 267 -10 283 0 10 7 12 97 10 418 l-3
409 -95 0 -95 0 -3 -272 c-1 -152 -6 -273 -11 -273 -5 0 -28 37 -51 83 -24 45
-55 105 -70 132 -15 28 -58 109 -95 180 -37 72 -72 136 -78 143 -7 8 -49 12
-148 12 -135 0 -139 -1 -144 -22z"/>
</g>
</svg>
