<svg xmlns="http://www.w3.org/2000/svg" xmlns:xlink="http://www.w3.org/1999/xlink" style="isolation:isolate" width="715pt" height="122pt" viewBox="0 0 715 122"><defs><clipPath id="_clipPath_VxKTMnXmX9eIxPUoRyZDs3JkRTp4N4Du"><rect width="715" height="122"/></clipPath></defs><g clip-path="url(#_clipPath_VxKTMnXmX9eIxPUoRyZDs3JkRTp4N4Du)"><path fill="#FFF" d="M 2.2 23.7 L 2.5 36.5 L 20.3 36.8 L 38 37 L 38 71.9 C 38 91.1 38.3 107.5 38.6 108.4 C 39.1 109.7 41.2 110 51.6 110 L 64 110 L 64 73.5 L 64 37 L 82.3 36.8 L 100.5 36.5 L 100.5 24 L 100.5 11.5 L 51.2 11.2 L 1.9 11 L 2.2 23.7 Z"/><path fill="#FFF" d="M 103 58.9 C 103 85.3 103.3 107.5 103.6 108.4 C 104.1 109.8 109.4 110 153.1 110 L 202 110 L 202 97.6 C 202 87.2 201.7 85.1 200.4 84.6 C 199.5 84.3 183.1 84 163.9 84 L 128.9 84 L 129.2 78.8 L 129.5 73.5 L 165.8 73.2 L 202 73 L 202 60.6 C 202 50.2 201.7 48.1 200.4 47.6 C 199.5 47.3 183.1 47 163.9 47 L 129 47 L 129 42 L 129 37 L 165.5 37 L 202.1 37 L 201.8 24.2 L 201.5 11.5 L 152.3 11.2 L 103 11 L 103 58.9 Z"/><path fill="#FFF" d="M 240.6 12.6 C 222.8 16.9 207.6 34 205 52.5 C 202.6 70.5 210.2 89.4 224.2 99.8 C 236.6 109.1 241.1 110 275.8 110 L 303.1 110 L 302.8 97.2 L 302.5 84.5 L 273.9 84 L 245.3 83.5 L 241.2 80.7 C 231 74 227.5 60.8 233 49.9 C 235.5 45 242.1 39.4 246.7 38.1 C 248.9 37.4 261.3 37 276.8 37 L 303.1 37 L 302.8 24.2 L 302.5 11.5 L 274.5 11.3 C 253.1 11.2 245.1 11.5 240.6 12.6 Z"/><path fill="#FFF" d="M 311.3 12.9 C 309.6 14 307.6 15.9 307 17.1 C 305.3 20.2 306.3 28.6 308.7 31.8 C 311.1 35 317.6 37.6 321.2 36.7 C 325.3 35.6 329.9 31.2 331.1 27 C 333.3 19.8 327.3 12.2 318.9 11.3 C 315.7 11 313.7 11.4 311.3 12.9 Z"/><path fill="#FFF" d="M 334 58.9 C 334 85.3 334.3 107.5 334.6 108.4 C 335.1 109.7 337.2 110 347.6 110 L 360 110 L 360 73.5 L 360 37 L 373.6 37 C 389.5 37 393.5 38 399.4 43.1 C 406.9 49.7 407 50.3 407 80.3 C 407 94.9 407.3 107.5 407.6 108.4 C 408.1 109.7 410.2 110 420.6 110 L 433 110 L 433 83.7 C 433 69.3 432.5 54.8 432 51.5 C 429 33 411.5 15.5 392.6 12.1 C 389.3 11.5 374.8 11 360.3 11 L 334 11 L 334 58.9 Z"/><path fill="#FFF" d="M 471 12.8 C 448.1 18.8 432.3 42.8 436 66.2 C 437.4 75.6 440.4 82.9 445.4 89.7 C 450.8 96.9 453 99 460.4 103.4 C 471.9 110.3 489.4 111.8 502.3 107 C 514.5 102.4 526.3 90.6 531.1 78.2 C 532.4 74.7 533.5 69.3 533.8 64.1 C 534.6 49.2 530.7 38 521 27.7 C 507.6 13.4 489.4 8 471 12.8 Z M 492.4 38.1 C 496.7 39.3 504.4 45.9 506.7 50.4 C 509 54.9 508.7 64.9 506 70.4 C 499.9 83.1 482.7 88.1 471.8 80.4 C 469.5 78.8 466.2 75.2 464.5 72.5 C 461.9 68.4 461.5 66.7 461.5 61.1 C 461.6 44.5 476.2 33.6 492.4 38.1 Z"/><path fill="#FFF" d="M 531.3 13 C 529.6 14 527.6 15.8 527.1 16.9 C 524.3 22 525.6 26 541.5 60.1 C 550.1 78.5 558.7 97.2 560.8 101.7 L 564.5 109.9 L 575.1 110 L 585.6 110 L 604.8 68.9 C 626.5 22.4 626.8 21.6 620.7 15.5 C 615 9.8 607 9.6 602.1 15 C 600.7 16.6 594.1 29.6 587.5 43.9 C 580.9 58.2 575.3 70 574.9 70 C 574.6 70 569.1 58.6 562.6 44.7 C 556.1 30.9 550.1 18.4 549.3 17.2 C 547.6 14.5 540.7 11.1 537 11 C 535.6 11 533.1 11.9 531.3 13 Z"/><path fill="#FFF" d="M 652.5 12.4 C 641.2 15.1 629.7 23.6 623 34 C 616.6 44 616 47.8 616 80.6 L 616 110.1 L 628.8 109.8 L 641.5 109.5 L 641.8 97.5 L 642.1 85.5 L 665.3 85.7 L 688.5 85.9 L 689 97.7 L 689.5 109.5 L 702 109.5 L 714.5 109.5 L 714.5 82 C 714.5 62 714.1 53 713.1 49 C 706.6 22.9 678.7 6 652.5 12.4 Z M 677.6 40.6 C 683.2 44 688.1 51.2 688.3 56.2 L 688.5 59.5 L 665.3 59.8 L 642 60 L 642 57.3 C 642 50.6 649.5 41.2 657.1 38.3 C 662.9 36.1 672.1 37.1 677.6 40.6 Z"/><path fill="#FFF" d="M 306 85 L 306 110.1 L 318.8 109.8 L 331.5 109.5 L 331.5 85 L 331.5 60.5 L 318.8 60.2 L 306 59.9 L 306 85 Z"/></g></svg>